<?xml version="1.0" encoding="UTF-8" standalone="no"?>
<!DOCTYPE svg  PUBLIC '-//W3C//DTD SVG 1.1//EN'  'http://www.w3.org/Graphics/SVG/1.1/DTD/svg11.dtd'>
<svg xmlns="http://www.w3.org/2000/svg">
<defs>
<font id="AdelleSansSAGE-Regular" horiz-adv-x="500">
<font-face underline-position="-50" font-weight="400" descent="-200" panose-1="2 0 5 3 0 0 0 2 0 4" units-per-em="1000" unicode-range="U+0020-25CA" bbox="-151 -232 1047 913" x-height="514" underline-thickness="50" font-family="AdelleSansSAGE" ascent="800" cap-height="724"/>
<missing-glyph horiz-adv-x="1000"/>
<glyph glyph-name=".notdef" horiz-adv-x="1000"/>
<glyph glyph-name=".null" horiz-adv-x="0"/>
<glyph glyph-name="nonmarkingreturn" horiz-adv-x="1000"/>
<glyph glyph-name="space" horiz-adv-x="214" unicode=" "/>
<glyph glyph-name="exclam" horiz-adv-x="266" unicode="!" d="M201 52q0 -64 -67 -64t-67 64q0 65 67 65t67 -65zM99 188l-17 536h102l-16 -536h-69z"/>
<glyph glyph-name="quotedbl" horiz-adv-x="361" unicode='&quot;' d="M213 465v259h90v-259h-90zM58 465v259h90v-259h-90z"/>
<glyph glyph-name="numbersign" horiz-adv-x="607" unicode="#" d="M374 358h-119l-23 -145h121zM321 0l22 144h-121l-22 -144h-72l21 144h-115l16 69h110l23 145h-115l14 70h111l19 131h73l-20 -131h119l19 131h73l-20 -131h115l-13 -70h-112l-21 -145h114l-14 -69h-110l-22 -144h-72z"/>
<glyph glyph-name="dollar" horiz-adv-x="529" unicode="$" d="M145 524q0 -41 19.5 -68t68.5 -45v220q-51 -10 -69.5 -41t-18.5 -66zM395 190q0 25 -7 42.5t-19.5 30.5t-29.5 21.5t-36 14.5v-220q41 8 66.5 34t25.5 77zM393 517q-8 44 -27.5 74.5t-62.5 39.5v-240q37 -10 70 -23.5t58 -35.5t39.5 -54.5t14.5 -79.5q0 -85 -49 -133.5 t-132 -59.5v-86h-75v85q-38 3 -72 13.5t-60 32.5t-43.5 57t-23.5 88l83 17q6 -32 14 -55.5t21.5 -40.5t34 -26.5t50.5 -12.5v241q-34 9 -66 22t-57 35t-40 55t-15 82q0 43 13.5 77t37 58t55.5 38.5t69 19.5v87h76v-84q72 -7 116 -48.5t55 -129.5z"/>
<glyph glyph-name="percent" horiz-adv-x="801" unicode="%" d="M124 -16l439 740h81l-438 -740h-82zM592 54q49 0 66.5 32t17.5 87q0 25 -3.5 45.5t-13 35.5t-25.5 23.5t-40 8.5q-25 0 -41.5 -9.5t-26.5 -26t-14 -37.5t-4 -43q0 -26 4 -47.5t13.5 -36.5t25.5 -23.5t41 -8.5zM589 -12q-45 0 -75.5 14.5t-49.5 38.5t-27 56t-8 67 q0 41 10.5 75.5t31.5 59t52.5 38.5t73.5 14q84 0 121 -47.5t37 -126.5q0 -84 -42 -136.5t-124 -52.5zM191 440q49 0 66.5 32t17.5 87q0 25 -3.5 45.5t-13 35.5t-25.5 23.5t-40 8.5q-25 0 -41.5 -9.5t-26.5 -26t-14 -37.5t-4 -43q0 -26 4 -47.5t13.5 -36.5t25.5 -23.5 t41 -8.5zM188 374q-45 0 -75.5 14.5t-49.5 38.5t-27 56t-8 67q0 41 10.5 75.5t31.5 59t52.5 38.5t73.5 14q84 0 121 -47.5t37 -126.5q0 -84 -42 -136.5t-124 -52.5z"/>
<glyph glyph-name="ampersand" horiz-adv-x="699" unicode="&amp;" d="M241 540q0 -55 30 -116l5 2q6 2 12 5t12 5l6 2q53 23 76.5 52t23.5 67q0 29 -19 49.5t-57 20.5t-63.5 -22t-25.5 -65zM295 61q68 0 115 30q-33 32 -62.5 66.5t-52.5 66.5q-21 28 -39 53t-34 51q-33 -20 -54 -50.5t-21 -82.5q0 -26 9 -50t27 -43t46 -30t66 -11zM486 561 q0 -22 -6.5 -45.5t-23.5 -46.5t-46 -45t-74 -41l-36 -16q33 -54 84 -117q47 -59 85 -100q26 37 37.5 86.5t13.5 106.5h81q-1 -65 -17.5 -128.5t-56.5 -114.5q22 -17 44 -26.5t45 -9.5t46 10l16 -68q-16 -9 -35.5 -13t-36.5 -4q-42 0 -74.5 14.5t-64.5 38.5 q-32 -25 -78 -39.5t-107 -14.5q-51 0 -93 15t-71.5 41t-45.5 62.5t-16 79.5q0 73 34.5 119.5t100.5 80.5q-20 36 -29.5 71t-9.5 73q0 36 13.5 66.5t38 53t58 35.5t73.5 13q25 0 52 -6t49 -21t36 -41.5t14 -68.5z"/>
<glyph glyph-name="quotesingle" horiz-adv-x="206" unicode="&apos;" d="M58 465v259h90v-259h-90z"/>
<glyph glyph-name="parenleft" horiz-adv-x="317" unicode="(" d="M198 -152q-27 41 -53 88t-46 101t-32.5 114.5t-12.5 128.5q0 67 13 129t34.5 118t49 105.5t56.5 91.5h94q-70 -109 -111 -216t-41 -226q0 -68 11 -126t30.5 -111t45 -101.5t55.5 -96.5z"/>
<glyph glyph-name="parenright" horiz-adv-x="317" unicode=")" d="M108 -152l-93 -1q30 49 56 97q25 48 45 101q19 53 30 111t11 126q0 119 -41 226t-111 216h94q29 -42 57 -92q27 -50 49 -105q21 -56 34 -118t13 -129q0 -68 -12 -128t-33 -115q-20 -54 -46 -101t-53 -88z"/>
<glyph glyph-name="asterisk" horiz-adv-x="471" unicode="*" d="M273 617l128 32l13 -43l-119 -60l79 -120l-34 -27l-106 100l-105 -103l-34 29l78 121l-121 59l14 43l130 -31l19 138h42z"/>
<glyph glyph-name="plus" horiz-adv-x="570" unicode="+" d="M243 128v152h-147v83h147v150h83v-150h147v-83h-147v-152h-83z"/>
<glyph glyph-name="comma" horiz-adv-x="218" unicode="," d="M70 106h101l-84 -235l-73 9z"/>
<glyph glyph-name="hyphen" horiz-adv-x="316" unicode="-" d="M20 251v87h271v-87h-271z"/>
<glyph glyph-name="period" horiz-adv-x="226" unicode="." d="M181 55q0 -67 -68 -67t-68 67t68 67t68 -67z"/>
<glyph glyph-name="slash" horiz-adv-x="379" unicode="/" d="M7 -92l281 847h82l-280 -847h-83z"/>
<glyph glyph-name="zero" horiz-adv-x="562" unicode="0" d="M282 63q46 0 75 21.5t45 61.5t22 96t6 124q0 67 -5 121t-20.5 92.5t-44 59.5t-74.5 21q-47 0 -76.5 -21t-47 -60t-24 -95t-6.5 -126q0 -65 5.5 -119t21.5 -93t45.5 -61t77.5 -22zM278 -12q-74 0 -120 28t-72 78t-35.5 118t-9.5 149q0 80 11.5 149t40 119.5t76 79 t120.5 28.5q74 0 119.5 -28.5t70.5 -78t33.5 -115.5t8.5 -142q0 -85 -10.5 -155.5t-37.5 -121.5t-74 -79.5t-121 -28.5z"/>
<glyph glyph-name="one" horiz-adv-x="413" unicode="1" d="M202 0v599q-13 -8 -34 -14t-44 -10t-44 -6.5t-33 -2.5l-7 74q70 6 117.5 25t82.5 59h52v-724h-90z"/>
<glyph glyph-name="two" horiz-adv-x="523" unicode="2" d="M267 737q90 0 144 -44t54 -136q0 -41 -10.5 -77t-30.5 -71.5t-49.5 -73t-66.5 -81.5l-147 -172v-2h314v-80h-420v76l170 205q38 45 65.5 80.5t45.5 66.5t27 60.5t9 64.5q0 58 -30.5 82.5t-83.5 24.5q-35 0 -58 -9t-37 -25t-21.5 -38.5t-11.5 -48.5l-83 15q7 49 26 84 t48 57t66 32t80 10z"/>
<glyph glyph-name="three" horiz-adv-x="541" unicode="3" d="M124 174q5 -23 12 -43t20.5 -34.5t36 -22.5t58.5 -8q27 0 52 8t44 24.5t30 43t11 64.5q0 39 -11 65t-31 42t-48 23t-62 7h-65v77h46q76 0 118.5 36.5t42.5 96.5q0 22 -5.5 42t-19 34.5t-35.5 23t-54 8.5t-53.5 -7t-35.5 -20t-23 -32t-16 -44l-81 18q9 45 29.5 76t49 50 t64.5 27t76 8q96 0 145.5 -46.5t49.5 -124.5q0 -41 -13 -71t-33.5 -51t-45.5 -34t-49 -19v-3q71 -13 112.5 -56.5t41.5 -127.5q0 -49 -16.5 -88.5t-47 -68t-73.5 -44t-96 -15.5q-42 0 -78.5 9.5t-64 29.5t-45.5 52t-23 77z"/>
<glyph glyph-name="four" horiz-adv-x="553" unicode="4" d="M357 256v378l-245 -378h245zM356 0v178h-334v68l309 478h114v-468h85v-78h-86v-178h-88z"/>
<glyph glyph-name="five" horiz-adv-x="541" unicode="5" d="M99 724h346v-80h-275l-21 -233q25 20 59.5 34.5t82.5 14.5q37 0 72.5 -11t63 -36.5t44.5 -68t17 -105.5q0 -56 -16.5 -102t-48 -79t-76 -51.5t-101.5 -18.5q-39 0 -75 9.5t-65 29.5t-49 52.5t-27 77.5l85 21q4 -21 12 -41t23 -35.5t38.5 -25t58.5 -9.5q27 0 53 9t47 29.5 t33.5 52.5t12.5 78q0 40 -10 67.5t-27.5 45t-41.5 25.5t-52 8q-38 0 -70.5 -15t-58.5 -40l-62 28z"/>
<glyph glyph-name="six" horiz-adv-x="565" unicode="6" d="M154 286q2 -41 8.5 -81t21.5 -72t42 -51.5t70 -19.5q57 0 94 40.5t37 123.5q0 138 -118 138q-22 0 -44 -6.5t-42 -17.5t-37.5 -25t-31.5 -29zM428 561q-7 30 -17 50t-24 31t-31 15.5t-37 4.5q-50 0 -82.5 -28t-52 -71.5t-27 -96.5t-8.5 -102q13 14 31.5 28t42 25t50 17.5 t54.5 6.5q95 0 143.5 -57t48.5 -151q0 -59 -16.5 -105t-46 -77t-71 -47t-92.5 -16q-71 0 -116 28.5t-71 76.5t-35.5 111.5t-9.5 134.5q0 40 4.5 85.5t16 89.5t31 84.5t49 71.5t70.5 49t96 18q35 0 65 -8t53 -26t39.5 -47.5t24.5 -72.5z"/>
<glyph glyph-name="seven" horiz-adv-x="512" unicode="7" d="M99 0l296 644h-360v80h456v-70l-295 -654h-97z"/>
<glyph glyph-name="eight" horiz-adv-x="540" unicode="8" d="M280 416q53 27 87 64.5t34 85.5q0 47 -29 71.5t-93 24.5q-59 0 -92.5 -26.5t-33.5 -75.5q0 -28 11 -49.5t29 -38.5t40.5 -30.5t46.5 -25.5zM258 333q-27 -13 -50.5 -27t-41 -32t-27.5 -41t-10 -53q0 -25 7.5 -46t24 -36.5t43.5 -24t65 -8.5q39 0 66 10t44 27t24.5 39 t7.5 46q0 31 -14 54.5t-36 40.5t-49.5 29t-53.5 22zM355 383q32 -14 59.5 -30.5t48 -39t32 -53.5t11.5 -73t-16.5 -78.5t-48 -63.5t-76 -42t-99.5 -15q-60 0 -103.5 14.5t-71.5 40t-41.5 59t-13.5 72.5q0 37 11.5 67t31.5 54t48 42.5t61 33.5q-27 12 -50 29t-40.5 38.5 t-27.5 48.5t-10 60q0 48 17 83.5t47 59t71 35.5t89 12q99 0 154 -44t55 -122q0 -66 -37.5 -110.5t-100.5 -77.5z"/>
<glyph glyph-name="nine" horiz-adv-x="565" unicode="9" d="M414 432q-2 41 -7.5 82t-20.5 74t-41.5 53.5t-71.5 20.5q-57 0 -94.5 -40t-37.5 -126q0 -70 29 -106.5t89 -36.5q45 0 86 23t69 56zM129 170q14 -60 45.5 -83.5t80.5 -23.5q46 0 77.5 23.5t50 63.5t27 92.5t9.5 110.5q-13 -14 -31.5 -28t-41.5 -24.5t-50 -17t-55 -6.5 q-96 0 -143.5 58t-47.5 158q0 59 17 104.5t47.5 76.5t72.5 47t93 16q70 0 114.5 -28.5t69.5 -76.5t34 -111.5t9 -134.5q0 -72 -10 -143t-37.5 -127.5t-78 -92t-131.5 -35.5q-38 0 -71.5 8.5t-60 27t-45 48.5t-26.5 74z"/>
<glyph glyph-name="colon" horiz-adv-x="226" unicode=":" d="M181 55q0 -67 -68 -67t-68 67t68 67t68 -67zM181 434q0 -67 -68 -67t-68 67t68 67t68 -67z"/>
<glyph glyph-name="semicolon" horiz-adv-x="218" unicode=";" d="M62 106h101l-84 -235l-73 9zM193 434q0 -67 -68 -67t-68 67t68 67t68 -67z"/>
<glyph glyph-name="less" horiz-adv-x="570" unicode="&lt;" d="M83 238v98l379 153v-84l-296 -115l296 -111v-86z"/>
<glyph glyph-name="equal" horiz-adv-x="570" unicode="=" d="M98 321v85h374v-85h-374zM98 157v85h374v-85h-374z"/>
<glyph glyph-name="greater" horiz-adv-x="570" unicode="&gt;" d="M91 98v81l296 111l-296 113v86l379 -153v-94z"/>
<glyph glyph-name="question" horiz-adv-x="508" unicode="?" d="M265 52q0 -64 -67 -64t-67 64q0 65 67 65t67 -65zM156 187v179q40 3 78 12t67.5 27.5t47 48t17.5 74.5q0 36 -9.5 59.5t-26 37t-39 19t-48.5 5.5t-47.5 -5.5t-39 -18.5t-30.5 -35t-20 -55l-85 15q6 35 21.5 67t42.5 56.5t67.5 39t96.5 14.5q42 0 80 -9.5t67.5 -32.5 t46.5 -60.5t17 -93.5q0 -52 -16.5 -90.5t-45.5 -65.5t-68.5 -44.5t-85.5 -26.5v-117h-88z"/>
<glyph glyph-name="at" horiz-adv-x="842" unicode="@" d="M501 305q-15 13 -33.5 21.5t-44.5 8.5q-44 0 -74 -36t-30 -115q0 -28 4 -51.5t14 -41t26 -27t39 -9.5q32 0 57 17t42 45v188zM673 -103q-42 -37 -106 -55t-139 -18q-80 0 -149.5 22.5t-120.5 68t-80.5 114t-29.5 160.5q0 86 28.5 157t80 121.5t124 78t161.5 27.5 q76 0 140.5 -20.5t112 -61.5t74.5 -101.5t27 -139.5q0 -66 -13 -114t-36 -79t-55 -46t-71 -15q-42 0 -71 15.5t-41 39.5q-20 -26 -50.5 -42.5t-69.5 -16.5q-41 0 -69 14.5t-45 39.5t-25 59t-8 73q0 47 12 87t34 69.5t54 46t71 16.5q29 0 51.5 -9.5t40.5 -26.5l5 30h62v-254 q0 -17 1.5 -32t6.5 -26t16 -17t30 -6q42 0 68 48t26 133q0 137 -72.5 202.5t-212.5 65.5q-74 0 -131.5 -24.5t-97 -67t-60 -99.5t-20.5 -122q0 -78 23.5 -135t65 -93.5t98.5 -54t124 -17.5q63 0 114 16.5t86 44.5z"/>
<glyph glyph-name="A" horiz-adv-x="687" unicode="A" d="M339 640h-1l-116 -346h233zM400 724l252 -724h-101l-73 215h-278l-71 -215h-93l244 724h120z"/>
<glyph glyph-name="B" horiz-adv-x="628" unicode="B" d="M292 407q30 0 61.5 5t57.5 19t42.5 39t16.5 64q0 34 -9.5 56t-28.5 35t-47.5 18t-65.5 5h-132v-241h105zM311 77q39 0 73 4t58.5 17.5t38.5 38t14 65.5q0 36 -12.5 60.5t-35 40t-52.5 22t-64 6.5h-144v-254h124zM96 0v724h249q64 0 106 -13.5t67 -37.5t35 -56.5t10 -69.5 q0 -38 -11.5 -67t-31 -49.5t-45.5 -33.5t-56 -20v-2q89 -11 131 -57.5t42 -121.5q0 -56 -20 -93.5t-55.5 -60t-84.5 -32.5t-108 -10h-228z"/>
<glyph glyph-name="C" horiz-adv-x="692" unicode="C" d="M368 -12q-85 0 -145.5 26t-98.5 74t-56 115t-18 148q0 91 23.5 163t67.5 121.5t106.5 75.5t139.5 26q57 0 104.5 -14t83 -44t56.5 -76t25 -109l-86 -9q-11 85 -53 128.5t-131 43.5q-113 0 -177 -74t-64 -224q0 -78 15.5 -133.5t44.5 -90.5t72 -51.5t97 -16.5 q86 0 131.5 37.5t62.5 114.5l83 -17q-9 -60 -36.5 -101t-66.5 -66t-85.5 -36t-94.5 -11z"/>
<glyph glyph-name="D" horiz-adv-x="728" unicode="D" d="M303 78q142 0 211 74.5t69 207.5q0 82 -18.5 137t-53 88t-85.5 47t-115 14h-123v-568h115zM96 0v724h223q94 0 162 -24.5t111.5 -70t64.5 -110.5t21 -146q0 -83 -22.5 -152t-68.5 -118t-117 -76t-168 -27h-206z"/>
<glyph glyph-name="E" horiz-adv-x="575" unicode="E" d="M188 80h344v-80h-436v724h423v-80h-331v-239h311v-80h-311v-245z"/>
<glyph glyph-name="F" horiz-adv-x="547" unicode="F" d="M188 0h-92v724h423v-80h-331v-251h306v-80h-306v-313z"/>
<glyph glyph-name="G" horiz-adv-x="736" unicode="G" d="M577 98q-10 -23 -31 -43t-50 -35t-64 -23.5t-73 -8.5q-82 0 -140.5 27t-96 75t-55 115t-17.5 148q0 92 23.5 163.5t67 120.5t106.5 74.5t142 25.5q57 0 104 -13t82 -42t56 -75t26 -111l-88 -9q-9 88 -53.5 129t-129.5 41q-115 0 -178 -77t-63 -219q0 -84 17.5 -140.5 t48.5 -91t73.5 -49t92.5 -14.5q49 0 85 15t60 39.5t36 55.5t12 63v62h-192v75h279v-376h-67z"/>
<glyph glyph-name="H" horiz-adv-x="728" unicode="H" d="M632 0h-92v328h-352v-328h-92v724h92v-313h352v313h92v-724z"/>
<glyph glyph-name="I" horiz-adv-x="284" unicode="I" d="M188 0h-92v724h92v-724z"/>
<glyph glyph-name="J" horiz-adv-x="499" unicode="J" d="M320 724h92v-541q0 -54 -14 -91t-39.5 -60.5t-62 -33.5t-82.5 -10q-89 0 -135.5 39.5t-52.5 129.5l88 15q3 -24 8 -44t16 -33.5t29.5 -21t48.5 -7.5q22 0 41 4.5t33 16.5t22 34t8 58v545z"/>
<glyph glyph-name="K" horiz-adv-x="644" unicode="K" d="M188 371l325 353h103l-285 -310l299 -414h-108l-254 342l-80 -85v-257h-92v724h92v-353z"/>
<glyph glyph-name="L" horiz-adv-x="552" unicode="L" d="M188 81h326v-81h-418v724h92v-643z"/>
<glyph glyph-name="M" horiz-adv-x="897" unicode="M" d="M801 0h-87v625h-1l-219 -625h-96l-215 626h-2v-626h-85v724h140l213 -616h1l213 616h138v-724z"/>
<glyph glyph-name="N" horiz-adv-x="745" unicode="N" d="M538 0l-356 607v-607h-86v724h121l347 -601v601h85v-724h-111z"/>
<glyph glyph-name="O" horiz-adv-x="759" unicode="O" d="M380 69q51 0 94.5 17.5t74.5 54.5t48.5 93t17.5 133q0 72 -16 126t-46 90t-72 54.5t-94 18.5q-53 0 -97 -18.5t-76 -55.5t-50 -92t-18 -127q0 -74 17 -129t47.5 -91.5t73.5 -55t96 -18.5zM375 -12q-84 0 -145.5 28t-101 77.5t-59 118.5t-19.5 150t22 149.5t65 118.5 t106.5 78.5t146.5 28.5q82 0 142 -28t99.5 -77t58.5 -115t19 -141q0 -88 -21 -159.5t-63 -122.5t-104.5 -78.5t-145.5 -27.5z"/>
<glyph glyph-name="P" horiz-adv-x="616" unicode="P" d="M290 342q39 0 73.5 6t60 23.5t40 48.5t14.5 82q0 78 -42.5 111t-130.5 33h-118v-304h103zM187 0h-91v724h236q69 0 115.5 -17.5t74.5 -47.5t39.5 -69.5t11.5 -82.5q0 -65 -18.5 -111t-54 -75.5t-87 -43.5t-116.5 -14h-110v-263z"/>
<glyph glyph-name="Q" horiz-adv-x="759" unicode="Q" d="M380 67q70 0 122 31l-132 139l57 54l131 -144q28 41 43 95t15 125q0 72 -16.5 126t-46.5 90t-72 54.5t-94 18.5q-53 0 -97 -18.5t-76 -55.5t-50 -92t-18 -127q0 -74 17 -129t48 -92.5t74 -56t95 -18.5zM375 -12q-83 0 -144.5 28t-101.5 77.5t-59.5 118.5t-19.5 150 t22 149.5t65 118.5t106.5 78.5t146.5 28.5q82 0 142 -28t99.5 -77t58.5 -115t19 -141q0 -94 -23 -165.5t-71 -123.5l89 -96l-54 -51l-92 99q-37 -27 -82.5 -39t-100.5 -12z"/>
<glyph glyph-name="R" horiz-adv-x="625" unicode="R" d="M322 378q36 0 65.5 6.5t50.5 23t33 44.5t12 70q0 37 -12 61t-34 38t-53.5 19.5t-70.5 5.5h-126v-268h135zM616 0h-100l-166 301h-163v-301h-91v724h248q67 0 112 -17t72 -44.5t38.5 -63t11.5 -72.5q0 -82 -38.5 -131t-101.5 -71z"/>
<glyph glyph-name="S" horiz-adv-x="583" unicode="S" d="M299 659q-42 0 -70.5 -8.5t-46.5 -24t-26 -36t-8 -44.5q0 -33 14.5 -55t38.5 -37.5t55 -26.5t65 -21q40 -12 79.5 -25.5t71 -36t51 -57t19.5 -86.5q0 -57 -21 -97.5t-56.5 -66t-82 -37.5t-96.5 -12q-113 0 -181.5 48.5t-82.5 160.5l88 13q6 -29 17 -55t31 -46t51 -31.5 t78 -11.5q29 0 58 5.5t52 19.5t37 37.5t14 59.5q0 34 -14 56.5t-37.5 37.5t-54.5 25.5t-64 19.5q-40 11 -80 24.5t-72 36t-52 58t-20 91.5q0 46 18.5 83.5t51 63t77 39.5t97.5 14q48 0 89 -10t72 -34t51 -63t26 -97l-86 -10q-4 26 -12.5 50.5t-25 43.5t-44 30.5t-69.5 11.5z "/>
<glyph glyph-name="T" horiz-adv-x="554" unicode="T" d="M232 0v644h-219v80h528v-80h-217v-644h-92z"/>
<glyph glyph-name="U" horiz-adv-x="714" unicode="U" d="M358 68q87 0 130.5 40.5t43.5 142.5v473h91v-481q0 -131 -70 -193t-199 -62q-140 0 -202 65t-62 192v479h92v-470q0 -101 44.5 -143.5t131.5 -42.5z"/>
<glyph glyph-name="V" horiz-adv-x="621" unicode="V" d="M254 0l-244 724h103l205 -635h1l198 635h94l-232 -724h-125z"/>
<glyph glyph-name="W" horiz-adv-x="888" unicode="W" d="M602 0l-154 595h-1l-158 -595h-114l-158 724h96l124 -616h1l160 616h102l160 -624h1l119 624h92l-153 -724h-117z"/>
<glyph glyph-name="X" horiz-adv-x="625" unicode="X" d="M363 371l248 -371h-106l-199 297l-192 -297h-100l238 367l-226 357h104l179 -286l185 286h97z"/>
<glyph glyph-name="Y" horiz-adv-x="566" unicode="Y" d="M334 0h-92v280l-247 444h104l190 -353h2l185 353h95l-237 -442v-282z"/>
<glyph glyph-name="Z" horiz-adv-x="588" unicode="Z" d="M146 80h401v-80h-513v68l387 576h-376v80h486v-70z"/>
<glyph glyph-name="bracketleft" horiz-adv-x="272" unicode="[" d="M64 -143v867h169v-64h-83v-739h83v-64h-169z"/>
<glyph glyph-name="backslash" horiz-adv-x="380" unicode="\" d="M290 -92l-280 847h82l281 -847h-83z"/>
<glyph glyph-name="bracketright" horiz-adv-x="272" unicode="]" d="M208 -143h-169v64h83v739h-83v64h169v-867z"/>
<glyph glyph-name="asciicircum" horiz-adv-x="571" unicode="^" d="M441 299l-158 282l-155 -282h-87l197 365h93l200 -365h-90z"/>
<glyph glyph-name="underscore" d="M0 -181v71h500v-71h-500z" unicode="_"/>
<glyph glyph-name="grave" d="M131 747h109l97 -163l-66 -12z" unicode="`"/>
<glyph glyph-name="a" horiz-adv-x="545" unicode="a" d="M368 233q-21 3 -52 3q-27 0 -56 -2.5t-53.5 -12t-40.5 -28.5t-16 -52q0 -17 3.5 -31.5t13 -26t26.5 -18t43 -6.5q40 0 75.5 17.5t56.5 40.5v116zM457 97q0 -21 5.5 -30.5t25.5 -9.5q11 0 31 6l4 -57q-32 -16 -71 -16q-38 0 -56.5 18t-22.5 43q-30 -30 -70.5 -46.5 t-94.5 -16.5q-49 0 -78.5 14.5t-46 35.5t-22 45t-5.5 43q0 51 21 85t57.5 54t85 28t102.5 8q12 0 23 -0.5t22 -1.5v50q0 24 -4 43.5t-15.5 33t-31.5 21t-51 7.5q-53 0 -77 -21t-32 -64l-80 15q12 72 59.5 106.5t137.5 34.5q95 0 139.5 -40.5t44.5 -136.5v-251z"/>
<glyph glyph-name="b" horiz-adv-x="581" unicode="b" d="M172 118q9 -6 22 -15.5t30.5 -17.5t37.5 -14t42 -6q36 0 61.5 14.5t41.5 41t23.5 64.5t7.5 85q0 92 -29 135t-93 43q-21 0 -42 -6t-40 -15t-35 -20.5t-27 -22.5v-266zM81 0v755h90v-298q34 30 75.5 49t98.5 19q40 0 74 -13.5t59 -43.5t39.5 -79t14.5 -120 q0 -75 -17 -128.5t-46.5 -87t-69 -49.5t-84.5 -16q-46 0 -83.5 17.5t-65.5 39.5h-1l-5 -45h-79z"/>
<glyph glyph-name="c" horiz-adv-x="538" unicode="c" d="M285 -12q-64 0 -108.5 19.5t-73 54.5t-41.5 83.5t-13 106.5q0 135 65 204t181 69q86 0 139.5 -45t58.5 -134l-87 -12q-6 57 -33.5 86t-81.5 29q-28 0 -54.5 -8.5t-47 -29.5t-33 -57t-12.5 -91q0 -57 11 -95.5t30.5 -61.5t45.5 -32.5t57 -9.5q53 0 85.5 26.5t42.5 83.5 l80 -17q-6 -45 -25.5 -77t-48 -52.5t-63.5 -30t-74 -9.5z"/>
<glyph glyph-name="d" horiz-adv-x="577" unicode="d" d="M410 402q-18 14 -52 29.5t-79 15.5q-37 0 -63 -14t-42 -40t-23 -62.5t-7 -81.5q0 -94 30.5 -139.5t98.5 -45.5q40 0 76.5 19.5t60.5 43.5v275zM500 0h-76l-7 55l-1 1q-33 -30 -73.5 -49t-96.5 -19q-44 0 -80 14.5t-62 46t-40 81t-14 119.5q0 76 18 128.5t48 85.5t69 47.5 t82 14.5q45 0 81 -13t63 -35v278h89v-755z"/>
<glyph glyph-name="e" horiz-adv-x="546" unicode="e" d="M401 308q0 69 -27.5 106t-88.5 37q-26 0 -50 -8t-43 -25.5t-31.5 -44.5t-14.5 -65h255zM286 -12q-68 0 -113.5 22t-73 59t-39 85.5t-11.5 101.5q0 70 19 121t52 84t77 48.5t94 15.5q54 0 92.5 -17t63.5 -46.5t36.5 -70t11.5 -88.5q0 -15 -1 -32t-3 -35h-346 q1 -49 12.5 -82t30.5 -53t44.5 -28.5t56.5 -8.5q55 0 82.5 23.5t38.5 67.5l80 -18q-16 -75 -71 -112t-133 -37z"/>
<glyph glyph-name="f" horiz-adv-x="327" unicode="f" d="M335 678q-15 5 -34.5 9t-37.5 4q-35 0 -57.5 -18.5t-22.5 -72.5v-86h143v-73h-143v-441h-91v441h-76v73h76v83q0 85 39.5 126.5t113.5 41.5q32 0 56.5 -5.5t37.5 -11.5z"/>
<glyph glyph-name="g" horiz-adv-x="575" unicode="g" d="M410 397q-9 7 -22.5 16t-30.5 16.5t-36.5 12.5t-41.5 5q-38 0 -63.5 -14t-41.5 -40t-23 -62t-7 -81q0 -91 30 -134.5t99 -43.5q40 0 76.5 19.5t60.5 43.5v262zM500 16q0 -51 -11.5 -95t-39.5 -76t-73.5 -50t-112.5 -18q-88 0 -141.5 37t-72.5 109l83 32q11 -45 43 -73.5 t93 -28.5q31 0 57.5 8t46 26t31 48t11.5 74v50q-34 -27 -73 -45t-90 -18q-46 0 -83 14.5t-63.5 45t-40.5 78.5t-14 116q0 76 18 128.5t48 85t69 47t82 14.5q45 0 82 -16t64 -40l8 45h79v-498z"/>
<glyph glyph-name="h" horiz-adv-x="582" unicode="h" d="M509 0h-91v335q0 54 -21.5 82t-74.5 28q-22 0 -44.5 -6.5t-42.5 -15.5t-36.5 -20t-26.5 -20v-383h-91v755h90v-299q38 29 82.5 49t98.5 20q82 0 119.5 -44t37.5 -132v-349z"/>
<glyph glyph-name="i" horiz-adv-x="249" unicode="i" d="M193 679q0 -32 -17 -49t-48 -17t-47.5 17t-16.5 49q0 65 64 65q31 0 48 -16.5t17 -48.5zM172 0h-91v514h91v-514z"/>
<glyph glyph-name="j" horiz-adv-x="247" unicode="j" d="M193 687q0 -32 -16.5 -49t-47.5 -17t-48 17t-17 49q0 31 17 48t48 17t47.5 -17t16.5 -48zM26 -223q-25 0 -54 6t-43 14l10 74q15 -6 35.5 -10.5t39.5 -4.5q31 0 49 17.5t18 63.5v577h91v-581q0 -82 -38 -119t-108 -37z"/>
<glyph glyph-name="k" horiz-adv-x="531" unicode="k" d="M172 288l221 226h103l-178 -185l191 -329h-100l-158 265l-79 -78v-187h-91v755h91v-467z"/>
<glyph glyph-name="l" horiz-adv-x="249" unicode="l" d="M172 0h-91v755h91v-755z"/>
<glyph glyph-name="m" horiz-adv-x="866" unicode="m" d="M172 0h-91v514h78l5 -58q38 29 80 49t95 20q51 0 82.5 -17.5t46.5 -53.5q38 30 81.5 50.5t96.5 20.5q81 0 113.5 -44t32.5 -131v-350h-91v337q0 52 -15.5 80t-64.5 28q-18 0 -38 -5.5t-38.5 -13.5t-34.5 -18.5t-27 -19.5q1 -9 1.5 -18.5t0.5 -19.5v-350h-91v337 q0 52 -15.5 80t-64.5 28q-20 0 -40.5 -6t-40 -15t-35.5 -20t-26 -20v-384z"/>
<glyph glyph-name="n" horiz-adv-x="582" unicode="n" d="M509 0h-91v335q0 54 -21.5 82t-74.5 28q-22 0 -44.5 -6.5t-42.5 -15.5t-36.5 -20t-26.5 -20v-383h-91v514h80l5 -61q38 30 84.5 51t100.5 21q83 0 120.5 -44t37.5 -132v-349z"/>
<glyph glyph-name="o" horiz-adv-x="578" unicode="o" d="M291 61q33 0 59.5 10.5t45 34.5t28.5 62t10 93q0 53 -9 89.5t-27 58.5t-44 31.5t-59 9.5q-34 0 -62 -10.5t-48 -33.5t-31 -59.5t-11 -87.5q0 -103 36.5 -150.5t111.5 -47.5zM286 -12q-67 0 -112.5 20.5t-73 56t-39.5 84.5t-12 106q0 62 16 112t47.5 85t78 54t108.5 19 q61 0 104.5 -19t71.5 -53t41 -81.5t13 -104.5q0 -63 -13.5 -114.5t-43 -88t-75.5 -56.5t-111 -20z"/>
<glyph glyph-name="p" horiz-adv-x="581" unicode="p" d="M172 116q8 -6 21.5 -15t30.5 -17t37.5 -13.5t42.5 -5.5q37 0 62.5 14.5t41.5 41.5t23 65t7 84q0 97 -30 138t-92 41q-21 0 -42 -6t-40 -15.5t-35 -21t-27 -22.5v-268zM81 514h79l5 -59q35 32 79 51t99 19q40 0 74.5 -13.5t60 -43.5t39.5 -79t14 -120q0 -75 -17.5 -128.5 t-46.5 -87.5t-68 -49.5t-82 -15.5q-47 0 -83.5 14.5t-64.5 35.5v-250h-88v726z"/>
<glyph glyph-name="q" horiz-adv-x="575" unicode="q" d="M410 397q-9 7 -22.5 16t-30.5 16.5t-36.5 12.5t-41.5 5q-37 0 -63 -14t-42 -40t-23 -62t-7 -81q0 -94 30 -140t99 -46q40 0 76.5 19.5t60.5 43.5v270zM500 -212h-86v263q-34 -27 -73.5 -45t-94.5 -18q-44 0 -80 14.5t-62 46t-40 81t-14 120.5q0 76 18 128.5t48 85t69 47 t82 14.5q45 0 82 -16t64 -40l8 45h79v-726z"/>
<glyph glyph-name="r" horiz-adv-x="364" unicode="r" d="M354 430q-13 2 -27 2q-11 0 -29.5 -2t-42.5 -10t-45.5 -19.5t-37.5 -26.5v-374h-91v514h76l7 -74q34 46 75.5 65.5t95.5 19.5q5 0 9.5 -0.5t9.5 -0.5v-94z"/>
<glyph glyph-name="s" horiz-adv-x="487" unicode="s" d="M248 525q46 0 78.5 -10.5t55 -30t35.5 -47t19 -61.5l-82 -18q-5 22 -11.5 39.5t-18.5 30t-30.5 19t-46.5 6.5q-56 0 -77.5 -21.5t-21.5 -50.5q0 -20 7.5 -33.5t22.5 -22.5t36 -15t48 -12q35 -8 68 -16.5t58.5 -25t41 -43t15.5 -69.5q0 -74 -53.5 -115t-147.5 -41 q-89 0 -141 35.5t-64 113.5l81 22q5 -21 13 -39t22 -31.5t36.5 -21t56.5 -7.5q46 0 76.5 16.5t30.5 57.5q0 21 -7.5 34.5t-22 22t-35.5 14t-47 10.5q-32 6 -64.5 14.5t-59.5 24.5t-44 43.5t-17 72.5q0 39 15 68t41 48.5t60.5 29t73.5 9.5z"/>
<glyph glyph-name="t" horiz-adv-x="379" unicode="t" d="M368 22q-19 -13 -54.5 -23.5t-71.5 -10.5q-72 0 -108.5 34.5t-36.5 112.5v306h-79v73h79v149l91 14v-163h142v-73h-142v-294q0 -20 3 -36t11 -26.5t22.5 -16t37.5 -5.5t48 8t42 17z"/>
<glyph glyph-name="u" horiz-adv-x="581" unicode="u" d="M79 514h91v-335q0 -54 18 -82t75 -28q22 0 44.5 6.5t42 16t36 20.5t26.5 20v382h91v-514h-79l-6 59q-38 -31 -83 -50t-99 -19q-82 0 -119.5 44t-37.5 131v349z"/>
<glyph glyph-name="v" horiz-adv-x="505" unicode="v" d="M202 0l-196 514h99l151 -423h1l149 423h93l-193 -514h-104z"/>
<glyph glyph-name="w" horiz-adv-x="759" unicode="w" d="M167 0l-161 514h92l125 -418l113 418h94l112 -416h1l122 416h88l-160 -514h-106l-106 405h-1l-105 -405h-108z"/>
<glyph glyph-name="x" horiz-adv-x="492" unicode="x" d="M294 267l182 -267h-99l-137 202l-130 -202h-93l173 265l-172 249h100l126 -187l130 187h93z"/>
<glyph glyph-name="y" horiz-adv-x="485" unicode="y" d="M8 514h101l136 -408h1l141 408h93l-222 -589q-15 -41 -32 -69t-37.5 -45.5t-45 -25.5t-54.5 -8q-29 0 -56.5 6t-42.5 13l11 71q14 -5 38 -10.5t44 -5.5q28 0 51.5 17t40.5 63l24 63z"/>
<glyph glyph-name="z" horiz-adv-x="459" unicode="z" d="M134 73h300v-73h-403v62l288 379h-284v73h387v-66z"/>
<glyph glyph-name="braceleft" horiz-adv-x="306" unicode="{" d="M275 -145h-54q-73 0 -105 30.5t-32 85.5q0 48 6.5 100t6.5 100t-20 67t-55 19h-18v67h17q76 0 76 85q0 24 -2 52.5t-4.5 57t-4.5 55t-2 47.5q0 116 136 116h55v-71h-39q-33 0 -46 -13.5t-13 -39.5q0 -22 2 -48t4.5 -53.5t4.5 -55t2 -51.5q0 -29 -6 -48.5t-16 -32 t-23.5 -20.5t-28.5 -14q15 -6 28.5 -13.5t23.5 -20.5t16 -32.5t6 -47.5q0 -50 -6.5 -99.5t-6.5 -91.5q0 -29 14 -45.5t56 -16.5h28v-68z"/>
<glyph glyph-name="bar" horiz-adv-x="280" unicode="|" d="M99 -143v898h82v-898h-82z"/>
<glyph glyph-name="braceright" horiz-adv-x="306" unicode="}" d="M31 737h54q73 0 105 -30.5t32 -85.5q0 -48 -6.5 -100t-6.5 -100t20 -67t55 -19h18v-67h-17q-76 0 -76 -85q0 -24 2 -52.5t4.5 -57t4.5 -55t2 -47.5q0 -116 -136 -116h-55v71h39q33 0 46 13.5t13 39.5q0 22 -2 48t-4.5 53.5t-4.5 55t-2 51.5q0 29 6 48.5t16 32t23.5 20.5 t28.5 14q-15 6 -28.5 13.5t-23.5 20.5t-16 32.5t-6 47.5q0 50 6.5 99.5t6.5 91.5q0 29 -14 45.5t-56 16.5h-28v68z"/>
<glyph glyph-name="asciitilde" horiz-adv-x="517" unicode="~" d="M137 420q24 0 57.5 -7t67.5 -16t64 -16t47 -7q19 0 28 9.5t9 42.5l58 -3q1 -13 1 -25q0 -44 -20 -68q-26 -30 -68 -30q-23 0 -57 7t-68.5 16t-65 16t-47.5 7t-27 -11q-9 -9 -8 -33v-10l-58 2q-2 13 -2 25q0 16 4 30q6 24 18 39.5t29.5 23.5t37.5 8z"/>
<glyph glyph-name="uni00A0" horiz-adv-x="214" unicode=" "/>
<glyph glyph-name="exclamdown" horiz-adv-x="266" unicode="¡" d="M73.0127 460.003q0 63.9961 66.9951 63.9961q66.9961 0 66.9961 -63.9961q0 -64.9961 -66.9961 -64.9961q-66.9951 0 -66.9951 64.9961zM175.006 324.012l16.999 -535.968h-101.993l15.998 535.968h68.9961z"/>
<glyph glyph-name="cent" horiz-adv-x="516" unicode="¢" d="M153 359q0 -34 4.5 -63t15.5 -52t29 -38.5t45 -22.5v338q-20 -5 -37 -16t-30 -30.5t-20 -48t-7 -67.5zM321 700v-100q65 -8 107.5 -48.5t47.5 -115.5l-83 -12q-5 46 -23 69.5t-53 29.5v-342q38 5 57 28t29 67l77 -16q-6 -36 -20.5 -63t-36 -46t-48.5 -30.5t-57 -15.5 v-105h-73v103q-47 6 -82 26.5t-58 53t-34.5 74.5t-11.5 91q0 111 50.5 173.5t135.5 76.5v102h76z"/>
<glyph glyph-name="sterling" horiz-adv-x="561" unicode="£" d="M76 75q83 75 83 159q0 42 -23 88h-104v74h77q-13 23 -29 59t-16 83q0 44 17 80.5t47 63t72 41t92 14.5q94 0 147 -42t65 -142l-82 -11q-4 29 -12 51.5t-23 38t-38.5 23.5t-58.5 8q-61 0 -99 -29t-38 -86q0 -24 5 -45.5t12.5 -40.5t15.5 -35.5t15 -30.5h226v-74h-201 q19 -42 19 -86q0 -89 -74 -161h173q29 0 49 6.5t33 20t21 34.5t13 50l80 -16q-11 -91 -57.5 -130.5t-134.5 -39.5h-326v75h54z"/>
<glyph glyph-name="currency" horiz-adv-x="570" unicode="¤" d="M285 133q32 0 56.5 11.5t41 31.5t24.5 47t8 58q0 68 -33 107t-100 39q-65 0 -97.5 -41t-32.5 -105q0 -31 7.5 -58t23.5 -47t41.5 -31.5t60.5 -11.5zM502 5l-91 89q-52 -37 -131 -37q-43 0 -76.5 10.5t-58.5 28.5q-2 -3 -16 -17l-30 -30l-29.5 -29.5l-14.5 -14.5l-56 58 l94 94q-16 27 -23.5 58.5t-7.5 65.5q0 64 33 117l-93 92l59 60l89 -88q26 20 60.5 31.5t76.5 11.5q83 0 135 -40l85 84l55 -58l-87 -88q29 -52 29 -118q0 -35 -9 -67.5t-27 -61.5l94 -92z"/>
<glyph glyph-name="yen" horiz-adv-x="530" unicode="¥" d="M315 200v-200h-91v200h-132v69h132v87h-132v68h96l-165 300h100l149 -279h1l143 279h93l-161 -300h101v-68h-134v-87h134v-69h-134z"/>
<glyph glyph-name="brokenbar" horiz-adv-x="280" unicode="¦" d="M99 412v343h82v-343h-82zM99 -143v388h82v-388h-82z"/>
<glyph glyph-name="section" horiz-adv-x="548" unicode="§" d="M134 263q0 -34 20.5 -53t52 -31.5t70 -21.5t74.5 -23q32 20 52 44.5t20 54.5q0 33 -20.5 52t-52.5 31t-71 21.5t-75 23.5q-32 -21 -51 -45t-19 -53zM47 248q0 44 25 81.5t70 66.5q-26 21 -42.5 52t-16.5 79q0 45 16.5 79t45.5 57t67.5 34.5t82.5 11.5q89 0 144.5 -45.5 t60.5 -135.5l-85 -11q-6 56 -33.5 87.5t-89.5 31.5q-60 0 -90 -27.5t-30 -70.5q0 -32 14.5 -53t38 -34.5t54 -23t62 -19t62 -20.5t54 -29t38 -45t14.5 -67q0 -43 -25 -81.5t-69 -67.5q26 -20 42.5 -51t16.5 -79q0 -45 -16.5 -79t-45.5 -57t-67.5 -34.5t-82.5 -11.5 q-90 0 -145 45t-61 136l86 11q5 -56 33.5 -87.5t90.5 -31.5q59 0 89 28t30 73q0 42 -25 65t-62.5 37t-81.5 24.5t-81.5 28.5t-62.5 48.5t-25 84.5z"/>
<glyph glyph-name="dieresis" d="M418 672q0 -29 -17 -45.5t-46 -16.5t-46 16.5t-17 45.5q0 28 17 44.5t46 16.5t46 -16.5t17 -44.5zM208 672q0 -29 -17 -45.5t-45 -16.5q-29 0 -46.5 16.5t-17.5 45.5q0 28 17.5 44.5t46.5 16.5q28 0 45 -16.5t17 -44.5z" unicode="¨"/>
<glyph glyph-name="copyright" horiz-adv-x="771" unicode="©" d="M544 254q-5 -39 -21.5 -64.5t-39 -40t-47.5 -20.5t-47 -6q-48 0 -82 15t-55.5 42t-31.5 63t-10 78t12 78t35 61.5t57 40t78 14.5q29 0 55 -7t45.5 -22t32 -39.5t14.5 -59.5l-59 -8q-4 43 -25 63.5t-65 20.5q-23 0 -43.5 -7.5t-36 -25t-24.5 -45t-9 -66.5q0 -29 6.5 -54.5 t20 -45t34.5 -30.5t50 -11q49 0 70 21.5t30 63.5zM387 42q64 0 115 19t87 55t55 87.5t19 116.5q0 67 -20.5 118.5t-57 86t-87.5 52t-111 17.5q-59 0 -110 -19t-88 -55t-58 -88t-21 -119q0 -63 19 -113t54.5 -85.5t87 -54t116.5 -18.5zM722 326q0 -76 -24.5 -138t-69 -106.5 t-106.5 -69t-137 -24.5q-83 0 -146 25t-105 68.5t-63.5 102.5t-21.5 128q0 79 26.5 141.5t72.5 106t107.5 66.5t131.5 23q78 0 140 -23t105.5 -65t66.5 -102t23 -133z"/>
<glyph glyph-name="ordfeminine" horiz-adv-x="378" unicode="ª" d="M243 430q-6 1 -12.5 1.5t-15.5 0.5q-18 0 -36 -2t-32.5 -7.5t-23.5 -16.5t-9 -30t10 -33t42 -14q23 0 44 10t33 22v69zM316 351q0 -14 4 -19.5t17 -5.5q8 0 20 3l3 -41q-10 -5 -24.5 -8t-28.5 -3q-28 0 -41.5 12.5t-16.5 27.5q-20 -19 -46.5 -30.5t-63.5 -11.5 q-32 0 -52 9.5t-31 23t-15 29.5t-4 28q0 32 13 53.5t34.5 34.5t51 18.5t62.5 7.5h23t21 -2v28q0 30 -11.5 47t-49.5 17q-32 0 -46.5 -12.5t-19.5 -39.5l-64 12q8 47 40.5 70t95.5 23q66 0 97.5 -26t31.5 -89v-156z"/>
<glyph glyph-name="guillemotleft" horiz-adv-x="435" unicode="«" d="M144 103l-87 156l89 149h82l-84 -146l82 -159h-82zM304 103l-87 156l89 149h82l-84 -146l82 -159h-82z"/>
<glyph glyph-name="logicalnot" horiz-adv-x="570" unicode="¬" d="M390 190v94h-296v83h377v-177h-81z"/>
<glyph glyph-name="uni00AD" horiz-adv-x="311" unicode="­" d="M20 251v87h271v-87h-271z"/>
<glyph glyph-name="registered" horiz-adv-x="452" unicode="®" d="M217 488q18 0 30 5.5t12 24.5q0 16 -9.5 21t-25.5 5h-20v-56h13zM316 383h-43l-44 75h-25v-75h-39v191h68q40 0 53 -16.5t13 -37.5q0 -20 -9.5 -32t-24.5 -18zM370 475q0 71 -40.5 107t-102.5 36q-30 0 -56.5 -10t-46 -28.5t-30.5 -46t-11 -61.5q0 -66 38.5 -103 t105.5 -37q66 0 104.5 38.5t38.5 104.5zM412 478q0 -42 -13.5 -76t-38.5 -58.5t-59 -38t-76 -13.5q-46 0 -80.5 13.5t-58 37.5t-35 57t-11.5 71q0 43 14.5 78t40 59t59.5 37t73 13q86 0 135.5 -49t49.5 -131z"/>
<glyph glyph-name="macron" d="M105 625v71h291v-71h-291z" unicode="¯"/>
<glyph glyph-name="degree" horiz-adv-x="340" unicode="°" d="M293 637q0 -52 -30 -82t-81 -30q-52 0 -82.5 29t-30.5 80q0 55 32.5 84.5t80.5 29.5t79.5 -28.5t31.5 -82.5zM182 578q26 0 40 16t14 43q0 28 -14 43t-40 15q-25 0 -40.5 -15.5t-15.5 -45.5q0 -26 14.5 -41t41.5 -15z"/>
<glyph glyph-name="plusminus" horiz-adv-x="570" unicode="±" d="M243 135v145h-147v83h147v150h83v-150h147v-83h-147v-145h-83zM96 0v80h377v-80h-377z"/>
<glyph glyph-name="twosuperior" horiz-adv-x="386" unicode="²" d="M196 802q66 0 100.5 -29t34.5 -85q0 -26 -7.5 -48.5t-22 -44.5t-35.5 -46t-49 -52l-70 -76v-2h191v-70h-286v68l103 114q24 27 41.5 47.5t29 38t16.5 33.5t5 34q0 29 -15.5 41.5t-43.5 12.5q-35 0 -50.5 -18.5t-20.5 -50.5l-71 12q4 32 17 55t33 37.5t45.5 21.5t54.5 7z "/>
<glyph glyph-name="threesuperior" horiz-adv-x="399" unicode="³" d="M112 466q5 -29 19 -44.5t51 -15.5q30 0 51.5 16.5t21.5 55.5q0 41 -21.5 56t-60.5 15h-43v60h29q44 0 67 21t23 54q0 24 -12.5 39t-46.5 15t-48.5 -14.5t-21.5 -42.5l-71 14q6 30 20 50.5t33.5 33t44 18t51.5 5.5q65 0 99 -28.5t34 -77.5q0 -24 -8 -42t-20.5 -31 t-28 -21.5t-30.5 -13.5v-1q45 -9 70.5 -35.5t25.5 -75.5q0 -63 -43.5 -98.5t-113.5 -35.5q-55 0 -96 25t-49 85z"/>
<glyph glyph-name="acute" d="M233 572l-66 12l97 163h109z" unicode="´"/>
<glyph glyph-name="mu" horiz-adv-x="629" unicode="µ" d="M100 514h91v-334q0 -60 17 -87t65 -27q24 0 47 7.5t43 19.5t37.5 27t30.5 29v365h91v-514h-87v62h-1q-35 -29 -77 -50.5t-96 -21.5q-23 0 -44 7t-32 18l-3 -1l11 -190h-93v690z"/>
<glyph glyph-name="paragraph" horiz-adv-x="562" unicode="¶" d="M472 -133h-78v789h-82v-789h-78v382q-99 8 -154 68t-55 161q0 67 22 114t60 76.5t88.5 42.5t106.5 13h169z"/>
<glyph glyph-name="periodcentered" horiz-adv-x="194" unicode="·" d="M163 304q0 -64 -66 -64t-66 64q0 65 66 65t66 -65z"/>
<glyph glyph-name="cedilla" d="M151 -161q9 -5 24 -10t32 -5q23 0 35.5 12.5t12.5 32.5q0 25 -17 35.5t-56 11.5l16 114l57 -8l-9 -66q31 -6 55 -25.5t24 -62.5q0 -47 -31.5 -73.5t-78.5 -26.5q-27 0 -48 6.5t-33 13.5z" unicode="¸"/>
<glyph glyph-name="onesuperior" horiz-adv-x="316" unicode="¹" d="M143 347v348q-8 -4 -21.5 -7.5t-28 -6t-28 -4t-21.5 -1.5l-4 65q43 3 75.5 15t55.5 36h55v-445h-83z"/>
<glyph glyph-name="ordmasculine" horiz-adv-x="399" unicode="º" d="M200 337q40 0 63 25t23 90q0 62 -21 86.5t-62 24.5q-42 0 -66 -25.5t-24 -87.5q0 -61 21 -87t66 -26zM197 275q-46 0 -77 13t-50 36.5t-27.5 55t-8.5 68.5q0 81 43 127.5t129 46.5q42 0 72.5 -12t49.5 -34t28 -52.5t9 -67.5q0 -83 -39.5 -132t-128.5 -49z"/>
<glyph glyph-name="guillemotright" horiz-adv-x="435" unicode="»" d="M131 408l88 -154l-88 -151h-82l84 150l-84 155h82zM291 408l88 -154l-88 -151h-82l84 150l-84 155h82z"/>
<glyph glyph-name="onequarter" horiz-adv-x="890" unicode="¼" d="M203 -12l356 736h84l-354 -736h-86zM158 280v348q-8 -4 -21.5 -7.5t-28 -6t-28 -4t-21.5 -1.5l-4 65q43 3 75.5 15t55.5 36h55v-445h-83zM703 169v204l-135 -204h135zM703 1v103h-209v57l188 285h101v-277h53v-65h-52v-103h-81z"/>
<glyph glyph-name="onehalf" horiz-adv-x="890" unicode="½" d="M190 -12l356 736h84l-354 -736h-86zM166 280v348q-8 -4 -21.5 -7.5t-28 -6t-28 -4t-21.5 -1.5l-4 65q43 3 75.5 15t55.5 36h55v-445h-83zM694 454q66 0 100.5 -29t34.5 -85q0 -26 -7.5 -48.5t-22 -44.5t-35.5 -46t-49 -52l-70 -76v-2h191v-70h-286v68l103 114 q24 27 41.5 47.5t29 38t16.5 33.5t5 34q0 29 -15.5 41.5t-43.5 12.5q-35 0 -50.5 -18.5t-20.5 -50.5l-71 12q4 32 17 55t33 37.5t45.5 21.5t54.5 7z"/>
<glyph glyph-name="threequarters" horiz-adv-x="890" unicode="¾" d="M239 -12l356 736h84l-354 -736h-86zM725 169v204l-135 -204h135zM725 1v103h-209v57l188 285h101v-277h53v-65h-52v-103h-81zM119 399q5 -29 19 -44.5t51 -15.5q30 0 51.5 16.5t21.5 55.5q0 41 -21.5 56t-60.5 15h-43v60h29q44 0 67 21t23 54q0 24 -12.5 39t-46.5 15 t-48.5 -14.5t-21.5 -42.5l-71 14q6 30 20 50.5t33.5 33t44 18t51.5 5.5q65 0 99 -28.5t34 -77.5q0 -24 -8 -42t-20.5 -31t-28 -21.5t-30.5 -13.5v-1q45 -9 70.5 -35.5t25.5 -75.5q0 -63 -43.5 -98.5t-113.5 -35.5q-55 0 -96 25t-49 85z"/>
<glyph glyph-name="questiondown" horiz-adv-x="480" unicode="¿" d="M234.017 460.003q0 63.9961 66.9951 63.9961q66.9961 0 66.9961 -63.9961q0 -64.9961 -66.9961 -64.9961q-66.9951 0 -66.9951 64.9961zM343.01 325.012v-178.989q-39.998 -3 -77.9951 -11.999q-37.998 -9 -67.4961 -27.499t-46.9971 -47.9971t-17.499 -74.4951 q0 -35.998 9.49902 -59.4961q9.5 -23.499 25.999 -36.998t38.9971 -18.999q22.499 -5.49902 48.4971 -5.49902q25.999 0 47.4971 5.49902q21.499 5.5 38.998 18.499t30.498 34.998t19.999 54.9961l84.9941 -14.999q-5.99902 -34.9971 -21.498 -66.9951t-42.498 -56.4971 q-26.998 -24.498 -67.4951 -38.998q-40.498 -14.499 -96.4941 -14.499q-41.998 0 -79.9951 9.5q-37.998 9.49902 -67.4961 32.498q-29.498 22.998 -46.4971 60.4961t-16.999 93.4941q0 51.9971 16.499 90.4951q16.499 38.4971 45.4971 65.4951q28.998 26.999 68.4961 44.498 q39.4971 17.499 85.4941 26.498v116.993h87.9951z"/>
<glyph glyph-name="Agrave" horiz-adv-x="687" unicode="À" d="M339 640h-1l-116 -346h233zM400 724l252 -724h-101l-73 215h-278l-71 -215h-93l244 724h120zM213 913h110l99 -134l-69 -12z"/>
<glyph glyph-name="Aacute" horiz-adv-x="687" unicode="Á" d="M339 640h-1l-116 -346h233zM400 724l252 -724h-101l-73 215h-278l-71 -215h-93l244 724h120zM337 767l-69 12l99 134h110z"/>
<glyph glyph-name="Acircumflex" horiz-adv-x="687" unicode="Â" d="M339 640h-1l-116 -346h233zM400 724l252 -724h-101l-73 215h-278l-71 -215h-93l244 724h120zM343 847l-84 -80l-70 9l116 129h79l114 -129l-70 -7z"/>
<glyph glyph-name="Atilde" horiz-adv-x="687" unicode="Ã" d="M339 640h-1l-116 -346h233zM400 724l252 -724h-101l-73 215h-278l-71 -215h-93l244 724h120zM267 904q24 0 44 -7t38 -15.5t35 -15.5t34 -7q19 0 28.5 9.5t9.5 41.5l55 -3q2 -15 2 -28q1 -41 -19 -63q-26 -30 -67 -30q-24 0 -44.5 7t-39 16t-36 16t-34.5 7t-27 -11 q-9 -9 -8 -33v-10l-56 3q-2 13 -2 25q0 16 4 30q6 23 17.5 38t29 22.5t36.5 7.5z"/>
<glyph glyph-name="Adieresis" horiz-adv-x="687" unicode="Ä" d="M339 640h-1l-116 -346h233zM400 724l252 -724h-101l-73 215h-278l-71 -215h-93l244 724h120zM511 841q0 -29 -17 -45t-46 -16t-46 16t-17 45t17 45.5t46 16.5t46 -16.5t17 -45.5zM301 841q0 -29 -17 -45t-45 -16q-29 0 -46.5 16t-17.5 45t17.5 45.5t46.5 16.5 q28 0 45 -16.5t17 -45.5z"/>
<glyph glyph-name="Aring" horiz-adv-x="687" unicode="Å" d="M339 756q25 0 37 14t12 39q0 47 -49 47q-21 0 -35.5 -12.5t-14.5 -37.5q0 -50 50 -50zM339 640h-1l-116 -346h233zM445 808q0 -30 -12 -52t-33 -34l252 -722h-101l-73 215h-278l-71 -215h-93l243 721q-44 25 -44 82q0 52 31 77.5t73 25.5q22 0 41 -6t33.5 -18t23 -30.5 t8.5 -43.5z"/>
<glyph glyph-name="AE" horiz-adv-x="1000" unicode="Æ" d="M512 644h-43l-135 -250h178v250zM605 80h344v-80h-437v316h-214l-172 -316h-96l394 724h512v-80h-331v-247h310v-79h-310v-238z"/>
<glyph glyph-name="Ccedilla" horiz-adv-x="692" unicode="Ç" d="M299 -161q9 -5 23.5 -10t30.5 -5q25 0 37.5 12.5t12.5 32.5q0 25 -17 35.5t-56 11.5l9 73q-77 4 -132 32t-90 75.5t-51 112t-16 142.5q0 91 23.5 163t67.5 121.5t106.5 75.5t139.5 26q57 0 104.5 -14t83 -44t56.5 -76t25 -109l-86 -9q-11 85 -53 128.5t-131 43.5 q-113 0 -177 -74t-64 -224q0 -78 15.5 -133.5t44.5 -90.5t72 -51.5t97 -16.5q86 0 131.5 37.5t62.5 114.5l83 -17q-9 -55 -33 -94t-58.5 -64.5t-76 -38.5t-85.5 -16l-4 -33q31 -6 55 -25.5t24 -62.5q0 -47 -31.5 -73.5t-78.5 -26.5q-27 0 -46.5 6t-31.5 13z"/>
<glyph glyph-name="Egrave" horiz-adv-x="575" unicode="È" d="M188 80h344v-80h-436v724h423v-80h-331v-239h311v-80h-311v-245zM175 913h110l99 -134l-69 -12z"/>
<glyph glyph-name="Eacute" horiz-adv-x="575" unicode="É" d="M188 80h344v-80h-436v724h423v-80h-331v-239h311v-80h-311v-245zM299 767l-69 12l99 134h110z"/>
<glyph glyph-name="Ecircumflex" horiz-adv-x="575" unicode="Ê" d="M188 80h344v-80h-436v724h423v-80h-331v-239h311v-80h-311v-245zM305 847l-84 -80l-70 9l116 129h79l114 -129l-70 -7z"/>
<glyph glyph-name="Edieresis" horiz-adv-x="575" unicode="Ë" d="M188 80h344v-80h-436v724h423v-80h-331v-239h311v-80h-311v-245zM473 841q0 -29 -17 -45t-46 -16t-46 16t-17 45t17 45.5t46 16.5t46 -16.5t17 -45.5zM263 841q0 -29 -17 -45t-45 -16q-29 0 -46.5 16t-17.5 45t17.5 45.5t46.5 16.5q28 0 45 -16.5t17 -45.5z"/>
<glyph glyph-name="Igrave" horiz-adv-x="284" unicode="Ì" d="M188 0h-92v724h92v-724zM14 913h110l99 -134l-69 -12z"/>
<glyph glyph-name="Iacute" horiz-adv-x="284" unicode="Í" d="M188 0h-92v724h92v-724zM138 767l-69 12l99 134h110z"/>
<glyph glyph-name="Icircumflex" horiz-adv-x="284" unicode="Î" d="M188 0h-92v724h92v-724zM144 847l-84 -80l-70 9l116 129h79l114 -129l-70 -7z"/>
<glyph glyph-name="Idieresis" horiz-adv-x="284" unicode="Ï" d="M188 0h-92v724h92v-724zM312 841q0 -29 -17 -45t-46 -16t-46 16t-17 45t17 45.5t46 16.5t46 -16.5t17 -45.5zM102 841q0 -29 -17 -45t-45 -16q-29 0 -46.5 16t-17.5 45t17.5 45.5t46.5 16.5q28 0 45 -16.5t17 -45.5z"/>
<glyph glyph-name="Eth" horiz-adv-x="728" unicode="Ð" d="M303 78q142 0 211 74.5t69 207.5q0 82 -18.5 137t-53 88t-85.5 47t-115 14h-123v-242h203v-75h-203v-251h115zM18 404h78v320h223q94 0 162 -24.5t111.5 -70t64.5 -110.5t21 -146q0 -83 -22.5 -152t-68.5 -118t-117 -76t-168 -27h-206v329h-78v75z"/>
<glyph glyph-name="Ntilde" horiz-adv-x="745" unicode="Ñ" d="M538 0l-356 607v-607h-86v724h121l347 -601v601h85v-724h-111zM304 904q24 0 44 -7t38 -15.5t35 -15.5t34 -7q19 0 28.5 9.5t9.5 41.5l55 -3q2 -15 2 -28q1 -41 -19 -63q-26 -30 -67 -30q-24 0 -44.5 7t-39 16t-36 16t-34.5 7t-27 -11q-9 -9 -8 -33v-10l-56 3 q-2 13 -2 25q0 16 4 30q6 23 17.5 38t29 22.5t36.5 7.5z"/>
<glyph glyph-name="Ograve" horiz-adv-x="759" unicode="Ò" d="M380 69q51 0 94.5 17.5t74.5 54.5t48.5 93t17.5 133q0 72 -16 126t-46 90t-72 54.5t-94 18.5q-53 0 -97 -18.5t-76 -55.5t-50 -92t-18 -127q0 -74 17 -129t47.5 -91.5t73.5 -55t96 -18.5zM375 -12q-84 0 -145.5 28t-101 77.5t-59 118.5t-19.5 150t22 149.5t65 118.5 t106.5 78.5t146.5 28.5q82 0 142 -28t99.5 -77t58.5 -115t19 -141q0 -88 -21 -159.5t-63 -122.5t-104.5 -78.5t-145.5 -27.5zM256 913h110l99 -134l-69 -12z"/>
<glyph glyph-name="Oacute" horiz-adv-x="759" unicode="Ó" d="M380 69q51 0 94.5 17.5t74.5 54.5t48.5 93t17.5 133q0 72 -16 126t-46 90t-72 54.5t-94 18.5q-53 0 -97 -18.5t-76 -55.5t-50 -92t-18 -127q0 -74 17 -129t47.5 -91.5t73.5 -55t96 -18.5zM375 -12q-84 0 -145.5 28t-101 77.5t-59 118.5t-19.5 150t22 149.5t65 118.5 t106.5 78.5t146.5 28.5q82 0 142 -28t99.5 -77t58.5 -115t19 -141q0 -88 -21 -159.5t-63 -122.5t-104.5 -78.5t-145.5 -27.5zM380 767l-69 12l99 134h110z"/>
<glyph glyph-name="Ocircumflex" horiz-adv-x="759" unicode="Ô" d="M380 69q51 0 94.5 17.5t74.5 54.5t48.5 93t17.5 133q0 72 -16 126t-46 90t-72 54.5t-94 18.5q-53 0 -97 -18.5t-76 -55.5t-50 -92t-18 -127q0 -74 17 -129t47.5 -91.5t73.5 -55t96 -18.5zM375 -12q-84 0 -145.5 28t-101 77.5t-59 118.5t-19.5 150t22 149.5t65 118.5 t106.5 78.5t146.5 28.5q82 0 142 -28t99.5 -77t58.5 -115t19 -141q0 -88 -21 -159.5t-63 -122.5t-104.5 -78.5t-145.5 -27.5zM386 847l-84 -80l-70 9l116 129h79l114 -129l-70 -7z"/>
<glyph glyph-name="Otilde" horiz-adv-x="759" unicode="Õ" d="M380 69q51 0 94.5 17.5t74.5 54.5t48.5 93t17.5 133q0 72 -16 126t-46 90t-72 54.5t-94 18.5q-53 0 -97 -18.5t-76 -55.5t-50 -92t-18 -127q0 -74 17 -129t47.5 -91.5t73.5 -55t96 -18.5zM375 -12q-84 0 -145.5 28t-101 77.5t-59 118.5t-19.5 150t22 149.5t65 118.5 t106.5 78.5t146.5 28.5q82 0 142 -28t99.5 -77t58.5 -115t19 -141q0 -88 -21 -159.5t-63 -122.5t-104.5 -78.5t-145.5 -27.5zM310 904q24 0 44 -7t38 -15.5t35 -15.5t34 -7q19 0 28.5 9.5t9.5 41.5l55 -3q2 -15 2 -28q1 -41 -19 -63q-26 -30 -67 -30q-24 0 -44.5 7t-39 16 t-36 16t-34.5 7t-27 -11q-9 -9 -8 -33v-10l-56 3q-2 13 -2 25q0 16 4 30q6 23 17.5 38t29 22.5t36.5 7.5z"/>
<glyph glyph-name="Odieresis" horiz-adv-x="759" unicode="Ö" d="M380 69q51 0 94.5 17.5t74.5 54.5t48.5 93t17.5 133q0 72 -16 126t-46 90t-72 54.5t-94 18.5q-53 0 -97 -18.5t-76 -55.5t-50 -92t-18 -127q0 -74 17 -129t47.5 -91.5t73.5 -55t96 -18.5zM375 -12q-84 0 -145.5 28t-101 77.5t-59 118.5t-19.5 150t22 149.5t65 118.5 t106.5 78.5t146.5 28.5q82 0 142 -28t99.5 -77t58.5 -115t19 -141q0 -88 -21 -159.5t-63 -122.5t-104.5 -78.5t-145.5 -27.5zM554 841q0 -29 -17 -45t-46 -16t-46 16t-17 45t17 45.5t46 16.5t46 -16.5t17 -45.5zM344 841q0 -29 -17 -45t-45 -16q-29 0 -46.5 16t-17.5 45 t17.5 45.5t46.5 16.5q28 0 45 -16.5t17 -45.5z"/>
<glyph glyph-name="multiply" horiz-adv-x="570" unicode="×" d="M284 260l-104 -106l-59 61l106 105l-106 107l59 60l104 -105l106 105l58 -60l-105 -107l105 -105l-58 -61z"/>
<glyph glyph-name="Oslash" horiz-adv-x="759" unicode="Ø" d="M380 69q51 0 94.5 17.5t74.5 54.5t48.5 93t17.5 133q0 84 -22 144t-62 95l-220 -528q31 -9 69 -9zM146 363q0 -89 23.5 -150.5t67.5 -96.5l221 530q-17 5 -34.5 7.5t-36.5 2.5q-53 0 -97 -18.5t-76 -55.5t-50 -92t-18 -127zM375 -12q-54 0 -97 12l-29 -72h-90l42 102 q-78 46 -114.5 132.5t-36.5 199.5q0 81 22 149.5t65 118.5t106.5 78.5t146.5 28.5q28 0 52.5 -3.5t47.5 -9.5l30 70h89l-43 -104q73 -46 108 -128.5t35 -185.5q0 -88 -21 -159.5t-63 -122.5t-104.5 -78.5t-145.5 -27.5z"/>
<glyph glyph-name="Ugrave" horiz-adv-x="714" unicode="Ù" d="M358 68q87 0 130.5 40.5t43.5 142.5v473h91v-481q0 -131 -70 -193t-199 -62q-140 0 -202 65t-62 192v479h92v-470q0 -101 44.5 -143.5t131.5 -42.5zM227 913h110l99 -134l-69 -12z"/>
<glyph glyph-name="Uacute" horiz-adv-x="714" unicode="Ú" d="M358 68q87 0 130.5 40.5t43.5 142.5v473h91v-481q0 -131 -70 -193t-199 -62q-140 0 -202 65t-62 192v479h92v-470q0 -101 44.5 -143.5t131.5 -42.5zM351 767l-69 12l99 134h110z"/>
<glyph glyph-name="Ucircumflex" horiz-adv-x="714" unicode="Û" d="M358 68q87 0 130.5 40.5t43.5 142.5v473h91v-481q0 -131 -70 -193t-199 -62q-140 0 -202 65t-62 192v479h92v-470q0 -101 44.5 -143.5t131.5 -42.5zM357 847l-84 -80l-70 9l116 129h79l114 -129l-70 -7z"/>
<glyph glyph-name="Udieresis" horiz-adv-x="714" unicode="Ü" d="M358 68q87 0 130.5 40.5t43.5 142.5v473h91v-481q0 -131 -70 -193t-199 -62q-140 0 -202 65t-62 192v479h92v-470q0 -101 44.5 -143.5t131.5 -42.5zM525 841q0 -29 -17 -45t-46 -16t-46 16t-17 45t17 45.5t46 16.5t46 -16.5t17 -45.5zM315 841q0 -29 -17 -45t-45 -16 q-29 0 -46.5 16t-17.5 45t17.5 45.5t46.5 16.5q28 0 45 -16.5t17 -45.5z"/>
<glyph glyph-name="Yacute" horiz-adv-x="566" unicode="Ý" d="M334 0h-92v280l-247 444h104l190 -353h2l185 353h95l-237 -442v-282zM283 767l-69 12l99 134h110z"/>
<glyph glyph-name="Thorn" horiz-adv-x="616" unicode="Þ" d="M290 230q39 0 73.5 5.5t60 22.5t40 48t14.5 82q0 73 -42.5 106t-130.5 33h-118v-297h103zM187 0h-91v724h91v-119h145q69 0 115.5 -17.5t74.5 -47t39.5 -68t11.5 -79.5q0 -65 -18.5 -110.5t-54 -75t-87 -43t-116.5 -13.5h-110v-151z"/>
<glyph glyph-name="germandbls" horiz-adv-x="660" unicode="ß" d="M81 0v539q0 62 18 105.5t49.5 70.5t75.5 39.5t97 12.5q109 0 166 -47t57 -133q0 -36 -9.5 -63t-25 -47t-36.5 -34t-44 -24v-3q38 -7 71 -21t58 -38t39 -60t14 -87q0 -49 -13.5 -89.5t-40 -70t-65 -45.5t-87.5 -16q-66 0 -114 31t-61 97l60 33q11 -38 33 -63t72 -25 q55 0 88.5 35t33.5 108q0 47 -14.5 78.5t-39.5 50t-58.5 26.5t-71.5 8h-40v70h15q40 0 68 11t44.5 30t24 43.5t7.5 51.5q0 65 -37 93.5t-103 28.5q-32 0 -58 -7.5t-44 -25.5t-28 -49.5t-10 -79.5v-534h-91z"/>
<glyph glyph-name="agrave" horiz-adv-x="545" unicode="à" d="M368 233q-21 3 -52 3q-27 0 -56 -2.5t-53.5 -12t-40.5 -28.5t-16 -52q0 -17 3.5 -31.5t13 -26t26.5 -18t43 -6.5q40 0 75.5 17.5t56.5 40.5v116zM457 97q0 -21 5.5 -30.5t25.5 -9.5q11 0 31 6l4 -57q-32 -16 -71 -16q-38 0 -56.5 18t-22.5 43q-30 -30 -70.5 -46.5 t-94.5 -16.5q-49 0 -78.5 14.5t-46 35.5t-22 45t-5.5 43q0 51 21 85t57.5 54t85 28t102.5 8q12 0 23 -0.5t22 -1.5v50q0 24 -4 43.5t-15.5 33t-31.5 21t-51 7.5q-53 0 -77 -21t-32 -64l-80 15q12 72 59.5 106.5t137.5 34.5q95 0 139.5 -40.5t44.5 -136.5v-251zM153 747h109 l97 -163l-66 -12z"/>
<glyph glyph-name="aacute" horiz-adv-x="545" unicode="á" d="M368 233q-21 3 -52 3q-27 0 -56 -2.5t-53.5 -12t-40.5 -28.5t-16 -52q0 -17 3.5 -31.5t13 -26t26.5 -18t43 -6.5q40 0 75.5 17.5t56.5 40.5v116zM457 97q0 -21 5.5 -30.5t25.5 -9.5q11 0 31 6l4 -57q-32 -16 -71 -16q-38 0 -56.5 18t-22.5 43q-30 -30 -70.5 -46.5 t-94.5 -16.5q-49 0 -78.5 14.5t-46 35.5t-22 45t-5.5 43q0 51 21 85t57.5 54t85 28t102.5 8q12 0 23 -0.5t22 -1.5v50q0 24 -4 43.5t-15.5 33t-31.5 21t-51 7.5q-53 0 -77 -21t-32 -64l-80 15q12 72 59.5 106.5t137.5 34.5q95 0 139.5 -40.5t44.5 -136.5v-251zM255 572 l-66 12l97 163h109z"/>
<glyph glyph-name="acircumflex" horiz-adv-x="545" unicode="â" d="M368 233q-21 3 -52 3q-27 0 -56 -2.5t-53.5 -12t-40.5 -28.5t-16 -52q0 -17 3.5 -31.5t13 -26t26.5 -18t43 -6.5q40 0 75.5 17.5t56.5 40.5v116zM457 97q0 -21 5.5 -30.5t25.5 -9.5q11 0 31 6l4 -57q-32 -16 -71 -16q-38 0 -56.5 18t-22.5 43q-30 -30 -70.5 -46.5 t-94.5 -16.5q-49 0 -78.5 14.5t-46 35.5t-22 45t-5.5 43q0 51 21 85t57.5 54t85 28t102.5 8q12 0 23 -0.5t22 -1.5v50q0 24 -4 43.5t-15.5 33t-31.5 21t-51 7.5q-53 0 -77 -21t-32 -64l-80 15q12 72 59.5 106.5t137.5 34.5q95 0 139.5 -40.5t44.5 -136.5v-251zM361 577 l-89 113l-88 -114l-68 7l112 165h89l113 -165z"/>
<glyph glyph-name="atilde" horiz-adv-x="545" unicode="ã" d="M368 233q-21 3 -52 3q-27 0 -56 -2.5t-53.5 -12t-40.5 -28.5t-16 -52q0 -17 3.5 -31.5t13 -26t26.5 -18t43 -6.5q40 0 75.5 17.5t56.5 40.5v116zM457 97q0 -21 5.5 -30.5t25.5 -9.5q11 0 31 6l4 -57q-32 -16 -71 -16q-38 0 -56.5 18t-22.5 43q-30 -30 -70.5 -46.5 t-94.5 -16.5q-49 0 -78.5 14.5t-46 35.5t-22 45t-5.5 43q0 51 21 85t57.5 54t85 28t102.5 8q12 0 23 -0.5t22 -1.5v50q0 24 -4 43.5t-15.5 33t-31.5 21t-51 7.5q-53 0 -77 -21t-32 -64l-80 15q12 72 59.5 106.5t137.5 34.5q95 0 139.5 -40.5t44.5 -136.5v-251zM192 716 q24 0 44 -7t38 -16t35 -16t34 -7q19 0 28.5 9.5t9.5 41.5l55 -2q2 -14 2 -26q0 -15 -3 -28q-5 -23 -17 -38t-29 -22.5t-37 -7.5q-24 0 -44.5 7t-39 16t-36 16t-34.5 7q-16 -1 -26 -11q-9 -9 -9 -33v-10l-56 3q-2 12 -2 24q0 16 4 30q6 24 18 39.5t29 23t36 7.5z"/>
<glyph glyph-name="adieresis" horiz-adv-x="545" unicode="ä" d="M368 233q-21 3 -52 3q-27 0 -56 -2.5t-53.5 -12t-40.5 -28.5t-16 -52q0 -17 3.5 -31.5t13 -26t26.5 -18t43 -6.5q40 0 75.5 17.5t56.5 40.5v116zM457 97q0 -21 5.5 -30.5t25.5 -9.5q11 0 31 6l4 -57q-32 -16 -71 -16q-38 0 -56.5 18t-22.5 43q-30 -30 -70.5 -46.5 t-94.5 -16.5q-49 0 -78.5 14.5t-46 35.5t-22 45t-5.5 43q0 51 21 85t57.5 54t85 28t102.5 8q12 0 23 -0.5t22 -1.5v50q0 24 -4 43.5t-15.5 33t-31.5 21t-51 7.5q-53 0 -77 -21t-32 -64l-80 15q12 72 59.5 106.5t137.5 34.5q95 0 139.5 -40.5t44.5 -136.5v-251zM440 672 q0 -29 -17 -45.5t-46 -16.5t-46 16.5t-17 45.5q0 28 17 44.5t46 16.5t46 -16.5t17 -44.5zM230 672q0 -29 -17 -45.5t-45 -16.5q-29 0 -46.5 16.5t-17.5 45.5q0 28 17.5 44.5t46.5 16.5q28 0 45 -16.5t17 -44.5z"/>
<glyph glyph-name="aring" horiz-adv-x="545" unicode="å" d="M368 233q-21 3 -52 3q-27 0 -56 -2.5t-53.5 -12t-40.5 -28.5t-16 -52q0 -17 3.5 -31.5t13 -26t26.5 -18t43 -6.5q40 0 75.5 17.5t56.5 40.5v116zM457 97q0 -21 5.5 -30.5t25.5 -9.5q11 0 31 6l4 -57q-32 -16 -71 -16q-38 0 -56.5 18t-22.5 43q-30 -30 -70.5 -46.5 t-94.5 -16.5q-49 0 -78.5 14.5t-46 35.5t-22 45t-5.5 43q0 51 21 85t57.5 54t85 28t102.5 8q12 0 23 -0.5t22 -1.5v50q0 24 -4 43.5t-15.5 33t-31.5 21t-51 7.5q-53 0 -77 -21t-32 -64l-80 15q12 72 59.5 106.5t137.5 34.5q95 0 139.5 -40.5t44.5 -136.5v-251zM272 623 q24 0 36.5 14t12.5 37q0 48 -49 48q-21 0 -35.5 -12.5t-14.5 -37.5q0 -49 50 -49zM379 674q0 -48 -29 -74.5t-78 -26.5q-48 0 -76.5 25.5t-28.5 71.5q0 52 31.5 77.5t73.5 25.5q45 0 76 -24t31 -75z"/>
<glyph glyph-name="ae" horiz-adv-x="859" unicode="æ" d="M714 301v9q0 64 -27.5 102.5t-89.5 38.5q-26 0 -49.5 -9t-42.5 -27t-31.5 -46.5t-14.5 -67.5h255zM237 59q42 0 80.5 17t67.5 48q-9 26 -13 53.5t-5 58.5q-14 1 -29 1h-30q-31 0 -59.5 -4.5t-50.5 -15t-35 -29t-13 -48.5q0 -16 3.5 -30.5t13 -26t26.5 -18t44 -6.5z M598 -12q-69 0 -112.5 20.5t-69.5 57.5q-43 -42 -97 -60t-103 -18q-51 0 -82.5 14.5t-49 35.5t-23 45t-5.5 43q0 51 20 84.5t54.5 53.5t80 28t96.5 9h30t30 -1v49q0 24 -4.5 43.5t-16 33t-31.5 21t-51 7.5q-52 0 -76 -21t-32 -64l-80 15q12 74 60 107.5t135 33.5 q66 0 102 -21t54 -66q32 44 78 65.5t103 21.5q53 0 91 -18t62 -49t35.5 -73.5t11.5 -90.5q0 -14 -1 -30.5t-3 -31.5h-346q1 -51 12.5 -83.5t30.5 -51t45.5 -26t57.5 -7.5q54 0 80.5 23.5t37.5 67.5l81 -18q-16 -75 -71.5 -112t-133.5 -37z"/>
<glyph glyph-name="ccedilla" horiz-adv-x="538" unicode="ç" d="M212 -161q9 -5 24 -10t32 -5q23 0 35.5 12.5t12.5 32.5q0 25 -17 35.5t-56 11.5l10 74q-55 4 -93.5 25.5t-63 56t-36 80.5t-11.5 100q0 135 65 204t181 69q86 0 139.5 -45t58.5 -134l-87 -12q-6 57 -33.5 86t-81.5 29q-28 0 -54.5 -8.5t-47 -29.5t-33 -57t-12.5 -91 q0 -57 11 -95.5t30.5 -61.5t45.5 -32.5t57 -9.5q53 0 85.5 26.5t42.5 83.5l80 -17q-6 -41 -22.5 -71t-41.5 -50.5t-56 -32t-65 -14.5l-4 -33q31 -6 55 -25.5t24 -62.5q0 -47 -31.5 -73.5t-78.5 -26.5q-27 0 -48 6.5t-33 13.5z"/>
<glyph glyph-name="egrave" horiz-adv-x="546" unicode="è" d="M401 308q0 69 -27.5 106t-88.5 37q-26 0 -50 -8t-43 -25.5t-31.5 -44.5t-14.5 -65h255zM286 -12q-68 0 -113.5 22t-73 59t-39 85.5t-11.5 101.5q0 70 19 121t52 84t77 48.5t94 15.5q54 0 92.5 -17t63.5 -46.5t36.5 -70t11.5 -88.5q0 -15 -1 -32t-3 -35h-346 q1 -49 12.5 -82t30.5 -53t44.5 -28.5t56.5 -8.5q55 0 82.5 23.5t38.5 67.5l80 -18q-16 -75 -71 -112t-133 -37zM168 747h109l97 -163l-66 -12z"/>
<glyph glyph-name="eacute" horiz-adv-x="546" unicode="é" d="M401 308q0 69 -27.5 106t-88.5 37q-26 0 -50 -8t-43 -25.5t-31.5 -44.5t-14.5 -65h255zM286 -12q-68 0 -113.5 22t-73 59t-39 85.5t-11.5 101.5q0 70 19 121t52 84t77 48.5t94 15.5q54 0 92.5 -17t63.5 -46.5t36.5 -70t11.5 -88.5q0 -15 -1 -32t-3 -35h-346 q1 -49 12.5 -82t30.5 -53t44.5 -28.5t56.5 -8.5q55 0 82.5 23.5t38.5 67.5l80 -18q-16 -75 -71 -112t-133 -37zM270 572l-66 12l97 163h109z"/>
<glyph glyph-name="ecircumflex" horiz-adv-x="546" unicode="ê" d="M401 308q0 69 -27.5 106t-88.5 37q-26 0 -50 -8t-43 -25.5t-31.5 -44.5t-14.5 -65h255zM286 -12q-68 0 -113.5 22t-73 59t-39 85.5t-11.5 101.5q0 70 19 121t52 84t77 48.5t94 15.5q54 0 92.5 -17t63.5 -46.5t36.5 -70t11.5 -88.5q0 -15 -1 -32t-3 -35h-346 q1 -49 12.5 -82t30.5 -53t44.5 -28.5t56.5 -8.5q55 0 82.5 23.5t38.5 67.5l80 -18q-16 -75 -71 -112t-133 -37zM376 577l-89 113l-88 -114l-68 7l112 165h89l113 -165z"/>
<glyph glyph-name="edieresis" horiz-adv-x="546" unicode="ë" d="M401 308q0 69 -27.5 106t-88.5 37q-26 0 -50 -8t-43 -25.5t-31.5 -44.5t-14.5 -65h255zM286 -12q-68 0 -113.5 22t-73 59t-39 85.5t-11.5 101.5q0 70 19 121t52 84t77 48.5t94 15.5q54 0 92.5 -17t63.5 -46.5t36.5 -70t11.5 -88.5q0 -15 -1 -32t-3 -35h-346 q1 -49 12.5 -82t30.5 -53t44.5 -28.5t56.5 -8.5q55 0 82.5 23.5t38.5 67.5l80 -18q-16 -75 -71 -112t-133 -37zM455 672q0 -29 -17 -45.5t-46 -16.5t-46 16.5t-17 45.5q0 28 17 44.5t46 16.5t46 -16.5t17 -44.5zM245 672q0 -29 -17 -45.5t-45 -16.5q-29 0 -46.5 16.5 t-17.5 45.5q0 28 17.5 44.5t46.5 16.5q28 0 45 -16.5t17 -44.5z"/>
<glyph glyph-name="igrave" horiz-adv-x="249" unicode="ì" d="M172 0h-91v514h91v-514zM8 747h109l97 -163l-66 -12z"/>
<glyph glyph-name="iacute" horiz-adv-x="249" unicode="í" d="M172 0h-91v514h91v-514zM110 572l-66 12l97 163h109z"/>
<glyph glyph-name="icircumflex" horiz-adv-x="249" unicode="î" d="M172 0h-91v514h91v-514zM216 577l-89 113l-88 -114l-68 7l112 165h89l113 -165z"/>
<glyph glyph-name="idieresis" horiz-adv-x="249" unicode="ï" d="M172 0h-91v514h91v-514zM295 672q0 -29 -17 -45.5t-46 -16.5t-46 16.5t-17 45.5q0 28 17 44.5t46 16.5t46 -16.5t17 -44.5zM85 672q0 -29 -17 -45.5t-45 -16.5q-29 0 -46.5 16.5t-17.5 45.5q0 28 17.5 44.5t46.5 16.5q28 0 45 -16.5t17 -44.5z"/>
<glyph glyph-name="eth" horiz-adv-x="575" unicode="ð" d="M143 252q0 -39 6 -74t22 -61t42.5 -41.5t68.5 -15.5q43 0 72.5 20.5t47.5 54.5t26 79t8 94q0 33 -3 66q-19 23 -58.5 39.5t-82.5 16.5q-75 0 -112 -46t-37 -132zM203 615l73 41q-56 32 -129 42l30 69q106 -15 179 -65l104 59l36 -61l-83 -47q60 -64 86.5 -152t26.5 -186 q0 -58 -11 -116t-39 -105t-75 -76.5t-120 -29.5q-62 0 -106 18.5t-72 52.5t-41 82.5t-13 108.5q0 52 14.5 97.5t43 80t72 54.5t100.5 20q35 0 72.5 -9t69.5 -30q-14 44 -35 81t-50 66l-96 -55z"/>
<glyph glyph-name="ntilde" horiz-adv-x="582" unicode="ñ" d="M509 0h-91v335q0 54 -21.5 82t-74.5 28q-22 0 -44.5 -6.5t-42.5 -15.5t-36.5 -20t-26.5 -20v-383h-91v514h80l5 -61q38 30 84.5 51t100.5 21q83 0 120.5 -44t37.5 -132v-349zM218 716q24 0 44 -7t38 -16t35 -16t34 -7q19 0 28.5 9.5t9.5 41.5l55 -2q2 -14 2 -26 q0 -15 -3 -28q-5 -23 -17 -38t-29 -22.5t-37 -7.5q-24 0 -44.5 7t-39 16t-36 16t-34.5 7q-16 -1 -26 -11q-9 -9 -9 -33v-10l-56 3q-2 12 -2 24q0 16 4 30q6 24 18 39.5t29 23t36 7.5z"/>
<glyph glyph-name="ograve" horiz-adv-x="578" unicode="ò" d="M291 61q33 0 59.5 10.5t45 34.5t28.5 62t10 93q0 53 -9 89.5t-27 58.5t-44 31.5t-59 9.5q-34 0 -62 -10.5t-48 -33.5t-31 -59.5t-11 -87.5q0 -103 36.5 -150.5t111.5 -47.5zM286 -12q-67 0 -112.5 20.5t-73 56t-39.5 84.5t-12 106q0 62 16 112t47.5 85t78 54t108.5 19 q61 0 104.5 -19t71.5 -53t41 -81.5t13 -104.5q0 -63 -13.5 -114.5t-43 -88t-75.5 -56.5t-111 -20zM176 747h109l97 -163l-66 -12z"/>
<glyph glyph-name="oacute" horiz-adv-x="578" unicode="ó" d="M291 61q33 0 59.5 10.5t45 34.5t28.5 62t10 93q0 53 -9 89.5t-27 58.5t-44 31.5t-59 9.5q-34 0 -62 -10.5t-48 -33.5t-31 -59.5t-11 -87.5q0 -103 36.5 -150.5t111.5 -47.5zM286 -12q-67 0 -112.5 20.5t-73 56t-39.5 84.5t-12 106q0 62 16 112t47.5 85t78 54t108.5 19 q61 0 104.5 -19t71.5 -53t41 -81.5t13 -104.5q0 -63 -13.5 -114.5t-43 -88t-75.5 -56.5t-111 -20zM278 572l-66 12l97 163h109z"/>
<glyph glyph-name="ocircumflex" horiz-adv-x="578" unicode="ô" d="M291 61q33 0 59.5 10.5t45 34.5t28.5 62t10 93q0 53 -9 89.5t-27 58.5t-44 31.5t-59 9.5q-34 0 -62 -10.5t-48 -33.5t-31 -59.5t-11 -87.5q0 -103 36.5 -150.5t111.5 -47.5zM286 -12q-67 0 -112.5 20.5t-73 56t-39.5 84.5t-12 106q0 62 16 112t47.5 85t78 54t108.5 19 q61 0 104.5 -19t71.5 -53t41 -81.5t13 -104.5q0 -63 -13.5 -114.5t-43 -88t-75.5 -56.5t-111 -20zM384 577l-89 113l-88 -114l-68 7l112 165h89l113 -165z"/>
<glyph glyph-name="otilde" horiz-adv-x="578" unicode="õ" d="M291 61q33 0 59.5 10.5t45 34.5t28.5 62t10 93q0 53 -9 89.5t-27 58.5t-44 31.5t-59 9.5q-34 0 -62 -10.5t-48 -33.5t-31 -59.5t-11 -87.5q0 -103 36.5 -150.5t111.5 -47.5zM286 -12q-67 0 -112.5 20.5t-73 56t-39.5 84.5t-12 106q0 62 16 112t47.5 85t78 54t108.5 19 q61 0 104.5 -19t71.5 -53t41 -81.5t13 -104.5q0 -63 -13.5 -114.5t-43 -88t-75.5 -56.5t-111 -20zM215 716q24 0 44 -7t38 -16t35 -16t34 -7q19 0 28.5 9.5t9.5 41.5l55 -2q2 -14 2 -26q0 -15 -3 -28q-5 -23 -17 -38t-29 -22.5t-37 -7.5q-24 0 -44.5 7t-39 16t-36 16 t-34.5 7q-16 -1 -26 -11q-9 -9 -9 -33v-10l-56 3q-2 12 -2 24q0 16 4 30q6 24 18 39.5t29 23t36 7.5z"/>
<glyph glyph-name="odieresis" horiz-adv-x="578" unicode="ö" d="M291 61q33 0 59.5 10.5t45 34.5t28.5 62t10 93q0 53 -9 89.5t-27 58.5t-44 31.5t-59 9.5q-34 0 -62 -10.5t-48 -33.5t-31 -59.5t-11 -87.5q0 -103 36.5 -150.5t111.5 -47.5zM286 -12q-67 0 -112.5 20.5t-73 56t-39.5 84.5t-12 106q0 62 16 112t47.5 85t78 54t108.5 19 q61 0 104.5 -19t71.5 -53t41 -81.5t13 -104.5q0 -63 -13.5 -114.5t-43 -88t-75.5 -56.5t-111 -20zM463 672q0 -29 -17 -45.5t-46 -16.5t-46 16.5t-17 45.5q0 28 17 44.5t46 16.5t46 -16.5t17 -44.5zM253 672q0 -29 -17 -45.5t-45 -16.5q-29 0 -46.5 16.5t-17.5 45.5 q0 28 17.5 44.5t46.5 16.5q28 0 45 -16.5t17 -44.5z"/>
<glyph glyph-name="divide" horiz-adv-x="570" unicode="÷" d="M343 478q0 -63 -64 -63t-64 63q0 29 16.5 45.5t47.5 16.5q32 0 48 -16.5t16 -45.5zM96 279v84h377v-84h-377zM343 166q0 -62 -64 -62t-64 62q0 29 16.5 45.5t47.5 16.5q32 0 48 -16.5t16 -45.5z"/>
<glyph glyph-name="oslash" horiz-adv-x="578" unicode="ø" d="M143 259q0 -101 36 -150l149 338q-15 3 -33 3q-34 0 -62 -10.5t-48 -33.5t-31 -59.5t-11 -87.5zM291 61q33 0 59.5 10.5t45 34.5t28.5 62t10 93q0 54 -9.5 90t-27.5 58l-151 -343q10 -3 21 -4t24 -1zM286 -12q-41 0 -72 7l-29 -67h-86l43 98q-51 35 -72 94.5t-21 134.5 q0 62 16 112t47.5 85t78 54t108.5 19q32 0 61 -6l30 67h85l-42 -96q50 -32 73 -89.5t23 -133.5q0 -63 -13.5 -114.5t-43 -88t-75.5 -56.5t-111 -20z"/>
<glyph glyph-name="ugrave" horiz-adv-x="581" unicode="ù" d="M79 514h91v-335q0 -54 18 -82t75 -28q22 0 44.5 6.5t42 16t36 20.5t26.5 20v382h91v-514h-79l-6 59q-38 -31 -83 -50t-99 -19q-82 0 -119.5 44t-37.5 131v349zM174 747h109l97 -163l-66 -12z"/>
<glyph glyph-name="uacute" horiz-adv-x="581" unicode="ú" d="M79 514h91v-335q0 -54 18 -82t75 -28q22 0 44.5 6.5t42 16t36 20.5t26.5 20v382h91v-514h-79l-6 59q-38 -31 -83 -50t-99 -19q-82 0 -119.5 44t-37.5 131v349zM276 572l-66 12l97 163h109z"/>
<glyph glyph-name="ucircumflex" horiz-adv-x="581" unicode="û" d="M79 514h91v-335q0 -54 18 -82t75 -28q22 0 44.5 6.5t42 16t36 20.5t26.5 20v382h91v-514h-79l-6 59q-38 -31 -83 -50t-99 -19q-82 0 -119.5 44t-37.5 131v349zM382 577l-89 113l-88 -114l-68 7l112 165h89l113 -165z"/>
<glyph glyph-name="udieresis" horiz-adv-x="581" unicode="ü" d="M79 514h91v-335q0 -54 18 -82t75 -28q22 0 44.5 6.5t42 16t36 20.5t26.5 20v382h91v-514h-79l-6 59q-38 -31 -83 -50t-99 -19q-82 0 -119.5 44t-37.5 131v349zM461 672q0 -29 -17 -45.5t-46 -16.5t-46 16.5t-17 45.5q0 28 17 44.5t46 16.5t46 -16.5t17 -44.5zM251 672 q0 -29 -17 -45.5t-45 -16.5q-29 0 -46.5 16.5t-17.5 45.5q0 28 17.5 44.5t46.5 16.5q28 0 45 -16.5t17 -44.5z"/>
<glyph glyph-name="yacute" horiz-adv-x="485" unicode="ý" d="M8 514h101l136 -408h1l141 408h93l-222 -589q-15 -41 -32 -69t-37.5 -45.5t-45 -25.5t-54.5 -8q-29 0 -56.5 6t-42.5 13l11 71q14 -5 38 -10.5t44 -5.5q28 0 51.5 17t40.5 63l24 63zM229 572l-66 12l97 163h109z"/>
<glyph glyph-name="thorn" horiz-adv-x="581" unicode="þ" d="M172 118q9 -6 22 -15.5t30.5 -17.5t37.5 -14t42 -6q36 0 61.5 14.5t41.5 41t23.5 64.5t7.5 85q0 92 -29 135t-93 43q-21 0 -42 -6t-40 -15t-35 -20.5t-27 -22.5v-266zM81 -212v967h90v-298q34 30 75.5 49t98.5 19q40 0 74 -13.5t59 -43.5t39.5 -79t14.5 -120 q0 -75 -17 -128.5t-46.5 -87t-69 -49.5t-84.5 -16q-46 0 -82 15t-63 37h-1v-252h-88z"/>
<glyph glyph-name="dotlessi" horiz-adv-x="249" unicode="ı" d="M172 0h-91v514h91v-514z"/>
<glyph glyph-name="OE" horiz-adv-x="1089" unicode="Œ" d="M380 69q51 0 94 17.5t74 53.5t49 91.5t18 132.5q0 73 -16 127.5t-46 91t-72 55t-94 18.5q-53 0 -97 -18.5t-76 -55.5t-50 -92t-18 -127q0 -73 17 -128t47.5 -92t73.5 -55.5t96 -18.5zM621 0v111q-38 -59 -99.5 -91t-146.5 -32q-84 0 -145.5 28t-101 77.5t-59 118.5 t-19.5 150t22 149.5t65 119t106 78.5t145 28q83 0 140 -30.5t93 -83.5v101h413v-75h-331v-244h310v-80h-310v-245h344v-80h-426z"/>
<glyph glyph-name="oe" horiz-adv-x="925" unicode="œ" d="M780 308q0 69 -27.5 106t-89.5 37q-26 0 -50 -8.5t-43.5 -26t-31.5 -44.5t-13 -64h255zM291 61q67 0 105 45t38 155q0 54 -9 90.5t-27 58t-44 31t-59 9.5q-34 0 -62 -10.5t-48 -33.5t-31 -59.5t-11 -88.5q0 -102 36.5 -149.5t111.5 -47.5zM668 -12q-78 0 -123.5 29.5 t-67.5 74.5q-26 -49 -72.5 -76.5t-120.5 -27.5q-66 0 -111 20.5t-72.5 56t-39.5 84t-12 105.5q0 63 16 113t47 85t77.5 54t106.5 19q72 0 116.5 -27.5t69.5 -76.5q29 52 78.5 77.5t112.5 25.5q53 0 91 -17t62.5 -46.5t36 -70.5t11.5 -89q0 -14 -1 -32t-3 -33h-346 q1 -50 12.5 -83.5t31 -53t46 -27.5t57.5 -8q51 0 79 23t39 68l80 -18q-8 -37 -26.5 -65t-45 -46.5t-59.5 -28t-70 -9.5z"/>
<glyph glyph-name="Scaron" horiz-adv-x="583" unicode="Š" d="M299 659q-42 0 -70.5 -8.5t-46.5 -24t-26 -36t-8 -44.5q0 -33 14.5 -55t38.5 -37.5t55 -26.5t65 -21q40 -12 79.5 -25.5t71 -36t51 -57t19.5 -86.5q0 -57 -21 -97.5t-56.5 -66t-82 -37.5t-96.5 -12q-113 0 -181.5 48.5t-82.5 160.5l88 13q6 -29 17 -55t31 -46t51 -31.5 t78 -11.5q29 0 58 5.5t52 19.5t37 37.5t14 59.5q0 34 -14 56.5t-37.5 37.5t-54.5 25.5t-64 19.5q-40 11 -80 24.5t-72 36t-52 58t-20 91.5q0 46 18.5 83.5t51 63t77 39.5t97.5 14q48 0 89 -10t72 -34t51 -63t26 -97l-86 -10q-4 26 -12.5 50.5t-25 43.5t-44 30.5t-69.5 11.5z M297 828l84 80l70 -9l-116 -129h-79l-114 129l70 7z"/>
<glyph glyph-name="scaron" horiz-adv-x="487" unicode="š" d="M248 525q46 0 78.5 -10.5t55 -30t35.5 -47t19 -61.5l-82 -18q-5 22 -11.5 39.5t-18.5 30t-30.5 19t-46.5 6.5q-56 0 -77.5 -21.5t-21.5 -50.5q0 -20 7.5 -33.5t22.5 -22.5t36 -15t48 -12q35 -8 68 -16.5t58.5 -25t41 -43t15.5 -69.5q0 -74 -53.5 -115t-147.5 -41 q-89 0 -141 35.5t-64 113.5l81 22q5 -21 13 -39t22 -31.5t36.5 -21t56.5 -7.5q46 0 76.5 16.5t30.5 57.5q0 21 -7.5 34.5t-22 22t-35.5 14t-47 10.5q-32 6 -64.5 14.5t-59.5 24.5t-44 43.5t-17 72.5q0 39 15 68t41 48.5t60.5 29t73.5 9.5zM162 742l87 -112l89 114l66 -7 l-112 -165h-89l-113 165z"/>
<glyph glyph-name="Ydieresis" horiz-adv-x="566" unicode="Ÿ" d="M334 0h-92v280l-247 444h104l190 -353h2l185 353h95l-237 -442v-282zM457 841q0 -29 -17 -45t-46 -16t-46 16t-17 45t17 45.5t46 16.5t46 -16.5t17 -45.5zM247 841q0 -29 -17 -45t-45 -16q-29 0 -46.5 16t-17.5 45t17.5 45.5t46.5 16.5q28 0 45 -16.5t17 -45.5z"/>
<glyph glyph-name="circumflex" d="M339 577l-89 113l-88 -114l-68 7l112 165h89l113 -165z" unicode="ˆ"/>
<glyph glyph-name="caron" d="M164 742l87 -112l89 114l66 -7l-112 -165h-89l-113 165z" unicode="ˇ"/>
<glyph glyph-name="ring" d="M250 623q24 0 36.5 14t12.5 37q0 48 -49 48q-21 0 -35.5 -12.5t-14.5 -37.5q0 -49 50 -49zM357 674q0 -48 -29 -74.5t-78 -26.5q-48 0 -76.5 25.5t-28.5 71.5q0 52 31.5 77.5t73.5 25.5q45 0 76 -24t31 -75z" unicode="˚"/>
<glyph glyph-name="tilde" d="M170 716q24 0 44 -7t38 -16t35 -16t34 -7q19 0 28.5 9.5t9.5 41.5l55 -2q2 -14 2 -26q0 -15 -3 -28q-5 -23 -17 -38t-29 -22.5t-37 -7.5q-24 0 -44.5 7t-39 16t-36 16t-34.5 7q-16 -1 -26 -11q-9 -9 -9 -33v-10l-56 3q-2 12 -2 24q0 16 4 30q6 24 18 39.5t29 23t36 7.5z " unicode="˜"/>
<glyph glyph-name="uni0394" horiz-adv-x="670" unicode="Δ" d="M138 79h377l-186 557h-2zM24 0l250 724h117l255 -724h-622z"/>
<glyph glyph-name="uni03BC" horiz-adv-x="629" unicode="μ" d="M100 514h91v-334q0 -60 17 -87t65 -27q24 0 47 7.5t43 19.5t37.5 27t30.5 29v365h91v-514h-87v62h-1q-35 -29 -77 -50.5t-96 -21.5q-23 0 -44 7t-32 18l-3 -1l11 -190h-93v690z"/>
<glyph glyph-name="pi" horiz-adv-x="666" unicode="π" d="M540 0h-91v440h-235v-440h-91v514h418z"/>
<glyph glyph-name="thinspace" horiz-adv-x="125" unicode=" "/>
<glyph glyph-name="endash" d="M0 245v73h499v-73h-499z" unicode="–"/>
<glyph glyph-name="emdash" horiz-adv-x="1000" unicode="—" d="M0 245v73h999v-73h-999z"/>
<glyph glyph-name="quoteleft" horiz-adv-x="189" unicode="‘" d="M130 553h-98l82 227l69 -9z"/>
<glyph glyph-name="quotesinglbase" horiz-adv-x="180" unicode="‚" d="M64.0078 88.0342h97.9941l-81.9951 -226.986l-68.9961 8.99902z"/>
<glyph glyph-name="quotedblleft" horiz-adv-x="343" unicode="“" d="M285 553h-98l82 227l69 -9zM130 553h-98l82 227l69 -9z"/>
<glyph glyph-name="quotedblright" horiz-adv-x="343" unicode="”" d="M231.008 767.034h97.9941l-81.9951 -226.986l-68.9961 8.99902zM77.0078 767.034h97.9941l-81.9951 -226.986l-68.9961 8.99902z"/>
<glyph glyph-name="dagger" horiz-adv-x="405" unicode="†" d="M235 489l14 -572h-93l13 573l-149 -11v82l149 -11l-10 174h87l-11 -173l150 10v-82z"/>
<glyph glyph-name="daggerdbl" horiz-adv-x="421" unicode="‡" d="M243 489l1 -338l149 11v-82l-149 11l10 -174h-87l11 173l-150 -10v82l150 -10l-1 338l-149 -11v82l149 -11l-10 174h87l-11 -173l150 10v-82z"/>
<glyph glyph-name="ellipsis" horiz-adv-x="638" unicode="…" d="M388 55q0 -67 -68 -67t-68 67t68 67t68 -67zM181 55q0 -67 -68 -67t-68 67t68 67t68 -67zM593 55q0 -67 -68 -67t-68 67t68 67t68 -67z"/>
<glyph glyph-name="perthousand" horiz-adv-x="1011" unicode="‰" d="M820 47q41 0 56 29t15 76q0 44 -14.5 72.5t-54.5 28.5q-21 0 -34.5 -8.5t-22 -23t-12 -33t-3.5 -38.5q0 -45 14.5 -74t55.5 -29zM817 -12q-40 0 -67 12.5t-43.5 34t-23.5 50t-7 61.5q0 76 37.5 121.5t110.5 45.5q75 0 108 -43t33 -115q0 -77 -37.5 -122t-110.5 -45z M493 47q41 0 56 29t15 76q0 44 -14.5 72.5t-54.5 28.5q-21 0 -34.5 -8.5t-22 -23t-12 -33t-3.5 -38.5q0 -45 14.5 -74t55.5 -29zM490 -12q-40 0 -67 12.5t-43.5 34t-23.5 50t-7 61.5q0 76 37.5 121.5t110.5 45.5q75 0 108 -43t33 -115q0 -77 -37.5 -122t-110.5 -45zM190 471 q41 0 56 29t15 76q0 44 -14 72.5t-54 28.5q-21 0 -35 -8.5t-22.5 -23t-12 -33t-3.5 -38.5q0 -45 14.5 -74t55.5 -29zM75 -16l439 740h81l-438 -740h-82zM187 412q-40 0 -67 12.5t-43.5 34t-23.5 50t-7 61.5q0 76 37.5 121.5t110.5 45.5q75 0 108 -43t33 -115 q0 -77 -37.5 -122t-110.5 -45z"/>
<glyph glyph-name="guilsinglleft" horiz-adv-x="278" unicode="‹" d="M144 103l-87 156l89 149h82l-84 -146l82 -159h-82z"/>
<glyph glyph-name="guilsinglright" horiz-adv-x="278" unicode="›" d="M131 408l88 -154l-88 -151h-82l84 150l-84 155h82z"/>
<glyph glyph-name="fraction" horiz-adv-x="148" unicode="⁄" d="M-151 -12l356 736h84l-354 -736h-86z"/>
<glyph glyph-name="foursuperior" horiz-adv-x="386" unicode="⁴" d="M231 517v204l-135 -204h135zM231 349v103h-209v57l188 285h101v-277h53v-65h-52v-103h-81z"/>
<glyph glyph-name="Euro" horiz-adv-x="612" unicode="€" d="M354 -12q-50 0 -93.5 13.5t-78 44t-58 80.5t-32.5 124h-81l11 68h64v33v23.5t1 22.5h-55l11 68h51q11 74 37 126t63 84.5t82 47t95 14.5q46 0 85 -12.5t68 -38.5t46.5 -67t21.5 -99l-83 -8q-5 39 -14 66.5t-25.5 45t-41 25.5t-59.5 8q-44 0 -75.5 -13.5t-53.5 -39 t-35.5 -61t-19.5 -78.5h225l-12 -68h-220v-42v-19t1 -18h210l-12 -68h-193q14 -92 55.5 -137.5t120.5 -45.5q66 0 101 31.5t49 100.5l78 -18q-8 -55 -31 -92t-55.5 -59.5t-70.5 -32t-77 -9.5z"/>
<glyph glyph-name="trademark" horiz-adv-x="832" unicode="™" d="M215 348h-60v322h-129v54h318v-54h-129v-322zM712 348v267l-107 -267h-46l-105 268v-268h-56v376h71l115 -296l118 296h65v-376h-55z"/>
<glyph glyph-name="partialdiff" horiz-adv-x="555" unicode="∂" d="M401 276q-10 10 -24.5 21t-32.5 20.5t-39 15.5t-45 6q-34 0 -57 -13t-37.5 -34t-20.5 -48t-6 -56q0 -26 6.5 -49t19.5 -40t33 -27t48 -10q44 0 72.5 21.5t45.5 53.5t25 69.5t12 69.5zM407 352q1 11 2 24t1 27q0 36 -6 71t-21 62t-41 44t-65 17q-42 0 -81.5 -15.5 t-68.5 -35.5l-38 61q39 28 91 47t106 19q65 0 106.5 -25t65 -66t32 -92.5t8.5 -103.5q0 -41 -4 -86.5t-14.5 -90t-28.5 -84.5t-46.5 -70.5t-68 -48.5t-92.5 -18q-99 0 -148.5 52.5t-49.5 142.5q0 51 14 93t40 72t63 47t84 17q54 0 94.5 -19t65.5 -41z"/>
<glyph glyph-name="Delta" horiz-adv-x="670" unicode="∆" d="M138 79h377l-186 557h-2zM24 0l250 724h117l255 -724h-622z"/>
<glyph glyph-name="product" horiz-adv-x="772" unicode="∏" d="M650 -161h-92v806h-344v-806h-92v885h528v-885z"/>
<glyph glyph-name="summation" horiz-adv-x="627" unicode="∑" d="M129 -92h439v-84h-545v70l233 383l-216 383v64h526v-80h-411l205 -364z"/>
<glyph glyph-name="minus" horiz-adv-x="570" unicode="−" d="M97 280v83h377v-83h-377z"/>
<glyph glyph-name="radical" horiz-adv-x="570" unicode="√" d="M258 0l-136 240q-1 2 -4 2l-69 -27l-25 59l138 65l132 -241l173 646l76 -20l-193 -724h-92z"/>
<glyph glyph-name="infinity" horiz-adv-x="671" unicode="∞" d="M381 321q11 -12 22.5 -24.5t23.5 -22.5t26.5 -16t31.5 -6q31 0 48 22t17 49t-14.5 48t-47.5 21q-32 0 -57.5 -22.5t-49.5 -48.5zM299 323q-24 28 -49.5 48t-60.5 20q-31 0 -49 -20.5t-18 -47.5q0 -13 3.5 -26t11.5 -23.5t20 -17t29 -6.5q18 0 34.5 7.5t30.5 19t26.5 24 t21.5 22.5zM336 269q-12 -13 -27.5 -27.5t-34.5 -27t-42 -21t-50 -8.5q-26 0 -50 8t-42.5 24.5t-30 41.5t-11.5 60q0 31 11 56.5t30 43.5t45 28t56 10q25 0 46.5 -7.5t40 -19t34 -26.5t30.5 -30q13 14 28.5 28.5t34 26.5t40.5 20t48 8q27 0 50.5 -8t41.5 -25t28.5 -43 t10.5 -62q0 -30 -10.5 -54.5t-29 -42.5t-43.5 -27.5t-53 -9.5t-50.5 8t-40.5 20t-33 27t-27 29z"/>
<glyph glyph-name="approxequal" horiz-adv-x="570" unicode="≈" d="M170 337q24 0 57.5 -7t67.5 -16t64 -16t47 -7q19 0 28 9.5t9 42.5l58 -3q1 -13 1 -25q0 -44 -20 -68q-26 -30 -68 -30q-23 0 -57 7t-68.5 16t-65 16t-47.5 7t-27 -11q-9 -9 -8 -33v-10l-58 2q-2 13 -2 25q0 16 4 30q6 24 18 39.5t29.5 23.5t37.5 8zM171 516q24 0 57.5 -7 t67.5 -16t64 -16t47 -7q19 0 28 9.5t9 42.5l58 -3q1 -13 1 -25q0 -44 -20 -68q-26 -30 -68 -30q-23 0 -57 7t-68.5 16t-65 16t-47.5 7t-27 -11q-9 -9 -8 -33v-10l-58 2q-2 13 -2 25q0 16 4 30q6 24 18 39.5t29.5 23.5t37.5 8z"/>
<glyph glyph-name="notequal" horiz-adv-x="570" unicode="≠" d="M225 242l37 79h-164v85h201l45 96h80l-46 -96h94v-85h-131l-37 -79h168v-85h-204l-45 -94h-79l45 94h-91v85h127z"/>
<glyph glyph-name="lessequal" horiz-adv-x="570" unicode="≤" d="M90 0v80h377v-80h-377zM89 252v98l378 153v-82l-297 -116l297 -112v-85z"/>
<glyph glyph-name="greaterequal" horiz-adv-x="570" unicode="≥" d="M89 0v80h377v-80h-377zM89 112v81l297 111l-297 113v86l378 -153v-93z"/>
<glyph glyph-name="lozenge" horiz-adv-x="570" unicode="◊" d="M399 307l-114 233l-114 -233l114 -236zM248 -17l-157 324l157 324h74l157 -324l-157 -324h-74z"/>
<glyph glyph-name="tilde.cap" d="M175 904q24 0 44 -7t38 -15.5t35 -15.5t34 -7q19 0 28.5 9.5t9.5 41.5l55 -3q2 -15 2 -28q1 -41 -19 -63q-26 -30 -67 -30q-24 0 -44.5 7t-39 16t-36 16t-34.5 7t-27 -11q-9 -9 -8 -33v-10l-56 3q-2 13 -2 25q0 16 4 30q6 23 17.5 38t29 22.5t36.5 7.5z"/>
<glyph glyph-name="circumflex.cap" d="M251 847l-84 -80l-70 9l116 129h79l114 -129l-70 -7z"/>
<glyph glyph-name="acute.cap" d="M245 767l-69 12l99 134h110z"/>
<glyph glyph-name="grave.cap" d="M121 913h110l99 -134l-69 -12z"/>
<glyph glyph-name="dieresis.cap" d="M419 841q0 -29 -17 -45t-46 -16t-46 16t-17 45t17 45.5t46 16.5t46 -16.5t17 -45.5zM209 841q0 -29 -17 -45t-45 -16q-29 0 -46.5 16t-17.5 45t17.5 45.5t46.5 16.5q28 0 45 -16.5t17 -45.5z"/>
<glyph glyph-name="caron.cap" d="M250 828l84 80l70 -9l-116 -129h-79l-114 129l70 7z"/>
<glyph glyph-name="a.sup" d="M243 497q-6 1 -12.5 1.5t-15.5 0.5q-18 0 -36 -2t-32.5 -7.5t-23.5 -16.5t-9 -30t10 -33t42 -14q23 0 44 10t33 22v69zM316 418q0 -14 4 -19.5t17 -5.5q8 0 20 3l3 -41q-10 -5 -24.5 -8t-28.5 -3q-28 0 -41.5 12.5t-16.5 27.5q-20 -19 -46.5 -30.5t-63.5 -11.5 q-32 0 -52 9.5t-31 23t-15 29.5t-4 28q0 32 13 53.5t34.5 34.5t51 18.5t62.5 7.5h23t21 -2v28q0 30 -11.5 47t-49.5 17q-32 0 -46.5 -12.5t-19.5 -39.5l-64 12q8 47 40.5 70t95.5 23q66 0 97.5 -26t31.5 -89v-156z" horiz-adv-x="378"/>
<glyph glyph-name="o.sup" d="M200 404q40 0 63 25t23 90q0 62 -21 86.5t-62 24.5q-42 0 -66 -25.5t-24 -87.5q0 -61 21 -87t66 -26zM197 342q-46 0 -77 13t-50 36.5t-27.5 55t-8.5 68.5q0 81 43 127.5t129 46.5q42 0 72.5 -12t49.5 -34t28 -52.5t9 -67.5q0 -83 -39.5 -132t-128.5 -49z" horiz-adv-x="399"/>
</font>
</defs>
</svg>
