<?xml version="1.0" encoding="UTF-8" standalone="no"?>
<!DOCTYPE svg  PUBLIC '-//W3C//DTD SVG 1.1//EN'  'http://www.w3.org/Graphics/SVG/1.1/DTD/svg11.dtd'>
<svg xmlns="http://www.w3.org/2000/svg">
<defs>
<font id="AdelleSansSAGE-Bold" horiz-adv-x="500">
<font-face underline-position="-50" font-weight="700" descent="-200" panose-1="2 0 5 3 0 0 0 2 0 4" units-per-em="1000" unicode-range="U+000D-25CA" bbox="-160 -246 1041 942" x-height="521" underline-thickness="50" font-family="AdelleSansSAGE" ascent="800" cap-height="724"/>
<missing-glyph horiz-adv-x="1000"/>
<glyph glyph-name=".notdef" horiz-adv-x="1000"/>
<glyph glyph-name=".null" horiz-adv-x="0"/>
<glyph glyph-name=".null" horiz-adv-x="0"/>
<glyph glyph-name="nonmarkingreturn" horiz-adv-x="1000" unicode=""/>
<glyph glyph-name="space" horiz-adv-x="174" unicode=" "/>
<glyph glyph-name="exclam" horiz-adv-x="290" unicode="!" d="M235 68q0 -38 -22 -59t-67 -21q-90 0 -90 80q0 39 22.5 60t67.5 21t67 -21t22 -60zM83 197l-19 527h164l-19 -527h-126z"/>
<glyph glyph-name="quotedbl" horiz-adv-x="429" unicode='&quot;' d="M50 465v259h135v-259h-135zM244 465v259h135v-259h-135z"/>
<glyph glyph-name="numbersign" horiz-adv-x="607" unicode="#" d="M352 353h-86l-17 -110h87zM299 0l21 139h-87l-21 -139h-104l21 139h-99l21 104h94l17 110h-100l21 105h94l20 135h104l-20 -135h86l20 135h104l-20 -135h101l-20 -105h-96l-17 -110h101l-20 -104h-96l-22 -139h-103z"/>
<glyph glyph-name="dollar" horiz-adv-x="550" unicode="$" d="M276 594q-47 0 -68 -20t-21 -51q0 -45 33.5 -67.5t95.5 -38.5q37 -10 74 -23t66 -35.5t47.5 -58t18.5 -89.5q0 -47 -15 -84t-41.5 -63t-62 -42.5t-76.5 -23.5v-80h-128v80q-33 4 -64 16t-56 35t-42 59.5t-23 89.5l132 25q4 -28 11.5 -49t21 -35.5t35.5 -22t55 -7.5 q47 0 76 19.5t29 61.5q0 25 -11.5 41t-30.5 27t-44 18.5t-52 15.5q-36 10 -72 23.5t-65 36.5t-47 59t-18 90q0 42 13.5 75.5t37 58.5t55 42t67.5 25v90h127v-89q34 -4 64 -16.5t53 -35t37.5 -56t17.5 -80.5l-134 -16q-7 47 -26.5 71t-69.5 24z"/>
<glyph glyph-name="percent" horiz-adv-x="831" unicode="%" d="M120 -13l438 737h132l-437 -737h-133zM635 76q31 0 44 23t13 74q0 46 -12.5 67.5t-44.5 21.5q-31 0 -44.5 -23t-13.5 -68q0 -49 13 -72t45 -23zM630 -12q-48 0 -80 14t-51.5 38t-28 56t-8.5 68q0 85 42.5 136t133.5 51q45 0 76.5 -12.5t52 -35t29.5 -54.5t9 -72 q0 -86 -43.5 -137.5t-131.5 -51.5zM193 463q31 0 44 23t13 74q0 46 -12.5 67.5t-44.5 21.5q-31 0 -44.5 -23t-13.5 -68q0 -49 13 -72t45 -23zM188 375q-48 0 -80 14t-51.5 38t-28 56t-8.5 68q0 85 42.5 136t133.5 51q45 0 76.5 -12.5t52 -35t29.5 -54.5t9 -72 q0 -86 -43.5 -137.5t-131.5 -51.5z"/>
<glyph glyph-name="ampersand" horiz-adv-x="743" unicode="&amp;" d="M295 541q0 -23 7 -44.5t20 -45.5q15 7 31.5 15.5t30 20t22 27t8.5 36.5q0 23 -14 38t-42 15q-26 0 -44.5 -16t-18.5 -46zM315 98q43 0 75 16q-45 42 -82 87.5t-75 101.5q-17 -14 -29.5 -35.5t-12.5 -57.5q0 -47 31 -79.5t93 -32.5zM540 558q0 -22 -6 -45.5t-23.5 -47 t-49 -47t-81.5 -44.5l-14 -6q29 -41 61.5 -79.5t70.5 -80.5q17 32 23 70t6 80h133v-13q0 -49 -13.5 -103t-51.5 -106q35 -22 72 -22q18 0 38 6l16 -114q-20 -8 -41.5 -11t-41.5 -4q-42 0 -79 12.5t-73 35.5q-30 -23 -79.5 -37t-116.5 -14q-62 0 -109.5 16t-79.5 44t-48 65.5 t-16 80.5q0 72 35.5 120.5t110.5 80.5q-19 32 -27 60.5t-8 60.5q0 43 16.5 77.5t45.5 58.5t68.5 36.5t85.5 12.5q33 0 65 -7.5t56.5 -24t39.5 -44t15 -67.5z"/>
<glyph glyph-name="quotesingle" horiz-adv-x="235" unicode="&apos;" d="M50 465v259h135v-259h-135z"/>
<glyph glyph-name="parenleft" horiz-adv-x="363" unicode="(" d="M189 -153q-27 39 -53.5 86.5t-47.5 102t-33.5 115.5t-12.5 129q0 67 12.5 127.5t34 115.5t50.5 105t62 96h156q-33 -48 -61 -97t-48.5 -103t-32.5 -113.5t-12 -127.5q0 -69 12 -129.5t32 -113.5t46 -100.5t54 -92.5h-158z"/>
<glyph glyph-name="parenright" horiz-adv-x="363" unicode=")" d="M158.023 723.981q26.9961 -38.9951 53.4932 -86.4893t47.4941 -101.988q20.9971 -54.4932 33.4961 -115.485q12.498 -60.9932 12.498 -128.984q0 -66.9922 -12.498 -127.484q-12.499 -60.4932 -33.9961 -115.486t-50.4941 -104.987q-28.9961 -49.9932 -61.9922 -95.9883 h-155.98q32.9951 47.9941 60.9922 96.9883t48.4941 102.988q20.4971 53.9932 32.4961 113.485q11.998 59.4932 11.998 127.484q0 68.9922 -11.998 129.484q-11.999 60.4932 -31.9961 113.486q-19.998 52.9932 -45.9941 100.487q-25.9971 47.4941 -53.9941 92.4893h157.981z "/>
<glyph glyph-name="asterisk" horiz-adv-x="477" unicode="*" d="M289 633l113 27l21 -72l-107 -54l72 -108l-57 -45l-98 92l-95 -95l-58 46l71 110l-109 53l22 72l115 -28l20 124h72z"/>
<glyph glyph-name="plus" horiz-adv-x="570" unicode="+" d="M224 121v143h-133v119h133v139h120v-139h134v-119h-134v-143h-120z"/>
<glyph glyph-name="comma" horiz-adv-x="244" unicode="," d="M56 132h158l-98 -269l-123 12z"/>
<glyph glyph-name="hyphen" horiz-adv-x="313" unicode="-" d="M20 227v129h271v-129h-271z"/>
<glyph glyph-name="period" horiz-adv-x="251" unicode="." d="M219 76q0 -88 -93 -88t-93 88q0 89 93 89t93 -89z"/>
<glyph glyph-name="slash" horiz-adv-x="443" unicode="/" d="M9 -92l281 847h137l-280 -847h-138z"/>
<glyph glyph-name="zero" horiz-adv-x="585" unicode="0" d="M293 106q30 0 50 14.5t31 46t15.5 81t4.5 118.5q0 67 -4 115t-14.5 78.5t-29.5 44.5t-49 14q-31 0 -51 -14t-32 -44.5t-17 -79t-5 -117.5q0 -68 4 -116.5t15.5 -79.5t31 -46t50.5 -15zM289 -12q-75 0 -124.5 25t-79 73t-42 118t-12.5 160t14 159.5t45.5 117t82.5 72 t126 24.5t124.5 -24.5t78.5 -71.5t40.5 -115t11.5 -154q0 -93 -13.5 -165t-44 -120.5t-81.5 -73.5t-126 -25z"/>
<glyph glyph-name="one" horiz-adv-x="442" unicode="1" d="M193 0v544q-13 -7 -34 -12.5t-44 -9.5t-44 -6.5t-33 -2.5l-7 128q67 5 120 24.5t89 58.5h103v-724h-150z"/>
<glyph glyph-name="two" horiz-adv-x="542" unicode="2" d="M277 737q109 0 163.5 -48.5t54.5 -138.5q0 -39 -9.5 -72t-28.5 -66t-48.5 -69t-69.5 -80l-118 -130v-3h285v-130h-462v126l155 181q34 39 61 70.5t45.5 58.5t28 52.5t9.5 53.5q0 36 -19.5 56t-61.5 20q-48 0 -69.5 -28t-29.5 -79l-136 23q6 54 27 92t54 63t76 36.5 t93 11.5z"/>
<glyph glyph-name="three" horiz-adv-x="555" unicode="3" d="M155 200q6 -46 28.5 -70.5t73.5 -24.5q43 0 72.5 25.5t29.5 82.5q0 58 -30 81t-87 23h-71v114h47q64 0 97.5 29.5t33.5 80.5q0 36 -17.5 58t-64.5 22t-68.5 -23t-31.5 -67l-130 26q10 51 33.5 85.5t56 55.5t72.5 30t82 9q105 0 161 -46t56 -130q0 -36 -12 -64t-31.5 -49 t-43.5 -35.5t-49 -22.5v-4q72 -17 111.5 -59.5t39.5 -121.5q0 -50 -18 -90.5t-51.5 -68.5t-81 -43t-105.5 -15q-43 0 -83 9.5t-72.5 31.5t-54 58t-27.5 88z"/>
<glyph glyph-name="four" horiz-adv-x="597" unicode="4" d="M351 284v302l-191 -302h191zM351 0v162h-324v107l287 455h184v-440h81v-122h-82v-162h-146z"/>
<glyph glyph-name="five" horiz-adv-x="560" unicode="5" d="M91 724h381v-130h-271l-17 -181q23 20 56.5 34t81.5 14q40 0 75 -12.5t61 -39t41 -68.5t15 -101t-18.5 -106t-52 -79.5t-81.5 -49.5t-107 -17q-44 0 -83.5 9.5t-71 31.5t-53 57.5t-28.5 87.5l131 27q6 -43 30 -68.5t75 -25.5q22 0 41.5 7.5t34.5 23t24 39.5t9 57t-8 54.5 t-21.5 34t-31 17.5t-35.5 5q-32 0 -59 -14t-47 -34l-98 41z"/>
<glyph glyph-name="six" horiz-adv-x="578" unicode="6" d="M200 287q1 -36 5 -69.5t15 -59t30 -40.5t51 -15q45 0 67 33t22 89q0 54 -19 80.5t-66 26.5q-27 0 -56 -14t-49 -31zM405 532q-8 51 -29 69.5t-56 18.5q-34 0 -58 -20.5t-39.5 -53.5t-23 -74t-7.5 -82q26 23 66 39t90 16q43 0 79 -13t61.5 -39t40 -65.5t14.5 -91.5 q0 -64 -19 -110.5t-52 -77t-78 -45.5t-97 -15q-75 0 -123.5 27.5t-76.5 75.5t-39 113t-11 140q0 42 5 87.5t17.5 89.5t33.5 83t52.5 68.5t75 47t101.5 17.5q37 0 70 -8t60 -27.5t47 -51.5t30 -81z"/>
<glyph glyph-name="seven" horiz-adv-x="531" unicode="7" d="M70 -1l279 595h-318v130h475v-116l-276 -609h-160z"/>
<glyph glyph-name="eight" horiz-adv-x="569" unicode="8" d="M308 445q35 21 55.5 49.5t20.5 61.5q0 35 -21 53.5t-69 18.5q-40 0 -64.5 -18t-24.5 -51q0 -40 27 -65t76 -49zM254 315q-35 -20 -60 -48t-25 -74q0 -41 25 -65.5t84 -24.5q55 0 82 26t27 63q0 26 -11 44.5t-30 33t-43 25t-49 20.5zM409 394q73 -33 106 -77t33 -119 q0 -43 -19 -81.5t-54 -67t-85.5 -45t-114.5 -16.5q-66 0 -114 15.5t-79 41.5t-46 60t-15 72q0 66 33 113.5t106 80.5q-61 29 -86 72.5t-25 94.5q0 47 18 84t50.5 62.5t78 39t101.5 13.5q114 0 173 -46.5t59 -122.5q0 -62 -32 -101t-88 -73z"/>
<glyph glyph-name="nine" horiz-adv-x="577" unicode="9" d="M380 435q-2 39 -6 73t-14.5 59t-30 39.5t-50.5 14.5q-45 0 -67 -31.5t-22 -88.5q0 -54 20 -82.5t66 -28.5q27 0 54.5 12.5t49.5 32.5zM165 200q9 -51 31 -74t64 -23q33 0 57 18.5t39.5 50t23.5 73t9 87.5q-26 -23 -66.5 -37.5t-90.5 -14.5q-43 0 -79 13t-61.5 39t-40 66 t-14.5 94q0 63 19.5 109t53.5 76t79.5 45t98.5 15q73 0 120 -27.5t75 -75.5t39 -113t11 -140q0 -66 -10.5 -136t-40.5 -127t-84 -93.5t-142 -36.5q-41 0 -78 8t-66.5 28t-50.5 53t-30 83z"/>
<glyph glyph-name="colon" horiz-adv-x="266" unicode=":" d="M226 76q0 -88 -93 -88t-93 88q0 89 93 89t93 -89zM226 419q0 -88 -93 -88t-93 88q0 89 93 89t93 -89z"/>
<glyph glyph-name="semicolon" horiz-adv-x="260" unicode=";" d="M58 132h158l-98 -269l-123 12zM240 419q0 -88 -93 -88t-93 88q0 89 93 89t93 -89z"/>
<glyph glyph-name="less" horiz-adv-x="570" unicode="&lt;" d="M69 220v142l391 140v-125l-261 -85l261 -86v-123z"/>
<glyph glyph-name="equal" horiz-adv-x="570" unicode="=" d="M92 316v120h386v-120h-386zM92 127v120h386v-120h-386z"/>
<glyph glyph-name="greater" horiz-adv-x="570" unicode="&gt;" d="M97 85v122l261 85l-261 85v125l391 -140v-140z"/>
<glyph glyph-name="question" horiz-adv-x="547" unicode="?" d="M317 68q0 -38 -22 -59t-67 -21q-89 0 -89 80q0 39 22 60t67 21t67 -21t22 -60zM155 197v183q36 3 72 10.5t64 23.5t45.5 42t17.5 66q0 48 -24.5 67.5t-62.5 19.5q-47 0 -72 -25t-34 -79l-147 23q12 96 78 151t183 55q46 0 89 -10.5t76 -35.5t53 -66t20 -102 q0 -95 -54.5 -152t-153.5 -80v-91h-150z"/>
<glyph glyph-name="at" horiz-adv-x="855" unicode="@" d="M491 296q-21 23 -58 23t-60.5 -30t-23.5 -97q0 -51 14.5 -85t54.5 -34q23 0 39.5 10t33.5 30v183zM651 -145q-35 -23 -90.5 -35.5t-129.5 -12.5q-81 0 -152.5 23t-124.5 69.5t-83.5 117.5t-30.5 167q0 88 29.5 161.5t83.5 126t130 82t169 29.5q80 0 146.5 -23t114.5 -66 t74.5 -105t26.5 -140q0 -67 -14 -115.5t-39.5 -80t-60.5 -47t-77 -15.5q-45 0 -75.5 14t-42.5 37q-22 -28 -51.5 -39t-62.5 -11q-36 0 -63 13.5t-45.5 38.5t-28 59.5t-9.5 75.5q0 46 11.5 86t33 69.5t52.5 46t70 16.5q28 0 50 -9.5t36 -25.5l8 29h81v-263q0 -23 8 -38.5 t36 -15.5q24 0 39.5 16.5t24.5 41t13 54t4 56.5q0 55 -15.5 101t-47.5 79t-83 51t-121 18q-81 0 -137.5 -26.5t-92.5 -69.5t-52.5 -97t-16.5 -109q0 -77 22 -132t61 -90t93.5 -51.5t119.5 -16.5q52 0 96 11t82 30z"/>
<glyph glyph-name="A" horiz-adv-x="709" unicode="A" d="M348 579h-4l-89 -280h183zM443 724l256 -724h-169l-60 176h-241l-56 -176h-159l237 724h192z"/>
<glyph glyph-name="B" horiz-adv-x="637" unicode="B" d="M285 425q27 0 53 3.5t46 13.5t32.5 29t12.5 51q0 29 -9 45.5t-25.5 25t-38.5 10.5t-48 2h-80v-180h57zM307 119q31 0 57 3.5t44.5 14t28.5 28.5t10 48t-10 49t-27 29t-39.5 13.5t-48.5 3.5h-94v-189h79zM74 0v724h287q64 0 106.5 -13.5t67.5 -37.5t35 -56.5t10 -69.5 q0 -36 -11 -64.5t-30 -49t-44 -34.5t-52 -21v-2q87 -11 127.5 -56.5t40.5 -120.5q0 -56 -20.5 -94t-57 -61t-86.5 -33.5t-109 -10.5h-264z"/>
<glyph glyph-name="C" horiz-adv-x="695" unicode="C" d="M372 -12q-90 0 -153.5 25.5t-103.5 73.5t-58.5 115.5t-18.5 151.5q0 86 22.5 156.5t67 121t109.5 78t150 27.5q61 0 112 -15t88.5 -46.5t59.5 -81t25 -117.5l-141 -12q-7 78 -41.5 111.5t-104.5 33.5q-89 0 -138.5 -59.5t-49.5 -188.5q0 -67 11.5 -114t34 -76.5t55.5 -43 t76 -13.5q39 0 66 9.5t45 27t29 41t17 52.5l139 -24q-9 -65 -38 -109.5t-70.5 -72t-91 -39.5t-98.5 -12z"/>
<glyph glyph-name="D" horiz-adv-x="724" unicode="D" d="M304 124q63 0 106 16.5t69.5 47.5t38 76t11.5 101q0 67 -13 112.5t-40 72.5t-67 38.5t-94 11.5h-87v-476h76zM74 0v724h254q94 0 162 -24.5t111.5 -70t64.5 -110.5t21 -146q0 -83 -22.5 -152t-68.5 -118t-117 -76t-168 -27h-237z"/>
<glyph glyph-name="E" horiz-adv-x="583" unicode="E" d="M228 130h323v-130h-477v724h459v-129h-305v-170h287v-126h-287v-169z"/>
<glyph glyph-name="F" horiz-adv-x="553" unicode="F" d="M228 0h-154v724h456v-129h-302v-184h278v-127h-278v-284z"/>
<glyph glyph-name="G" horiz-adv-x="739" unicode="G" d="M552 89q-12 -24 -33 -43t-48.5 -32t-60 -19.5t-65.5 -6.5q-82 0 -140 27t-95 75t-54.5 114.5t-17.5 145.5q0 88 22.5 159.5t66.5 122t109.5 78t152.5 27.5q59 0 109.5 -14t88 -44.5t60.5 -78.5t28 -116l-144 -14q-3 29 -11.5 54.5t-25 44.5t-43 30t-65.5 11 q-96 0 -142 -64.5t-46 -181.5q0 -130 43.5 -191t139.5 -61q36 0 64 10t46.5 27t28 40t9.5 49v26h-132v113h284v-377h-112z"/>
<glyph glyph-name="H" horiz-adv-x="733" unicode="H" d="M660 0h-155v297h-277v-297h-154v724h154v-294h277v294h155v-724z"/>
<glyph glyph-name="I" horiz-adv-x="302" unicode="I" d="M228 0h-154v724h154v-724z"/>
<glyph glyph-name="J" horiz-adv-x="530" unicode="J" d="M308 724h155v-521q0 -108 -57.5 -161.5t-170.5 -53.5q-47 0 -86.5 10t-68.5 34t-46 63.5t-19 97.5l148 22q2 -23 5.5 -41.5t11 -31.5t21 -20.5t36.5 -7.5q35 0 53 18.5t18 66.5v525z"/>
<glyph glyph-name="K" horiz-adv-x="673" unicode="K" d="M227 414l281 310h164l-265 -301l261 -423h-180l-191 303l-70 -76v-227h-153v724h153v-310z"/>
<glyph glyph-name="L" horiz-adv-x="568" unicode="L" d="M228 130h310v-130h-464v724h154v-594z"/>
<glyph glyph-name="M" horiz-adv-x="915" unicode="M" d="M842 0h-144v568h-4l-171 -568h-139l-165 569h-4v-569h-141v724h230l153 -529h4l152 529h229v-724z"/>
<glyph glyph-name="N" horiz-adv-x="745" unicode="N" d="M494 0l-279 511v-511h-141v724h184l274 -513v513h140v-724h-178z"/>
<glyph glyph-name="O" horiz-adv-x="760" unicode="O" d="M381 118q40 0 74 13.5t58 42.5t37.5 76t13.5 114q0 126 -46 184.5t-130 58.5q-88 0 -139.5 -59.5t-51.5 -185.5q0 -65 12.5 -111t36.5 -75.5t58 -43.5t77 -14zM375 -12q-90 0 -153.5 27.5t-104.5 77t-60 117.5t-19 149t22 150t66.5 119.5t110.5 79.5t154 29t151 -28.5 t103 -78t59 -116t19 -141.5q0 -88 -21.5 -159t-64.5 -121.5t-108.5 -77.5t-153.5 -27z"/>
<glyph glyph-name="P" horiz-adv-x="621" unicode="P" d="M289 358q30 0 55.5 5t45 19.5t30.5 39.5t11 65q0 35 -10 57t-27 34.5t-41 17t-52 4.5h-74v-242h62zM227 0h-153v724h274q69 0 115.5 -19t74.5 -50.5t39.5 -72.5t11.5 -84q0 -131 -70.5 -197.5t-212.5 -66.5h-79v-234z"/>
<glyph glyph-name="Q" horiz-adv-x="760" unicode="Q" d="M383 115q18 0 35.5 2.5t33.5 7.5l-113 120l93 83l107 -121q14 28 20 68t6 89q0 126 -46.5 184.5t-130.5 58.5q-88 0 -139.5 -59.5t-51.5 -185.5q0 -65 13 -111.5t37 -76.5t58.5 -44.5t77.5 -14.5zM375 -12q-90 0 -153.5 27.5t-104.5 77t-60 117.5t-19 149t22 150 t66.5 119.5t110.5 79.5t154 29t151 -28.5t103 -78t59 -116t19 -141.5q0 -169 -83 -270l82 -88l-96 -81l-83 90q-35 -17 -76.5 -26.5t-91.5 -9.5z"/>
<glyph glyph-name="R" horiz-adv-x="642" unicode="R" d="M306 396q27 0 51 5.5t41.5 18t28 33.5t10.5 52q0 52 -31.5 73.5t-93.5 21.5h-85v-204h79zM635 0h-166l-143 275h-99v-275h-153v724h282q67 0 113 -17t74.5 -45t40.5 -65t12 -77q0 -81 -34.5 -131t-90.5 -76z"/>
<glyph glyph-name="S" horiz-adv-x="596" unicode="S" d="M300 618q-56 0 -82 -21t-26 -56q0 -28 16 -46t42.5 -30.5t60.5 -22t69 -20.5t69 -25.5t60.5 -38t42.5 -57.5t16 -84q0 -62 -23 -105t-61.5 -71t-88.5 -40.5t-104 -12.5q-49 0 -97 9.5t-87 35t-65 70t-31 115.5l140 21q4 -26 12.5 -49.5t24.5 -41t41.5 -28t65.5 -10.5 q24 0 45.5 4.5t38 15t26.5 27.5t10 42q0 28 -16 45.5t-42.5 29.5t-60.5 20.5t-69.5 18.5t-69.5 24t-60.5 37.5t-42.5 58.5t-16 86q0 53 20.5 93.5t56.5 68.5t84 42t103 14q48 0 93 -9t80 -32.5t58 -65t27 -105.5l-141 -16q-2 25 -9 45.5t-21 34.5t-35.5 21.5t-53.5 7.5z"/>
<glyph glyph-name="T" horiz-adv-x="595" unicode="T" d="M221 0v594h-213v130h579v-130h-211v-594h-155z"/>
<glyph glyph-name="U" horiz-adv-x="708" unicode="U" d="M356 117q38 0 63.5 9.5t40.5 29.5t21.5 51.5t6.5 75.5v441h154v-463q0 -72 -20 -123.5t-58 -85t-92 -49t-122 -15.5q-150 0 -217.5 67.5t-67.5 209.5v459h155v-438q0 -42 6 -74t21.5 -53t42 -31.5t66.5 -10.5z"/>
<glyph glyph-name="V" horiz-adv-x="662" unicode="V" d="M232 0l-235 724h173l165 -572h6l165 572h159l-225 -724h-208z"/>
<glyph glyph-name="W" horiz-adv-x="964" unicode="W" d="M604 0l-117 499h-4l-116 -499h-203l-156 724h161l102 -558h4l129 558h165l133 -561h5l94 561h155l-155 -724h-197z"/>
<glyph glyph-name="X" horiz-adv-x="651" unicode="X" d="M414 366l238 -366h-178l-158 241l-151 -241h-166l234 365l-223 359h172l148 -245l150 245h160z"/>
<glyph glyph-name="Y" horiz-adv-x="606" unicode="Y" d="M388 0h-155v271l-251 453h169l159 -310h5l153 310h156l-236 -451v-273z"/>
<glyph glyph-name="Z" horiz-adv-x="592" unicode="Z" d="M212 130h351v-130h-536v113l343 482h-334v129h513v-115z"/>
<glyph glyph-name="bracketleft" horiz-adv-x="318" unicode="[" d="M55 -143v867h227v-98h-81v-671h81v-98h-227z"/>
<glyph glyph-name="backslash" horiz-adv-x="446" unicode="\" d="M299 -92l-280 847h137l281 -847h-138z"/>
<glyph glyph-name="bracketright" horiz-adv-x="318" unicode="]" d="M263 -143h-227v98h81v671h-81v98h227v-867z"/>
<glyph glyph-name="asciicircum" horiz-adv-x="683" unicode="^" d="M474 299l-133 236l-130 -236h-142l197 365h153l199 -365h-144z"/>
<glyph glyph-name="underscore" d="M0 -181v110h500v-110h-500z" unicode="_"/>
<glyph glyph-name="grave" d="M95 743h162l74 -162l-101 -9z" unicode="`"/>
<glyph glyph-name="a" horiz-adv-x="558" unicode="a" d="M334 221h-24q-27 -1 -50 -4.5t-39.5 -11t-25.5 -20.5t-9 -33q0 -23 12.5 -40t48.5 -17q27 0 51 11t36 23v92zM481 130q0 -21 5.5 -30.5t25.5 -9.5q11 0 31 6l4 -87q-15 -8 -43.5 -14t-52.5 -6q-45 0 -72 14.5t-35 51.5q-25 -32 -63 -49.5t-92 -17.5q-49 0 -79 14.5 t-47 35.5t-23 45t-6 44q0 60 28 96t71.5 55t96.5 25t103 6v19q0 22 -2.5 39.5t-10 30t-22 19t-39.5 6.5q-38 0 -54.5 -17t-24.5 -55l-128 25q6 37 21 66t41.5 49t65.5 30.5t92 10.5q105 0 157 -43t52 -141v-218z"/>
<glyph glyph-name="b" horiz-adv-x="592" unicode="b" d="M209 143q14 -11 38 -22.5t53 -11.5q51 0 74 39t23 120q0 31 -4.5 57.5t-15 45.5t-28 29.5t-44.5 10.5t-53 -12.5t-43 -27.5v-228zM59 0v755h148v-281q32 31 70.5 44.5t86.5 13.5q39 0 74 -13.5t61.5 -44.5t41.5 -80.5t15 -121.5q0 -77 -16.5 -130.5t-45.5 -88t-68.5 -50 t-86.5 -15.5q-48 0 -83.5 16t-59.5 40h-3l-7 -44h-127z"/>
<glyph glyph-name="c" horiz-adv-x="544" unicode="c" d="M285 -12q-65 0 -112.5 19.5t-78.5 54.5t-45.5 83.5t-14.5 106.5q0 135 69 207.5t197 72.5q94 0 151.5 -50.5t65.5 -146.5l-135 -20q-5 49 -22.5 75t-62.5 26q-21 0 -40.5 -6t-33.5 -22.5t-22.5 -45.5t-8.5 -74t7 -76t20.5 -50t32.5 -27.5t43 -8.5q44 0 67 22.5t30 72.5 l127 -24q-7 -49 -27 -84.5t-51 -59t-70.5 -34.5t-85.5 -11z"/>
<glyph glyph-name="d" horiz-adv-x="591" unicode="d" d="M384 383q-15 11 -36.5 20t-47.5 9q-29 0 -48.5 -12t-32.5 -33t-18.5 -49.5t-5.5 -62.5q0 -70 23 -109t77 -39q24 0 47.5 10t41.5 27v239zM534 0h-126l-9 51l-3 1q-27 -30 -64.5 -47t-89.5 -17q-46 0 -83.5 14.5t-64.5 46t-42 81.5t-15 120q0 78 19 132t50.5 87.5t70.5 48 t80 14.5q44 0 75.5 -10.5t56.5 -33.5v267h145v-755z"/>
<glyph glyph-name="e" horiz-adv-x="547" unicode="e" d="M357 319q0 57 -19.5 80.5t-56.5 23.5q-16 0 -31.5 -5.5t-27.5 -18t-19.5 -32.5t-7.5 -48h162zM289 -12q-72 0 -121 22.5t-79 60t-42.5 86.5t-12.5 102q0 70 20 121.5t55 85.5t81 50t99 16q59 0 101.5 -17.5t69.5 -49t40 -76t13 -98.5q0 -13 -0.5 -33.5t-2.5 -34.5h-317 q2 -65 28.5 -91.5t76.5 -26.5q41 0 59 20.5t26 53.5l127 -31q-14 -73 -70.5 -116.5t-150.5 -43.5z"/>
<glyph glyph-name="f" horiz-adv-x="366" unicode="f" d="M377 640q-15 5 -33.5 9t-36.5 4t-32.5 -3.5t-25 -12.5t-16.5 -26t-6 -44v-46h138v-110h-138v-411h-151v411h-70v110h70v60q0 48 14 83t39 57.5t60.5 33.5t78.5 11q41 0 71.5 -6.5t43.5 -12.5z"/>
<glyph glyph-name="g" horiz-adv-x="590" unicode="g" d="M384 381q-15 13 -38 22t-48 9q-28 0 -47.5 -11.5t-32 -31.5t-18 -48.5t-5.5 -62.5q0 -62 22 -101t78 -39q24 0 47.5 10t41.5 26v227zM534 22q0 -116 -64.5 -180.5t-206.5 -64.5q-97 0 -157.5 38t-80.5 113l126 50q4 -15 12.5 -30t23 -27t34 -19.5t46.5 -7.5 q24 0 46.5 4.5t39.5 17.5t27 36t10 59v44q-29 -28 -62.5 -42.5t-82.5 -14.5q-46 0 -84.5 16t-66 47.5t-42.5 79t-15 111.5q0 78 19 131.5t50.5 86.5t71 47.5t80.5 14.5q88 0 138 -59l14 48h124v-499z"/>
<glyph glyph-name="h" horiz-adv-x="583" unicode="h" d="M530 0h-151v329q0 42 -17 61t-52 19q-31 0 -59 -13.5t-43 -27.5v-368h-151v755h150v-282q28 22 66.5 40.5t94.5 18.5q85 0 123.5 -43t38.5 -133v-356z"/>
<glyph glyph-name="i" horiz-adv-x="268" unicode="i" d="M227 681q0 -44 -24 -68t-67 -24q-44 0 -67.5 24t-23.5 68t23.5 67.5t67.5 23.5q43 0 67 -23.5t24 -67.5zM211 0h-151v521h151v-521z"/>
<glyph glyph-name="j" horiz-adv-x="266" unicode="j" d="M227 684q0 -45 -23.5 -69t-67.5 -24q-43 0 -67 24t-24 69q0 44 24 67t67 23q44 0 67.5 -23t23.5 -67zM25 -223q-41 0 -75 9t-48 19l11 113q13 -6 35.5 -13t46.5 -7q27 0 46 15.5t19 62.5v545h151v-562q0 -49 -13.5 -83.5t-38 -56.5t-59 -32t-75.5 -10z"/>
<glyph glyph-name="k" horiz-adv-x="564" unicode="k" d="M210 339l172 182h167l-173 -187l186 -334h-167l-135 238l-50 -49v-189h-151v755h151v-416z"/>
<glyph glyph-name="l" horiz-adv-x="268" unicode="l" d="M211 0h-151v755h151v-755z"/>
<glyph glyph-name="m" horiz-adv-x="854" unicode="m" d="M208 0h-151v521h128l7 -49q31 26 69 43t89 17q47 0 81 -15t52 -50q28 29 68.5 47t93.5 18q156 0 156 -173v-359h-151v335q0 37 -13 56t-46 19q-21 0 -46.5 -10.5t-39.5 -25.5q0 -3 0.5 -6t0.5 -7v-361h-151v335q0 37 -13 56t-45 19q-23 0 -48.5 -11t-40.5 -26v-373z"/>
<glyph glyph-name="n" horiz-adv-x="583" unicode="n" d="M530 0h-151v330q0 42 -17 61t-52 19q-31 0 -59 -13.5t-43 -27.5v-369h-151v521h134l8 -52q29 26 70.5 44.5t95.5 18.5q87 0 126 -43t39 -133v-356z"/>
<glyph glyph-name="o" horiz-adv-x="587" unicode="o" d="M295 100q25 0 43.5 8.5t31.5 28t19.5 50.5t6.5 77q0 85 -24 119.5t-74 34.5q-51 0 -78.5 -35.5t-27.5 -120.5q0 -87 23.5 -124.5t79.5 -37.5zM288 -12q-71 0 -119.5 20t-78.5 56t-43 85.5t-13 108.5q0 63 16.5 113.5t49.5 86t83.5 55t118.5 19.5t115.5 -19.5t77.5 -54.5 t44 -83t14 -106q0 -64 -15 -116t-47.5 -88.5t-82.5 -56.5t-120 -20z"/>
<glyph glyph-name="p" horiz-adv-x="592" unicode="p" d="M208 144q11 -11 37 -23t54 -12q53 0 75.5 41.5t22.5 117.5q0 79 -23 111.5t-69 32.5q-26 0 -53 -13t-44 -27v-228zM59 521h128l9 -53q34 34 76.5 49t86.5 15q42 0 77.5 -13.5t62 -44.5t41.5 -80.5t15 -121.5q0 -78 -17 -132t-46 -87.5t-67.5 -49t-81.5 -15.5 q-48 0 -80.5 13.5t-57.5 36.5v-250h-146v733z"/>
<glyph glyph-name="q" horiz-adv-x="590" unicode="q" d="M384 381q-15 13 -38 22t-48 9q-56 0 -79.5 -43t-23.5 -111q0 -34 5 -61.5t17 -47t31 -30.5t47 -11q24 0 47.5 10t41.5 26v237zM534 -212h-144v257q-29 -28 -65 -42.5t-85 -14.5q-46 0 -83.5 14.5t-64 46.5t-41 82t-14.5 121q0 78 19 131.5t50.5 86.5t71 47.5t80.5 14.5 q89 0 138 -59l14 48h124v-733z"/>
<glyph glyph-name="r" horiz-adv-x="393" unicode="r" d="M387 384q-14 1 -28 1q-36 0 -77 -11t-74 -37v-337h-151v521h129l11 -82q26 38 65 65.5t99 27.5q6 0 12.5 -0.5t13.5 -0.5v-147z"/>
<glyph glyph-name="s" horiz-adv-x="501" unicode="s" d="M257 532q89 0 139 -36t69 -102l-124 -39q-10 33 -29 52t-61 19q-66 0 -66 -46q0 -14 8 -23.5t22 -15.5t33.5 -10t42.5 -8q34 -6 67 -14.5t58.5 -25t41.5 -45t16 -74.5q0 -45 -18 -78t-48.5 -54.5t-72.5 -32.5t-90 -11q-101 0 -154.5 39t-67.5 104l123 40q4 -15 11 -29 t19 -25.5t29.5 -18t44.5 -6.5q75 0 75 49q0 29 -25.5 38.5t-71.5 17.5q-34 6 -67.5 15t-60.5 26.5t-43.5 46.5t-16.5 77q0 43 17.5 75t47.5 53t69 31.5t83 10.5z"/>
<glyph glyph-name="t" horiz-adv-x="412" unicode="t" d="M404 25q-20 -13 -61.5 -25t-91.5 -12q-82 0 -124 39.5t-42 129.5v254h-78v110h78v154l151 20v-174h138v-110h-138v-233q0 -35 12.5 -52.5t48.5 -17.5q23 0 47 7.5t39 16.5z"/>
<glyph glyph-name="u" horiz-adv-x="578" unicode="u" d="M55 521h151v-329q0 -42 15 -61.5t51 -19.5q29 0 56.5 13.5t42.5 27.5v369h151v-521h-130l-11 56q-28 -32 -70 -49.5t-96 -17.5q-160 0 -160 173v359z"/>
<glyph glyph-name="v" horiz-adv-x="536" unicode="v" d="M180 0l-184 521h163l111 -376h4l111 376h155l-184 -521h-176z"/>
<glyph glyph-name="w" horiz-adv-x="813" unicode="w" d="M150 0l-154 521h151l95 -366h2l92 366h148l92 -364h3l91 364h147l-155 -521h-170l-84 340h-2l-77 -340h-179z"/>
<glyph glyph-name="x" horiz-adv-x="531" unicode="x" d="M350 268l175 -268h-161l-106 161l-103 -161h-145l170 261l-173 260h163l101 -159l104 159h145z"/>
<glyph glyph-name="y" horiz-adv-x="526" unicode="y" d="M-4 521h163l109 -363h3l105 363h155q-52 -146 -105.5 -293.5t-101.5 -278.5q-17 -46 -34.5 -78.5t-40 -53.5t-52 -30.5t-69.5 -9.5q-31 0 -64 7t-50 15l11 109q21 -7 41.5 -11.5t37.5 -4.5q26 0 44 13t30 43l16 41z"/>
<glyph glyph-name="z" horiz-adv-x="466" unicode="z" d="M199 121h246v-121h-418v107l240 301h-238v113h402v-107z"/>
<glyph glyph-name="braceleft" horiz-adv-x="337" unicode="{" d="M304 -145h-76q-155 0 -155 130q0 45 7 91t7 100q0 35 -15 53.5t-49 18.5h-21v92h21q35 0 49.5 19t14.5 53q0 54 -7 103t-7 92q0 68 39 99t116 31h76v-101h-22q-29 0 -38 -12.5t-9 -35.5q0 -45 7.5 -93t7.5 -93q0 -50 -22 -72t-62 -37q20 -7 35.5 -15.5t26.5 -20.5 t16.5 -29t5.5 -41q0 -46 -7.5 -91.5t-7.5 -89.5q0 -23 9.5 -36.5t41.5 -13.5h18v-101z"/>
<glyph glyph-name="bar" horiz-adv-x="280" unicode="|" d="M72 -143v898h137v-898h-137z"/>
<glyph glyph-name="braceright" horiz-adv-x="337" unicode="}" d="M33 737h76q155 0 155 -130q0 -45 -7 -91t-7 -100q0 -35 15 -53.5t49 -18.5h21v-92h-21q-35 0 -49.5 -19t-14.5 -53q0 -54 7 -103t7 -92q0 -68 -39 -99t-116 -31h-76v101h22q29 0 38 12.5t9 35.5q0 45 -7.5 93t-7.5 93q0 50 22 72t62 37q-20 7 -35.5 15.5t-26.5 20.5 t-16.5 29t-5.5 41q0 46 7.5 91.5t7.5 89.5q0 23 -9.5 36.5t-41.5 13.5h-18v101z"/>
<glyph glyph-name="asciitilde" horiz-adv-x="600" unicode="~" d="M176 450q24 0 59 -7t70 -15t66 -15t48 -7t23.5 9.5t6.5 34.5l83 -4q2 -16 2 -30t-2 -28q-4 -26 -16 -46t-32.5 -31.5t-49.5 -11.5q-26 0 -61.5 7t-71.5 15t-67 15t-47 7q-16 1 -24 -9q-5 -6 -5 -21q0 -7 1 -17l-89 3q-2 15 -2 29q0 48 21 80q27 42 87 42z"/>
<glyph glyph-name="uni00A0" horiz-adv-x="174" unicode=" "/>
<glyph glyph-name="exclamdown" horiz-adv-x="290" unicode="¡" d="M59.0283 452.008q0 37.9961 21.998 58.9932q21.9971 20.9971 66.9912 20.9971q89.9893 0 89.9893 -79.9902q0 -38.9951 -22.4971 -59.9922t-67.4922 -20.9971q-44.9941 0 -66.9912 20.9971q-21.998 20.9971 -21.998 59.9922zM211.01 323.024l18.998 -526.937h-163.98 l18.998 526.937h125.984z"/>
<glyph glyph-name="cent" horiz-adv-x="537" unicode="¢" d="M355 711v-104q66 -12 107 -58.5t47 -120.5l-136 -20q-5 46 -21.5 68t-54.5 22q-21 0 -38.5 -5.5t-31 -20.5t-21 -40.5t-7.5 -65.5q0 -71 22 -107t76 -36q42 0 61 20.5t27 66.5l126 -23q-11 -75 -55 -118.5t-109 -56.5v-112h-127v112q-89 17 -132.5 82t-43.5 157 q0 106 48.5 170.5t135.5 83.5v106h127z"/>
<glyph glyph-name="sterling" horiz-adv-x="593" unicode="£" d="M75 120q35 31 51.5 58t16.5 65q0 32 -17 69h-96v110h65q-12 21 -26 51.5t-14 69.5q0 43 17 79t49.5 61.5t78.5 39.5t104 14q100 0 159 -43.5t75 -147.5l-134 -23q-3 21 -9 39.5t-17 32.5t-29 22t-45 8q-92 0 -92 -84q0 -32 13 -62t27 -57h193v-110h-165q11 -28 11 -60 q0 -38 -13.5 -68.5t-47.5 -63.5h105q31 0 51 5t33 16t19.5 29.5t11.5 44.5l127 -22q-8 -101 -62 -147t-166 -46h-333v120h59z"/>
<glyph glyph-name="currency" horiz-adv-x="570" unicode="¤" d="M274 163q50 0 75 34t25 83q0 54 -25.5 84t-77.5 30q-50 0 -75 -32t-25 -82q0 -49 24.5 -83t78.5 -34zM475 -4l-87 86q-24 -14 -53.5 -22t-65.5 -8t-67 9t-54 23q-7 -8 -19.5 -20.5l-26 -26l-25 -25l-16.5 -16.5l-80 82l91 91q-12 25 -18 53.5t-6 57.5q0 55 26 104l-90 89 l83 84l85 -84q53 33 124 33q74 0 122 -30l82 80l78 -82l-84 -85q23 -48 23 -105q0 -30 -7.5 -60t-21.5 -56l90 -89z"/>
<glyph glyph-name="yen" horiz-adv-x="574" unicode="¥" d="M407 417h88v-94h-129v-69h129v-94h-129v-160h-151v160h-127v94h127v69h-127v94h83l-159 307h162l119 -253h4l115 253h151z"/>
<glyph glyph-name="brokenbar" horiz-adv-x="280" unicode="¦" d="M72 417v338h137v-338h-137zM72 -143v388h137v-388h-137z"/>
<glyph glyph-name="section" horiz-adv-x="569" unicode="§" d="M176 270q0 -25 15.5 -40.5t41 -26t57 -19t63.5 -20.5q20 12 32.5 27.5t12.5 35.5q0 24 -16.5 38.5t-43 25t-59 19t-64.5 21.5q-39 -25 -39 -61zM41 236q0 46 22.5 81t67.5 64q-23 22 -40.5 54t-17.5 80q0 46 18.5 82t51 61t75 38t90.5 13q43 0 80.5 -10t66.5 -32.5 t47.5 -58t23.5 -86.5l-130 -15q-4 46 -24.5 70.5t-68.5 24.5q-39 0 -62 -17t-23 -50q0 -34 23.5 -52.5t58.5 -31.5t75.5 -24.5t75.5 -30.5t58.5 -50t23.5 -83q0 -46 -24 -83.5t-66 -67.5q23 -21 40 -52.5t17 -78.5q0 -46 -16.5 -82.5t-47 -61.5t-74 -38t-96.5 -13 q-44 0 -81.5 10t-67 32t-48 57t-23.5 86l131 15q4 -46 24.5 -70.5t68.5 -24.5q39 0 62.5 18t23.5 52t-23.5 51.5t-58.5 29.5t-75.5 22.5t-75.5 30t-58.5 52.5t-23.5 89z"/>
<glyph glyph-name="dieresis" d="M456 679q0 -38 -24 -60.5t-64 -22.5q-41 0 -65.5 22.5t-24.5 60.5t24.5 61t65.5 23q40 0 64 -23t24 -61zM221 679q0 -38 -24.5 -60.5t-63.5 -22.5q-41 0 -66 22.5t-25 60.5t25 61t66 23q39 0 63.5 -23t24.5 -61z" unicode="¨"/>
<glyph glyph-name="copyright" horiz-adv-x="802" unicode="©" d="M565 268q-5 -39 -22.5 -64t-40.5 -39.5t-48.5 -20t-47.5 -5.5q-48 0 -82 14.5t-55.5 41t-31 62t-9.5 77.5t12 78t35 61.5t57 40t78 14.5q29 0 55.5 -8t47 -24.5t33.5 -41.5t15 -60l-73 -8q-5 40 -24.5 58t-57.5 18q-41 0 -68.5 -29.5t-27.5 -100.5q0 -26 4.5 -49 t16 -40.5t30 -28t45.5 -10.5q42 0 61.5 21t26.5 56zM403 67q62 0 111.5 18.5t84 53t52.5 84t18 111.5q0 65 -20 114.5t-55 83t-84 50.5t-107 17q-57 0 -106 -18t-85 -53t-56 -85.5t-20 -115.5q0 -122 70 -191t197 -69zM753 340q0 -79 -26 -144t-72.5 -111t-111 -71.5 t-142.5 -25.5q-87 0 -152.5 26t-110 71t-66.5 107t-22 134q0 82 27.5 147.5t75.5 110.5t112.5 69t137.5 24q81 0 146 -24t110.5 -68t69.5 -106t24 -139z"/>
<glyph glyph-name="ordfeminine" horiz-adv-x="397" unicode="ª" d="M227 422q-10 0 -24 -0.5t-27 -4.5t-22.5 -11.5t-9.5 -22.5q0 -13 7.5 -21.5t28.5 -8.5q16 0 28 6t19 12v51zM341 378q0 -18 8 -23.5t30 1.5l3 -66q-11 -5 -28.5 -9t-35.5 -4q-32 0 -52.5 10.5t-27.5 36.5q-17 -21 -42 -34.5t-63 -13.5q-33 0 -54 9.5t-33 23.5t-16 30 t-4 29q0 40 20.5 63.5t50.5 35t65 15t64 3.5v13q0 22 -6.5 37.5t-37.5 15.5q-22 0 -32.5 -11t-14.5 -35l-100 18q4 24 14.5 44t29.5 35t46.5 23t65.5 8q75 0 112.5 -28.5t37.5 -92.5v-134z"/>
<glyph glyph-name="guillemotleft" horiz-adv-x="464" unicode="«" d="M123 103l-86 154l89 151h122l-88 -147l84 -158h-121zM309 103l-86 154l89 151h122l-88 -147l84 -158h-121z"/>
<glyph glyph-name="logicalnot" horiz-adv-x="570" unicode="¬" d="M361 170v95h-276v119h387v-214h-111z"/>
<glyph glyph-name="uni00AD" horiz-adv-x="311" unicode="­" d="M20 227v129h271v-129h-271z"/>
<glyph glyph-name="registered" horiz-adv-x="465" unicode="®" d="M228 487q16 0 25.5 5.5t9.5 20.5q0 14 -9 19t-21 5h-18v-50h13zM327 382h-53l-42 71h-17v-71h-47v190h71q42 0 57 -17t15 -38q0 -22 -10.5 -33.5t-24.5 -16.5zM375 471q0 70 -40.5 106t-101.5 36q-30 0 -55.5 -10t-45 -28.5t-30.5 -45.5t-11 -61q0 -65 38 -102t104 -37 t104 38t38 104zM425 474q0 -43 -14 -78.5t-39.5 -61t-61.5 -39.5t-79 -14q-47 0 -82.5 14.5t-59.5 39t-36.5 58.5t-12.5 73q0 45 15 81t41.5 61t61.5 38.5t75 13.5q44 0 79.5 -13.5t60.5 -37.5t38.5 -58.5t13.5 -76.5z"/>
<glyph glyph-name="macron" d="M94 601v102h311v-102h-311z" unicode="¯"/>
<glyph glyph-name="degree" horiz-adv-x="358" unicode="°" d="M298 632q0 -54 -32.5 -86t-84.5 -32q-54 0 -86.5 31.5t-32.5 83.5q0 28 9.5 50t25.5 37.5t38 24t46 8.5q49 0 83 -31.5t34 -85.5zM181 580q21 0 34.5 14.5t13.5 37.5t-14 37t-34 14t-35 -14.5t-15 -39.5q0 -21 13.5 -35t36.5 -14z"/>
<glyph glyph-name="plusminus" horiz-adv-x="570" unicode="±" d="M224 144v120h-133v119h133v139h120v-139h134v-119h-134v-120h-120zM91 0v119h387v-119h-387z"/>
<glyph glyph-name="twosuperior" horiz-adv-x="405" unicode="²" d="M203 809q83 0 120.5 -33.5t37.5 -86.5q0 -27 -8 -49.5t-24.5 -45t-42 -46.5t-61.5 -54l-32 -33v-4h175v-108h-327v108l97 97q25 25 42.5 44t28 33t15 25.5t4.5 23.5q0 34 -34 34q-43 0 -50 -57l-114 15q4 36 19 62t38.5 42.5t53 24.5t62.5 8z"/>
<glyph glyph-name="threesuperior" horiz-adv-x="412" unicode="³" d="M136 487q3 -28 16 -39t36 -11q21 0 34.5 11.5t13.5 36.5q0 27 -12.5 38.5t-44.5 11.5h-50v86h31q36 0 53 16t17 43q0 17 -9 26.5t-29 9.5q-21 0 -32.5 -12t-16.5 -35l-110 20q6 35 23 58t40 37t51.5 19.5t57.5 5.5q74 0 114.5 -27.5t40.5 -81.5q0 -23 -7.5 -40.5 t-19.5 -30t-27.5 -22t-32.5 -15.5v-3q98 -20 98 -107q0 -34 -13.5 -60t-38 -44t-57.5 -27t-72 -9q-29 0 -57 5.5t-51 20t-39.5 38.5t-20.5 60z"/>
<glyph glyph-name="acute" d="M272 572l-101 9l75 162h161z" unicode="´"/>
<glyph glyph-name="mu" horiz-adv-x="629" unicode="µ" d="M81 521h151v-330q0 -43 11.5 -62.5t43.5 -19.5t58.5 14.5t43.5 28.5v369h151v-521h-125l-5 54h-5q-35 -34 -77 -50q-25 -9 -56 -9q-21 0 -44 4l-1 -1l10 -174h-156v697z"/>
<glyph glyph-name="paragraph" horiz-adv-x="601" unicode="¶" d="M530 -133h-105v763h-66v-763h-105v377q-111 7 -163.5 67.5t-52.5 163.5q0 69 22 116.5t60 77t89.5 42.5t110.5 13h209z"/>
<glyph glyph-name="periodcentered" horiz-adv-x="238" unicode="·" d="M205 309q0 -79 -85 -79q-86 0 -86 79q0 80 86 80q85 0 85 -80z"/>
<glyph glyph-name="cedilla" d="M151 -162q12 -3 23.5 -5t24.5 -2q23 0 36.5 8.5t13.5 28.5q0 23 -17 29.5t-47 7.5l16 125l72 -8l-9 -67q16 -3 31.5 -9t27.5 -17t19 -27t7 -39q0 -55 -37.5 -82t-93.5 -27q-46 0 -82 14z" unicode="¸"/>
<glyph glyph-name="onesuperior" horiz-adv-x="328" unicode="¹" d="M137 347v314q-8 -4 -22 -7t-29 -5.5t-28.5 -4t-21.5 -1.5l-5 104q42 3 80 15.5t62 36.5h97v-452h-133z"/>
<glyph glyph-name="ordmasculine" horiz-adv-x="416" unicode="º" d="M208 358q31 0 45.5 21t14.5 78q0 53 -13.5 73t-44.5 20t-46.5 -21t-15.5 -73q0 -53 13.5 -75.5t46.5 -22.5zM203 276q-50 0 -84 13t-55 36.5t-30 56t-9 71.5q0 83 45.5 131.5t142.5 48.5q48 0 82 -13t55.5 -35.5t31 -54.5t9.5 -69q0 -85 -44.5 -135t-143.5 -50z"/>
<glyph glyph-name="guillemotright" horiz-adv-x="464" unicode="»" d="M153 408l89 -153l-87 -152h-120l84 153l-88 152h122zM339 408l89 -153l-87 -152h-120l84 153l-88 152h122z"/>
<glyph glyph-name="onequarter" horiz-adv-x="1012" unicode="¼" d="M233 -12l354 736h138l-353 -736h-139zM153 281v314q-8 -4 -22 -7t-29 -5.5t-28.5 -4t-21.5 -1.5l-5 104q42 3 80 15.5t62 36.5h97v-452h-133zM784 194v150l-98 -150h98zM784 2v92h-208v89l176 271h159v-260h52v-100h-51v-92h-128z"/>
<glyph glyph-name="onehalf" horiz-adv-x="1012" unicode="½" d="M228 -12l354 736h138l-353 -736h-139zM156 281v314q-8 -4 -22 -7t-29 -5.5t-28.5 -4t-21.5 -1.5l-5 104q42 3 80 15.5t62 36.5h97v-452h-133zM787 462q83 0 120.5 -33.5t37.5 -86.5q0 -27 -8 -49.5t-24.5 -45t-42 -46.5t-61.5 -54l-32 -33v-4h175v-108h-327v108l97 97 q25 25 42.5 44t28 33t15 25.5t4.5 23.5q0 34 -34 34q-43 0 -50 -57l-114 15q4 36 19 62t38.5 42.5t53 24.5t62.5 8z"/>
<glyph glyph-name="threequarters" horiz-adv-x="1012" unicode="¾" d="M265 -12l354 736h138l-353 -736h-139zM796 194v150l-98 -150h98zM796 2v92h-208v89l176 271h159v-260h52v-100h-51v-92h-128zM154 421q3 -28 16 -39t36 -11q21 0 34.5 11.5t13.5 36.5q0 27 -12.5 38.5t-44.5 11.5h-50v86h31q36 0 53 16t17 43q0 17 -9 26.5t-29 9.5 q-21 0 -32.5 -12t-16.5 -35l-110 20q6 35 23 58t40 37t51.5 19.5t57.5 5.5q74 0 114.5 -27.5t40.5 -81.5q0 -23 -7.5 -40.5t-19.5 -30t-27.5 -22t-32.5 -15.5v-3q98 -20 98 -107q0 -34 -13.5 -60t-38 -44t-57.5 -27t-72 -9q-29 0 -57 5.5t-51 20t-39.5 38.5t-20.5 60z"/>
<glyph glyph-name="questiondown" horiz-adv-x="536" unicode="¿" d="M224.039 452.008q0 37.9961 21.9971 58.9932t66.9912 20.9971q88.9893 0 88.9893 -79.9902q0 -38.9951 -21.9971 -59.9922t-66.9922 -20.9971q-44.9941 0 -66.9912 20.9971t-21.9971 59.9922zM386.019 323.024v-182.978q-35.9951 -3 -71.9912 -10.499 q-35.9951 -7.49902 -63.9922 -23.4971q-27.9961 -15.998 -45.4941 -41.9951t-17.498 -65.9922q0 -47.9941 24.4971 -67.4912q24.4971 -19.498 62.4922 -19.498q46.9951 0 71.9912 24.9971q24.9971 24.9971 33.9961 78.9902l146.982 -22.9971 q-11.999 -95.9883 -77.9902 -150.981q-65.9922 -54.9932 -182.979 -54.9932q-45.9941 0 -88.9883 10.498q-42.9951 10.499 -75.9912 35.4961t-52.9932 65.9922q-19.998 40.9951 -19.998 101.987q0 94.9883 54.4932 151.981t153.481 79.9902v90.9893h149.981z"/>
<glyph glyph-name="Agrave" horiz-adv-x="709" unicode="À" d="M348 579h-4l-89 -280h183zM443 724l256 -724h-169l-60 176h-241l-56 -176h-159l237 724h192zM180 916h162l91 -140l-107 -8z"/>
<glyph glyph-name="Aacute" horiz-adv-x="709" unicode="Á" d="M348 579h-4l-89 -280h183zM443 724l256 -724h-169l-60 176h-241l-56 -176h-159l237 724h192zM365 768l-107 8l91 140h162z"/>
<glyph glyph-name="Acircumflex" horiz-adv-x="709" unicode="Â" d="M348 579h-4l-89 -280h183zM443 724l256 -724h-169l-60 176h-241l-56 -176h-159l237 724h192zM348 841l-75 -73l-102 7l107 142h140l102 -142l-100 -6z"/>
<glyph glyph-name="Atilde" horiz-adv-x="709" unicode="Ã" d="M348 579h-4l-89 -280h183zM443 724l256 -724h-169l-60 176h-241l-56 -176h-159l237 724h192zM271 930q24 0 44 -6.5t37.5 -15t33.5 -15t33 -6.5t23.5 9.5t6.5 34.5l76 -4q2 -15 2 -28q1 -43 -17 -73q-22 -40 -76 -40q-26 0 -47 7t-39 15t-34 15t-32 7t-24 -10 q-5 -6 -5 -20q0 -7 1 -17l-82 3q-2 15 -2 28q0 47 22 77q28 39 79 39z"/>
<glyph glyph-name="Adieresis" horiz-adv-x="709" unicode="Ä" d="M348 579h-4l-89 -280h183zM443 724l256 -724h-169l-60 176h-241l-56 -176h-159l237 724h192zM552 858q0 -38 -24 -60.5t-64 -22.5q-41 0 -65.5 22.5t-24.5 60.5t24.5 61t65.5 23q40 0 64 -23t24 -61zM317 858q0 -38 -24.5 -60.5t-63.5 -22.5q-41 0 -66 22.5t-25 60.5 t25 61t66 23q39 0 63.5 -23t24.5 -61z"/>
<glyph glyph-name="Aring" horiz-adv-x="709" unicode="Å" d="M346 747q23 0 37 13t14 40q0 26 -14 38t-37 12t-38.5 -12.5t-15.5 -38.5t14.5 -39t39.5 -13zM348 579h-4l-89 -280h183zM472 798q0 -49 -27 -79l254 -719h-169l-60 176h-241l-56 -176h-159l234 717q-27 30 -27 76q0 30 10 53t27 38t39.5 22.5t48.5 7.5t49 -7.5t40 -22 t27 -36t10 -50.5z"/>
<glyph glyph-name="AE" horiz-adv-x="1003" unicode="Æ" d="M490 594h-43l-90 -186h133v186zM644 130h324v-130h-478v286h-178l-136 -286h-163l353 724h583v-130h-305v-181h287v-125h-287v-158z"/>
<glyph glyph-name="Ccedilla" horiz-adv-x="695" unicode="Ç" d="M282 -162q12 -3 23.5 -5t24.5 -2q23 0 36.5 8.5t13.5 28.5q0 23 -17 29.5t-47 7.5l11 85q-78 6 -132.5 34.5t-89.5 75.5t-51 111t-16 143q0 86 22.5 156.5t67 121t109.5 78t150 27.5q61 0 112 -15t88.5 -46.5t59.5 -81t25 -117.5l-141 -12q-7 78 -41.5 111.5t-104.5 33.5 q-89 0 -138.5 -59.5t-49.5 -188.5q0 -67 11.5 -114t34 -76.5t55.5 -43t76 -13.5q39 0 66 9.5t45 27t29 41t17 52.5l139 -24q-8 -60 -34.5 -103t-63.5 -70.5t-82 -41.5t-91 -17l-4 -34q16 -3 31.5 -9t27.5 -17t19 -27t7 -39q0 -55 -37.5 -82t-93.5 -27q-46 0 -82 14z"/>
<glyph glyph-name="Egrave" horiz-adv-x="583" unicode="È" d="M228 130h323v-130h-477v724h459v-129h-305v-170h287v-126h-287v-169zM141 916h162l91 -140l-107 -8z"/>
<glyph glyph-name="Eacute" horiz-adv-x="583" unicode="É" d="M228 130h323v-130h-477v724h459v-129h-305v-170h287v-126h-287v-169zM326 768l-107 8l91 140h162z"/>
<glyph glyph-name="Ecircumflex" horiz-adv-x="583" unicode="Ê" d="M228 130h323v-130h-477v724h459v-129h-305v-170h287v-126h-287v-169zM309 841l-75 -73l-102 7l107 142h140l102 -142l-100 -6z"/>
<glyph glyph-name="Edieresis" horiz-adv-x="583" unicode="Ë" d="M228 130h323v-130h-477v724h459v-129h-305v-170h287v-126h-287v-169zM513 858q0 -38 -24 -60.5t-64 -22.5q-41 0 -65.5 22.5t-24.5 60.5t24.5 61t65.5 23q40 0 64 -23t24 -61zM278 858q0 -38 -24.5 -60.5t-63.5 -22.5q-41 0 -66 22.5t-25 60.5t25 61t66 23q39 0 63.5 -23 t24.5 -61z"/>
<glyph glyph-name="Igrave" horiz-adv-x="302" unicode="Ì" d="M228 0h-154v724h154v-724zM-13 916h162l91 -140l-107 -8z"/>
<glyph glyph-name="Iacute" horiz-adv-x="302" unicode="Í" d="M228 0h-154v724h154v-724zM172 768l-107 8l91 140h162z"/>
<glyph glyph-name="Icircumflex" horiz-adv-x="302" unicode="Î" d="M228 0h-154v724h154v-724zM155 841l-75 -73l-102 7l107 142h140l102 -142l-100 -6z"/>
<glyph glyph-name="Idieresis" horiz-adv-x="302" unicode="Ï" d="M228 0h-154v724h154v-724zM359 858q0 -38 -24 -60.5t-64 -22.5q-41 0 -65.5 22.5t-24.5 60.5t24.5 61t65.5 23q40 0 64 -23t24 -61zM124 858q0 -38 -24.5 -60.5t-63.5 -22.5q-41 0 -66 22.5t-25 60.5t25 61t66 23q39 0 63.5 -23t24.5 -61z"/>
<glyph glyph-name="Eth" horiz-adv-x="724" unicode="Ð" d="M304 124q63 0 106 16.5t69.5 47.5t38 76t11.5 101q0 67 -13 112.5t-40 72.5t-67 38.5t-94 11.5h-87v-166h171v-129h-171v-181h76zM74 0v305h-67v129h67v290h254q94 0 162 -24.5t111.5 -70t64.5 -110.5t21 -146q0 -83 -22.5 -152t-68.5 -118t-117 -76t-168 -27h-237z"/>
<glyph glyph-name="Ntilde" horiz-adv-x="745" unicode="Ñ" d="M494 0l-279 511v-511h-141v724h184l274 -513v513h140v-724h-178zM297 930q24 0 44 -6.5t37.5 -15t33.5 -15t33 -6.5t23.5 9.5t6.5 34.5l76 -4q2 -15 2 -28q1 -43 -17 -73q-22 -40 -76 -40q-26 0 -47 7t-39 15t-34 15t-32 7t-24 -10q-5 -6 -5 -20q0 -7 1 -17l-82 3 q-2 15 -2 28q0 47 22 77q28 39 79 39z"/>
<glyph glyph-name="Ograve" horiz-adv-x="760" unicode="Ò" d="M381 118q40 0 74 13.5t58 42.5t37.5 76t13.5 114q0 126 -46 184.5t-130 58.5q-88 0 -139.5 -59.5t-51.5 -185.5q0 -65 12.5 -111t36.5 -75.5t58 -43.5t77 -14zM375 -12q-90 0 -153.5 27.5t-104.5 77t-60 117.5t-19 149t22 150t66.5 119.5t110.5 79.5t154 29t151 -28.5 t103 -78t59 -116t19 -141.5q0 -88 -21.5 -159t-64.5 -121.5t-108.5 -77.5t-153.5 -27zM224 916h162l91 -140l-107 -8z"/>
<glyph glyph-name="Oacute" horiz-adv-x="760" unicode="Ó" d="M381 118q40 0 74 13.5t58 42.5t37.5 76t13.5 114q0 126 -46 184.5t-130 58.5q-88 0 -139.5 -59.5t-51.5 -185.5q0 -65 12.5 -111t36.5 -75.5t58 -43.5t77 -14zM375 -12q-90 0 -153.5 27.5t-104.5 77t-60 117.5t-19 149t22 150t66.5 119.5t110.5 79.5t154 29t151 -28.5 t103 -78t59 -116t19 -141.5q0 -88 -21.5 -159t-64.5 -121.5t-108.5 -77.5t-153.5 -27zM409 768l-107 8l91 140h162z"/>
<glyph glyph-name="Ocircumflex" horiz-adv-x="760" unicode="Ô" d="M381 118q40 0 74 13.5t58 42.5t37.5 76t13.5 114q0 126 -46 184.5t-130 58.5q-88 0 -139.5 -59.5t-51.5 -185.5q0 -65 12.5 -111t36.5 -75.5t58 -43.5t77 -14zM375 -12q-90 0 -153.5 27.5t-104.5 77t-60 117.5t-19 149t22 150t66.5 119.5t110.5 79.5t154 29t151 -28.5 t103 -78t59 -116t19 -141.5q0 -88 -21.5 -159t-64.5 -121.5t-108.5 -77.5t-153.5 -27zM392 841l-75 -73l-102 7l107 142h140l102 -142l-100 -6z"/>
<glyph glyph-name="Otilde" horiz-adv-x="760" unicode="Õ" d="M381 118q40 0 74 13.5t58 42.5t37.5 76t13.5 114q0 126 -46 184.5t-130 58.5q-88 0 -139.5 -59.5t-51.5 -185.5q0 -65 12.5 -111t36.5 -75.5t58 -43.5t77 -14zM375 -12q-90 0 -153.5 27.5t-104.5 77t-60 117.5t-19 149t22 150t66.5 119.5t110.5 79.5t154 29t151 -28.5 t103 -78t59 -116t19 -141.5q0 -88 -21.5 -159t-64.5 -121.5t-108.5 -77.5t-153.5 -27zM315 930q24 0 44 -6.5t37.5 -15t33.5 -15t33 -6.5t23.5 9.5t6.5 34.5l76 -4q2 -15 2 -28q1 -43 -17 -73q-22 -40 -76 -40q-26 0 -47 7t-39 15t-34 15t-32 7t-24 -10q-5 -6 -5 -20 q0 -7 1 -17l-82 3q-2 15 -2 28q0 47 22 77q28 39 79 39z"/>
<glyph glyph-name="Odieresis" horiz-adv-x="760" unicode="Ö" d="M381 118q40 0 74 13.5t58 42.5t37.5 76t13.5 114q0 126 -46 184.5t-130 58.5q-88 0 -139.5 -59.5t-51.5 -185.5q0 -65 12.5 -111t36.5 -75.5t58 -43.5t77 -14zM375 -12q-90 0 -153.5 27.5t-104.5 77t-60 117.5t-19 149t22 150t66.5 119.5t110.5 79.5t154 29t151 -28.5 t103 -78t59 -116t19 -141.5q0 -88 -21.5 -159t-64.5 -121.5t-108.5 -77.5t-153.5 -27zM596 858q0 -38 -24 -60.5t-64 -22.5q-41 0 -65.5 22.5t-24.5 60.5t24.5 61t65.5 23q40 0 64 -23t24 -61zM361 858q0 -38 -24.5 -60.5t-63.5 -22.5q-41 0 -66 22.5t-25 60.5t25 61t66 23 q39 0 63.5 -23t24.5 -61z"/>
<glyph glyph-name="multiply" horiz-adv-x="570" unicode="×" d="M285 235l-99 -99l-84 87l99 98l-99 99l84 87l99 -99l99 99l84 -87l-99 -99l99 -98l-84 -87z"/>
<glyph glyph-name="Oslash" horiz-adv-x="760" unicode="Ø" d="M381 118q40 0 74 13.5t58 42.5t37.5 76t13.5 114q0 57 -10 100t-29 73l-174 -418q8 -1 15 -1h15zM197 362q0 -59 10 -102t30 -73l174 418q-5 1 -11 1.5t-12 0.5q-88 0 -139.5 -59.5t-51.5 -185.5zM375 -12q-40 0 -76 6l-27 -66h-143l46 112q-72 48 -104.5 130.5 t-32.5 188.5q0 81 22 150t66.5 119.5t110.5 79.5t154 29q39 0 72 -6l27 63h142l-46 -110q71 -48 104 -130t33 -181q0 -88 -21.5 -159t-64.5 -121.5t-108.5 -77.5t-153.5 -27z"/>
<glyph glyph-name="Ugrave" horiz-adv-x="708" unicode="Ù" d="M356 117q38 0 63.5 9.5t40.5 29.5t21.5 51.5t6.5 75.5v441h154v-463q0 -72 -20 -123.5t-58 -85t-92 -49t-122 -15.5q-150 0 -217.5 67.5t-67.5 209.5v459h155v-438q0 -42 6 -74t21.5 -53t42 -31.5t66.5 -10.5zM187 916h162l91 -140l-107 -8z"/>
<glyph glyph-name="Uacute" horiz-adv-x="708" unicode="Ú" d="M356 117q38 0 63.5 9.5t40.5 29.5t21.5 51.5t6.5 75.5v441h154v-463q0 -72 -20 -123.5t-58 -85t-92 -49t-122 -15.5q-150 0 -217.5 67.5t-67.5 209.5v459h155v-438q0 -42 6 -74t21.5 -53t42 -31.5t66.5 -10.5zM380 768l-107 8l91 140h162z"/>
<glyph glyph-name="Ucircumflex" horiz-adv-x="708" unicode="Û" d="M356 117q38 0 63.5 9.5t40.5 29.5t21.5 51.5t6.5 75.5v441h154v-463q0 -72 -20 -123.5t-58 -85t-92 -49t-122 -15.5q-150 0 -217.5 67.5t-67.5 209.5v459h155v-438q0 -42 6 -74t21.5 -53t42 -31.5t66.5 -10.5zM355 841l-75 -73l-102 7l107 142h140l102 -142l-100 -6z"/>
<glyph glyph-name="Udieresis" horiz-adv-x="708" unicode="Ü" d="M356 117q38 0 63.5 9.5t40.5 29.5t21.5 51.5t6.5 75.5v441h154v-463q0 -72 -20 -123.5t-58 -85t-92 -49t-122 -15.5q-150 0 -217.5 67.5t-67.5 209.5v459h155v-438q0 -42 6 -74t21.5 -53t42 -31.5t66.5 -10.5zM559 858q0 -38 -24 -60.5t-64 -22.5q-41 0 -65.5 22.5 t-24.5 60.5t24.5 61t65.5 23q40 0 64 -23t24 -61zM324 858q0 -38 -24.5 -60.5t-63.5 -22.5q-41 0 -66 22.5t-25 60.5t25 61t66 23q39 0 63.5 -23t24.5 -61z"/>
<glyph glyph-name="Yacute" horiz-adv-x="606" unicode="Ý" d="M388 0h-155v271l-251 453h169l159 -310h5l153 310h156l-236 -451v-273zM327 768l-107 8l91 140h162z"/>
<glyph glyph-name="Thorn" horiz-adv-x="621" unicode="Þ" d="M289 252q30 0 55.5 4.5t45 18t30.5 37.5t11 64q0 32 -10 53t-27 33t-41 17t-52 5h-74v-232h62zM227 0h-153v724h153v-116h121q69 0 115.5 -19t74.5 -50t39.5 -71t11.5 -81q0 -259 -283 -259h-79v-128z"/>
<glyph glyph-name="germandbls" horiz-adv-x="656" unicode="ß" d="M57 0v513q0 72 20 120.5t55.5 78.5t84 43t105.5 13q117 0 181.5 -50t64.5 -142q0 -38 -10.5 -66t-27 -48.5t-35.5 -33.5t-37 -20v-3q31 -7 60.5 -19.5t52 -35t36 -58t13.5 -87.5q0 -43 -12.5 -82t-39 -69t-67 -48t-96.5 -18q-48 0 -94 14.5t-79 57.5l57 92 q14 -17 39.5 -35t57.5 -18q37 0 59.5 26.5t22.5 89.5q0 36 -11 59t-29.5 36.5t-43 18.5t-52.5 5h-35v108h17q29 0 48.5 8.5t31.5 23.5t17.5 35t5.5 44q0 57 -27.5 82t-72.5 25q-24 0 -44.5 -6t-34.5 -21t-22 -41.5t-8 -68.5v-523h-151z"/>
<glyph glyph-name="agrave" horiz-adv-x="558" unicode="à" d="M334 221h-24q-27 -1 -50 -4.5t-39.5 -11t-25.5 -20.5t-9 -33q0 -23 12.5 -40t48.5 -17q27 0 51 11t36 23v92zM481 130q0 -21 5.5 -30.5t25.5 -9.5q11 0 31 6l4 -87q-15 -8 -43.5 -14t-52.5 -6q-45 0 -72 14.5t-35 51.5q-25 -32 -63 -49.5t-92 -17.5q-49 0 -79 14.5 t-47 35.5t-23 45t-6 44q0 60 28 96t71.5 55t96.5 25t103 6v19q0 22 -2.5 39.5t-10 30t-22 19t-39.5 6.5q-38 0 -54.5 -17t-24.5 -55l-128 25q6 37 21 66t41.5 49t65.5 30.5t92 10.5q105 0 157 -43t52 -141v-218zM115 743h162l74 -162l-101 -9z"/>
<glyph glyph-name="aacute" horiz-adv-x="558" unicode="á" d="M334 221h-24q-27 -1 -50 -4.5t-39.5 -11t-25.5 -20.5t-9 -33q0 -23 12.5 -40t48.5 -17q27 0 51 11t36 23v92zM481 130q0 -21 5.5 -30.5t25.5 -9.5q11 0 31 6l4 -87q-15 -8 -43.5 -14t-52.5 -6q-45 0 -72 14.5t-35 51.5q-25 -32 -63 -49.5t-92 -17.5q-49 0 -79 14.5 t-47 35.5t-23 45t-6 44q0 60 28 96t71.5 55t96.5 25t103 6v19q0 22 -2.5 39.5t-10 30t-22 19t-39.5 6.5q-38 0 -54.5 -17t-24.5 -55l-128 25q6 37 21 66t41.5 49t65.5 30.5t92 10.5q105 0 157 -43t52 -141v-218zM292 572l-101 9l75 162h161z"/>
<glyph glyph-name="acircumflex" horiz-adv-x="558" unicode="â" d="M334 221h-24q-27 -1 -50 -4.5t-39.5 -11t-25.5 -20.5t-9 -33q0 -23 12.5 -40t48.5 -17q27 0 51 11t36 23v92zM481 130q0 -21 5.5 -30.5t25.5 -9.5q11 0 31 6l4 -87q-15 -8 -43.5 -14t-52.5 -6q-45 0 -72 14.5t-35 51.5q-25 -32 -63 -49.5t-92 -17.5q-49 0 -79 14.5 t-47 35.5t-23 45t-6 44q0 60 28 96t71.5 55t96.5 25t103 6v19q0 22 -2.5 39.5t-10 30t-22 19t-39.5 6.5q-38 0 -54.5 -17t-24.5 -55l-128 25q6 37 21 66t41.5 49t65.5 30.5t92 10.5q105 0 157 -43t52 -141v-218zM344 576l-73 94l-76 -95l-101 6l105 164h144l101 -164z"/>
<glyph glyph-name="atilde" horiz-adv-x="558" unicode="ã" d="M334 221h-24q-27 -1 -50 -4.5t-39.5 -11t-25.5 -20.5t-9 -33q0 -23 12.5 -40t48.5 -17q27 0 51 11t36 23v92zM481 130q0 -21 5.5 -30.5t25.5 -9.5q11 0 31 6l4 -87q-15 -8 -43.5 -14t-52.5 -6q-45 0 -72 14.5t-35 51.5q-25 -32 -63 -49.5t-92 -17.5q-49 0 -79 14.5 t-47 35.5t-23 45t-6 44q0 60 28 96t71.5 55t96.5 25t103 6v19q0 22 -2.5 39.5t-10 30t-22 19t-39.5 6.5q-38 0 -54.5 -17t-24.5 -55l-128 25q6 37 21 66t41.5 49t65.5 30.5t92 10.5q105 0 157 -43t52 -141v-218zM193 732q24 0 44 -7t37.5 -15t33.5 -15t33 -7t23.5 9.5 t6.5 34.5l76 -4q2 -15 2 -28q1 -44 -17 -74q-22 -40 -76 -39q-26 0 -47 7t-39 15t-34 15t-32 7q-16 1 -24 -9q-5 -6 -5 -21q0 -7 1 -17l-82 3q-2 15 -2 28q0 47 22 77q28 40 79 40z"/>
<glyph glyph-name="adieresis" horiz-adv-x="558" unicode="ä" d="M334 221h-24q-27 -1 -50 -4.5t-39.5 -11t-25.5 -20.5t-9 -33q0 -23 12.5 -40t48.5 -17q27 0 51 11t36 23v92zM481 130q0 -21 5.5 -30.5t25.5 -9.5q11 0 31 6l4 -87q-15 -8 -43.5 -14t-52.5 -6q-45 0 -72 14.5t-35 51.5q-25 -32 -63 -49.5t-92 -17.5q-49 0 -79 14.5 t-47 35.5t-23 45t-6 44q0 60 28 96t71.5 55t96.5 25t103 6v19q0 22 -2.5 39.5t-10 30t-22 19t-39.5 6.5q-38 0 -54.5 -17t-24.5 -55l-128 25q6 37 21 66t41.5 49t65.5 30.5t92 10.5q105 0 157 -43t52 -141v-218zM476 679q0 -38 -24 -60.5t-64 -22.5q-41 0 -65.5 22.5 t-24.5 60.5t24.5 61t65.5 23q40 0 64 -23t24 -61zM241 679q0 -38 -24.5 -60.5t-63.5 -22.5q-41 0 -66 22.5t-25 60.5t25 61t66 23q39 0 63.5 -23t24.5 -61z"/>
<glyph glyph-name="aring" horiz-adv-x="558" unicode="å" d="M334 221h-24q-27 -1 -50 -4.5t-39.5 -11t-25.5 -20.5t-9 -33q0 -23 12.5 -40t48.5 -17q27 0 51 11t36 23v92zM481 130q0 -21 5.5 -30.5t25.5 -9.5q11 0 31 6l4 -87q-15 -8 -43.5 -14t-52.5 -6q-45 0 -72 14.5t-35 51.5q-25 -32 -63 -49.5t-92 -17.5q-49 0 -79 14.5 t-47 35.5t-23 45t-6 44q0 60 28 96t71.5 55t96.5 25t103 6v19q0 22 -2.5 39.5t-10 30t-22 19t-39.5 6.5q-38 0 -54.5 -17t-24.5 -55l-128 25q6 37 21 66t41.5 49t65.5 30.5t92 10.5q105 0 157 -43t52 -141v-218zM270 630q20 0 32 11t12 34q0 21 -12 31.5t-32 10.5 q-19 0 -32 -11t-13 -32q0 -23 12.5 -33.5t32.5 -10.5zM383 675q0 -51 -31 -78t-82 -27q-50 0 -81 26t-31 75q0 54 33.5 81.5t78.5 27.5q47 0 80 -26.5t33 -78.5z"/>
<glyph glyph-name="ae" horiz-adv-x="838" unicode="æ" d="M648 319v10q0 50 -19.5 72t-56.5 22q-16 0 -31.5 -5.5t-27.5 -18t-19.5 -32.5t-7.5 -48h162zM247 95q25 0 53.5 11.5t48.5 28.5q-8 20 -12 41.5t-6 44.5h-21q-27 -1 -50 -4.5t-39.5 -11t-25.5 -20.5t-9 -33q0 -23 12.5 -40t48.5 -17zM580 -12q-71 0 -118 21t-76 57 q-43 -42 -90 -60t-101 -18q-51 0 -82.5 14.5t-49 35.5t-23.5 45t-6 44q0 61 27 96.5t69.5 54.5t96 24t106.5 5v21q0 22 -2.5 39.5t-10 30t-22 19t-39.5 6.5q-38 0 -54.5 -17t-24.5 -55l-128 25q6 37 21 66t41.5 49t65.5 30.5t92 10.5t89 -16.5t59 -54.5q26 33 71 52t98 19 q56 0 96.5 -17.5t67 -49t39 -76t12.5 -98.5q0 -13 -0.5 -31t-2.5 -32h-317q1 -68 28 -95.5t77 -27.5q41 0 59 20.5t26 53.5l127 -31q-14 -73 -70.5 -116.5t-150.5 -43.5z"/>
<glyph glyph-name="ccedilla" horiz-adv-x="544" unicode="ç" d="M196 -162q12 -3 23.5 -5t24.5 -2q23 0 36.5 8.5t13.5 28.5q0 23 -17 29.5t-47 7.5l11 86q-54 6 -93 28t-64.5 56t-37.5 79t-12 98q0 135 69 207.5t197 72.5q94 0 151.5 -50.5t65.5 -146.5l-135 -20q-5 49 -22.5 75t-62.5 26q-21 0 -40.5 -6t-33.5 -22.5t-22.5 -45.5 t-8.5 -74t7 -76t20.5 -50t32.5 -27.5t43 -8.5q44 0 67 22.5t30 72.5l127 -24q-13 -91 -69 -136t-137 -52l-4 -34q16 -3 31.5 -9t27.5 -17t19 -27t7 -39q0 -55 -37.5 -82t-93.5 -27q-46 0 -82 14z"/>
<glyph glyph-name="egrave" horiz-adv-x="547" unicode="è" d="M357 319q0 57 -19.5 80.5t-56.5 23.5q-16 0 -31.5 -5.5t-27.5 -18t-19.5 -32.5t-7.5 -48h162zM289 -12q-72 0 -121 22.5t-79 60t-42.5 86.5t-12.5 102q0 70 20 121.5t55 85.5t81 50t99 16q59 0 101.5 -17.5t69.5 -49t40 -76t13 -98.5q0 -13 -0.5 -33.5t-2.5 -34.5h-317 q2 -65 28.5 -91.5t76.5 -26.5q41 0 59 20.5t26 53.5l127 -31q-14 -73 -70.5 -116.5t-150.5 -43.5zM130 743h162l74 -162l-101 -9z"/>
<glyph glyph-name="eacute" horiz-adv-x="547" unicode="é" d="M357 319q0 57 -19.5 80.5t-56.5 23.5q-16 0 -31.5 -5.5t-27.5 -18t-19.5 -32.5t-7.5 -48h162zM289 -12q-72 0 -121 22.5t-79 60t-42.5 86.5t-12.5 102q0 70 20 121.5t55 85.5t81 50t99 16q59 0 101.5 -17.5t69.5 -49t40 -76t13 -98.5q0 -13 -0.5 -33.5t-2.5 -34.5h-317 q2 -65 28.5 -91.5t76.5 -26.5q41 0 59 20.5t26 53.5l127 -31q-14 -73 -70.5 -116.5t-150.5 -43.5zM307 572l-101 9l75 162h161z"/>
<glyph glyph-name="ecircumflex" horiz-adv-x="547" unicode="ê" d="M357 319q0 57 -19.5 80.5t-56.5 23.5q-16 0 -31.5 -5.5t-27.5 -18t-19.5 -32.5t-7.5 -48h162zM289 -12q-72 0 -121 22.5t-79 60t-42.5 86.5t-12.5 102q0 70 20 121.5t55 85.5t81 50t99 16q59 0 101.5 -17.5t69.5 -49t40 -76t13 -98.5q0 -13 -0.5 -33.5t-2.5 -34.5h-317 q2 -65 28.5 -91.5t76.5 -26.5q41 0 59 20.5t26 53.5l127 -31q-14 -73 -70.5 -116.5t-150.5 -43.5zM359 576l-73 94l-76 -95l-101 6l105 164h144l101 -164z"/>
<glyph glyph-name="edieresis" horiz-adv-x="547" unicode="ë" d="M357 319q0 57 -19.5 80.5t-56.5 23.5q-16 0 -31.5 -5.5t-27.5 -18t-19.5 -32.5t-7.5 -48h162zM289 -12q-72 0 -121 22.5t-79 60t-42.5 86.5t-12.5 102q0 70 20 121.5t55 85.5t81 50t99 16q59 0 101.5 -17.5t69.5 -49t40 -76t13 -98.5q0 -13 -0.5 -33.5t-2.5 -34.5h-317 q2 -65 28.5 -91.5t76.5 -26.5q41 0 59 20.5t26 53.5l127 -31q-14 -73 -70.5 -116.5t-150.5 -43.5zM491 679q0 -38 -24 -60.5t-64 -22.5q-41 0 -65.5 22.5t-24.5 60.5t24.5 61t65.5 23q40 0 64 -23t24 -61zM256 679q0 -38 -24.5 -60.5t-63.5 -22.5q-41 0 -66 22.5t-25 60.5 t25 61t66 23q39 0 63.5 -23t24.5 -61z"/>
<glyph glyph-name="igrave" horiz-adv-x="268" unicode="ì" d="M211 0h-151v521h151v-521zM-18 743h162l74 -162l-101 -9z"/>
<glyph glyph-name="iacute" horiz-adv-x="268" unicode="í" d="M211 0h-151v521h151v-521zM159 572l-101 9l75 162h161z"/>
<glyph glyph-name="icircumflex" horiz-adv-x="268" unicode="î" d="M211 0h-151v521h151v-521zM211 576l-73 94l-76 -95l-101 6l105 164h144l101 -164z"/>
<glyph glyph-name="idieresis" horiz-adv-x="268" unicode="ï" d="M211 0h-151v521h151v-521zM343 679q0 -38 -24 -60.5t-64 -22.5q-41 0 -65.5 22.5t-24.5 60.5t24.5 61t65.5 23q40 0 64 -23t24 -61zM108 679q0 -38 -24.5 -60.5t-63.5 -22.5q-41 0 -66 22.5t-25 60.5t25 61t66 23q39 0 63.5 -23t24.5 -61z"/>
<glyph glyph-name="eth" horiz-adv-x="588" unicode="ð" d="M189 252q0 -81 25 -120t76 -39q58 0 84 53t26 159q0 16 -1.5 32t-3.5 33q-19 14 -45 23.5t-55 9.5q-24 0 -44 -7.5t-33.5 -25t-21 -46.5t-7.5 -72zM31 249q0 53 14 99.5t42 81.5t70.5 55.5t99.5 20.5q31 0 60 -6.5t60 -20.5l4 5q-15 40 -44.5 70.5t-64 52t-70 34 t-64.5 17.5l54 122q50 -9 90.5 -24.5t75.5 -37.5l108 70l66 -94l-83 -53q57 -67 80.5 -150.5t23.5 -171.5q0 -73 -14.5 -134t-47 -104.5t-84 -68t-124.5 -24.5q-65 0 -112.5 19t-78.5 53.5t-46 82.5t-15 106z"/>
<glyph glyph-name="ntilde" horiz-adv-x="583" unicode="ñ" d="M530 0h-151v330q0 42 -17 61t-52 19q-31 0 -59 -13.5t-43 -27.5v-369h-151v521h134l8 -52q29 26 70.5 44.5t95.5 18.5q87 0 126 -43t39 -133v-356zM212 732q24 0 44 -7t37.5 -15t33.5 -15t33 -7t23.5 9.5t6.5 34.5l76 -4q2 -15 2 -28q1 -44 -17 -74q-22 -40 -76 -39 q-26 0 -47 7t-39 15t-34 15t-32 7q-16 1 -24 -9q-5 -6 -5 -21q0 -7 1 -17l-82 3q-2 15 -2 28q0 47 22 77q28 40 79 40z"/>
<glyph glyph-name="ograve" horiz-adv-x="587" unicode="ò" d="M295 100q25 0 43.5 8.5t31.5 28t19.5 50.5t6.5 77q0 85 -24 119.5t-74 34.5q-51 0 -78.5 -35.5t-27.5 -120.5q0 -87 23.5 -124.5t79.5 -37.5zM288 -12q-71 0 -119.5 20t-78.5 56t-43 85.5t-13 108.5q0 63 16.5 113.5t49.5 86t83.5 55t118.5 19.5t115.5 -19.5t77.5 -54.5 t44 -83t14 -106q0 -64 -15 -116t-47.5 -88.5t-82.5 -56.5t-120 -20zM145 743h162l74 -162l-101 -9z"/>
<glyph glyph-name="oacute" horiz-adv-x="587" unicode="ó" d="M295 100q25 0 43.5 8.5t31.5 28t19.5 50.5t6.5 77q0 85 -24 119.5t-74 34.5q-51 0 -78.5 -35.5t-27.5 -120.5q0 -87 23.5 -124.5t79.5 -37.5zM288 -12q-71 0 -119.5 20t-78.5 56t-43 85.5t-13 108.5q0 63 16.5 113.5t49.5 86t83.5 55t118.5 19.5t115.5 -19.5t77.5 -54.5 t44 -83t14 -106q0 -64 -15 -116t-47.5 -88.5t-82.5 -56.5t-120 -20zM322 572l-101 9l75 162h161z"/>
<glyph glyph-name="ocircumflex" horiz-adv-x="587" unicode="ô" d="M295 100q25 0 43.5 8.5t31.5 28t19.5 50.5t6.5 77q0 85 -24 119.5t-74 34.5q-51 0 -78.5 -35.5t-27.5 -120.5q0 -87 23.5 -124.5t79.5 -37.5zM288 -12q-71 0 -119.5 20t-78.5 56t-43 85.5t-13 108.5q0 63 16.5 113.5t49.5 86t83.5 55t118.5 19.5t115.5 -19.5t77.5 -54.5 t44 -83t14 -106q0 -64 -15 -116t-47.5 -88.5t-82.5 -56.5t-120 -20zM374 576l-73 94l-76 -95l-101 6l105 164h144l101 -164z"/>
<glyph glyph-name="otilde" horiz-adv-x="587" unicode="õ" d="M295 100q25 0 43.5 8.5t31.5 28t19.5 50.5t6.5 77q0 85 -24 119.5t-74 34.5q-51 0 -78.5 -35.5t-27.5 -120.5q0 -87 23.5 -124.5t79.5 -37.5zM288 -12q-71 0 -119.5 20t-78.5 56t-43 85.5t-13 108.5q0 63 16.5 113.5t49.5 86t83.5 55t118.5 19.5t115.5 -19.5t77.5 -54.5 t44 -83t14 -106q0 -64 -15 -116t-47.5 -88.5t-82.5 -56.5t-120 -20zM223 732q24 0 44 -7t37.5 -15t33.5 -15t33 -7t23.5 9.5t6.5 34.5l76 -4q2 -15 2 -28q1 -44 -17 -74q-22 -40 -76 -39q-26 0 -47 7t-39 15t-34 15t-32 7q-16 1 -24 -9q-5 -6 -5 -21q0 -7 1 -17l-82 3 q-2 15 -2 28q0 47 22 77q28 40 79 40z"/>
<glyph glyph-name="odieresis" horiz-adv-x="587" unicode="ö" d="M295 100q25 0 43.5 8.5t31.5 28t19.5 50.5t6.5 77q0 85 -24 119.5t-74 34.5q-51 0 -78.5 -35.5t-27.5 -120.5q0 -87 23.5 -124.5t79.5 -37.5zM288 -12q-71 0 -119.5 20t-78.5 56t-43 85.5t-13 108.5q0 63 16.5 113.5t49.5 86t83.5 55t118.5 19.5t115.5 -19.5t77.5 -54.5 t44 -83t14 -106q0 -64 -15 -116t-47.5 -88.5t-82.5 -56.5t-120 -20zM506 679q0 -38 -24 -60.5t-64 -22.5q-41 0 -65.5 22.5t-24.5 60.5t24.5 61t65.5 23q40 0 64 -23t24 -61zM271 679q0 -38 -24.5 -60.5t-63.5 -22.5q-41 0 -66 22.5t-25 60.5t25 61t66 23q39 0 63.5 -23 t24.5 -61z"/>
<glyph glyph-name="divide" horiz-adv-x="570" unicode="÷" d="M361 487q0 -35 -19.5 -54t-59.5 -19q-79 0 -79 73q0 32 19.5 53t59.5 21t59.5 -21t19.5 -53zM91 261v120h387v-120h-387zM361 155q0 -35 -19.5 -54.5t-59.5 -19.5t-59.5 19.5t-19.5 54.5q0 32 19.5 53t59.5 21t59.5 -21t19.5 -53z"/>
<glyph glyph-name="oslash" horiz-adv-x="587" unicode="ø" d="M192 262q0 -52 7 -84l106 240h-7q-51 0 -78.5 -35.5t-27.5 -120.5zM295 100q25 0 43.5 8.5t31.5 28t19.5 50.5t6.5 77q0 59 -12 94l-113 -256q6 -1 11.5 -1.5t12.5 -0.5zM288 -12q-18 0 -34 1.5t-31 3.5l-28 -65h-106l43 99q-54 35 -76 94.5t-22 136.5q0 63 16.5 113.5 t49.5 86t83.5 55t118.5 19.5q14 0 27 -1t25 -3l26 58h105l-39 -88q57 -32 82 -91.5t25 -137.5q0 -64 -15 -116t-47.5 -88.5t-82.5 -56.5t-120 -20z"/>
<glyph glyph-name="ugrave" horiz-adv-x="578" unicode="ù" d="M55 521h151v-329q0 -42 15 -61.5t51 -19.5q29 0 56.5 13.5t42.5 27.5v369h151v-521h-130l-11 56q-28 -32 -70 -49.5t-96 -17.5q-160 0 -160 173v359zM133 743h162l74 -162l-101 -9z"/>
<glyph glyph-name="uacute" horiz-adv-x="578" unicode="ú" d="M55 521h151v-329q0 -42 15 -61.5t51 -19.5q29 0 56.5 13.5t42.5 27.5v369h151v-521h-130l-11 56q-28 -32 -70 -49.5t-96 -17.5q-160 0 -160 173v359zM310 572l-101 9l75 162h161z"/>
<glyph glyph-name="ucircumflex" horiz-adv-x="578" unicode="û" d="M55 521h151v-329q0 -42 15 -61.5t51 -19.5q29 0 56.5 13.5t42.5 27.5v369h151v-521h-130l-11 56q-28 -32 -70 -49.5t-96 -17.5q-160 0 -160 173v359zM362 576l-73 94l-76 -95l-101 6l105 164h144l101 -164z"/>
<glyph glyph-name="udieresis" horiz-adv-x="578" unicode="ü" d="M55 521h151v-329q0 -42 15 -61.5t51 -19.5q29 0 56.5 13.5t42.5 27.5v369h151v-521h-130l-11 56q-28 -32 -70 -49.5t-96 -17.5q-160 0 -160 173v359zM494 679q0 -38 -24 -60.5t-64 -22.5q-41 0 -65.5 22.5t-24.5 60.5t24.5 61t65.5 23q40 0 64 -23t24 -61zM259 679 q0 -38 -24.5 -60.5t-63.5 -22.5q-41 0 -66 22.5t-25 60.5t25 61t66 23q39 0 63.5 -23t24.5 -61z"/>
<glyph glyph-name="yacute" horiz-adv-x="526" unicode="ý" d="M-4 521h163l109 -363h3l105 363h155q-52 -146 -105.5 -293.5t-101.5 -278.5q-17 -46 -34.5 -78.5t-40 -53.5t-52 -30.5t-69.5 -9.5q-31 0 -64 7t-50 15l11 109q21 -7 41.5 -11.5t37.5 -4.5q26 0 44 13t30 43l16 41zM285 572l-101 9l75 162h161z"/>
<glyph glyph-name="thorn" horiz-adv-x="592" unicode="þ" d="M209 144q11 -11 37 -23t54 -12q53 0 75.5 41.5t22.5 117.5q0 79 -23 111.5t-69 32.5q-26 0 -53 -13t-44 -27v-228zM59 755h148v-281q32 31 70.5 44.5t84.5 13.5q40 0 75.5 -13.5t62 -44.5t41.5 -80.5t15 -121.5q0 -78 -17 -132t-46 -87.5t-67.5 -49t-81.5 -15.5 q-48 0 -80.5 13.5t-57.5 36.5v-250h-147v967z"/>
<glyph glyph-name="dotlessi" horiz-adv-x="268" unicode="ı" d="M211 0h-151v521h151v-521z"/>
<glyph glyph-name="OE" horiz-adv-x="1073" unicode="Œ" d="M381 117q40 0 73 13t57.5 41.5t38 74t14.5 109.5v6q0 127 -45.5 186.5t-130.5 59.5q-88 0 -139.5 -59.5t-51.5 -185.5q0 -65 12.5 -111.5t36.5 -76t58 -43.5t77 -14zM579 0v67q-35 -37 -89 -58t-115 -21q-90 0 -153.5 27.5t-104.5 77t-60 117.5t-19 149t22.5 150 t66.5 119.5t108.5 79.5t148.5 29q68 0 114 -20t81 -57v64h443v-129h-305v-170h287v-126h-287v-170h324v-129h-462z"/>
<glyph glyph-name="oe" horiz-adv-x="899" unicode="œ" d="M709 319v5q0 53 -19.5 76t-56.5 23q-16 0 -31.5 -5.5t-27.5 -17.5t-19.5 -32t-7.5 -49h162zM295 100q50 0 75.5 37t25.5 126q0 86 -24 120.5t-74 34.5q-51 0 -78.5 -35.5t-27.5 -120.5q0 -87 23.5 -124.5t79.5 -37.5zM643 -12q-36 0 -63.5 7.5t-48.5 20t-36.5 28.5 t-26.5 34q-27 -40 -73 -65t-115 -25q-66 0 -112.5 20t-76.5 56t-43.5 85.5t-13.5 108.5q0 63 17 113.5t50 86t81 55t110 19.5q68 0 110.5 -23t71.5 -64q27 39 72 63t103 24q55 0 95.5 -17.5t67.5 -49t40 -75.5t13 -98q0 -13 -0.5 -34t-2.5 -35h-317q2 -65 28.5 -91.5 t76.5 -26.5q41 0 60 21.5t25 52.5l127 -31q-14 -73 -71 -116.5t-148 -43.5z"/>
<glyph glyph-name="Scaron" horiz-adv-x="596" unicode="Š" d="M300 618q-56 0 -82 -21t-26 -56q0 -28 16 -46t42.5 -30.5t60.5 -22t69 -20.5t69 -25.5t60.5 -38t42.5 -57.5t16 -84q0 -62 -23 -105t-61.5 -71t-88.5 -40.5t-104 -12.5q-49 0 -97 9.5t-87 35t-65 70t-31 115.5l140 21q4 -26 12.5 -49.5t24.5 -41t41.5 -28t65.5 -10.5 q24 0 45.5 4.5t38 15t26.5 27.5t10 42q0 28 -16 45.5t-42.5 29.5t-60.5 20.5t-69.5 18.5t-69.5 24t-60.5 37.5t-42.5 58.5t-16 86q0 53 20.5 93.5t56.5 68.5t84 42t103 14q48 0 93 -9t80 -32.5t58 -65t27 -105.5l-141 -16q-2 25 -9 45.5t-21 34.5t-35.5 21.5t-53.5 7.5z M300 846l75 73l102 -7l-107 -142h-140l-102 142l100 6z"/>
<glyph glyph-name="scaron" horiz-adv-x="501" unicode="š" d="M257 532q89 0 139 -36t69 -102l-124 -39q-10 33 -29 52t-61 19q-66 0 -66 -46q0 -14 8 -23.5t22 -15.5t33.5 -10t42.5 -8q34 -6 67 -14.5t58.5 -25t41.5 -45t16 -74.5q0 -45 -18 -78t-48.5 -54.5t-72.5 -32.5t-90 -11q-101 0 -154.5 39t-67.5 104l123 40q4 -15 11 -29 t19 -25.5t29.5 -18t44.5 -6.5q75 0 75 49q0 29 -25.5 38.5t-71.5 17.5q-34 6 -67.5 15t-60.5 26.5t-43.5 46.5t-16.5 77q0 43 17.5 75t47.5 53t69 31.5t83 10.5zM180 741l73 -93l76 94l99 -6l-105 -164h-144l-101 164z"/>
<glyph glyph-name="Ydieresis" horiz-adv-x="606" unicode="Ÿ" d="M388 0h-155v271l-251 453h169l159 -310h5l153 310h156l-236 -451v-273zM514 858q0 -38 -24 -60.5t-64 -22.5q-41 0 -65.5 22.5t-24.5 60.5t24.5 61t65.5 23q40 0 64 -23t24 -61zM279 858q0 -38 -24.5 -60.5t-63.5 -22.5q-41 0 -66 22.5t-25 60.5t25 61t66 23 q39 0 63.5 -23t24.5 -61z"/>
<glyph glyph-name="circumflex" d="M324 576l-73 94l-76 -95l-101 6l105 164h144l101 -164z" unicode="ˆ"/>
<glyph glyph-name="caron" d="M178 741l73 -93l76 94l99 -6l-105 -164h-144l-101 164z" unicode="ˇ"/>
<glyph glyph-name="ring" d="M250 630q20 0 32 11t12 34q0 21 -12 31.5t-32 10.5q-19 0 -32 -11t-13 -32q0 -23 12.5 -33.5t32.5 -10.5zM363 675q0 -51 -31 -78t-82 -27q-50 0 -81 26t-31 75q0 54 33.5 81.5t78.5 27.5q47 0 80 -26.5t33 -78.5z" unicode="˚"/>
<glyph glyph-name="tilde" d="M173 732q24 0 44 -7t37.5 -15t33.5 -15t33 -7t23.5 9.5t6.5 34.5l76 -4q2 -15 2 -28q1 -44 -17 -74q-22 -40 -76 -39q-26 0 -47 7t-39 15t-34 15t-32 7q-16 1 -24 -9q-5 -6 -5 -21q0 -7 1 -17l-82 3q-2 15 -2 28q0 47 22 77q28 40 79 40z" unicode="˜"/>
<glyph glyph-name="uni0394" horiz-adv-x="715" unicode="Δ" d="M191 124h297l-141 441h-7zM9 0l258 724h178l261 -724h-697z"/>
<glyph glyph-name="uni03BC" horiz-adv-x="629" unicode="μ" d="M81 521h151v-330q0 -43 11.5 -62.5t43.5 -19.5t58.5 14.5t43.5 28.5v369h151v-521h-125l-5 54h-5q-35 -34 -77 -50q-25 -9 -56 -9q-21 0 -44 4l-1 -1l10 -174h-156v697z"/>
<glyph glyph-name="pi" horiz-adv-x="671" unicode="π" d="M562 0h-151v410h-152v-410h-150v521h453v-521z"/>
<glyph glyph-name="thinspace" horiz-adv-x="125" unicode=" "/>
<glyph glyph-name="endash" d="M0 225v111h500v-111h-500z" unicode="–"/>
<glyph glyph-name="emdash" horiz-adv-x="1000" unicode="—" d="M0 225v111h1000v-111h-1000z"/>
<glyph glyph-name="quoteleft" horiz-adv-x="218" unicode="‘" d="M164 546h-145l89 245l109 -12z"/>
<glyph glyph-name="quotesinglbase" horiz-adv-x="214" unicode="‚" d="M55.0195 95.0664h144.982l-88.9883 -244.97l-108.987 11.998z"/>
<glyph glyph-name="quotedblleft" horiz-adv-x="401" unicode="“" d="M348 546h-145l89 245l109 -12zM164 546h-145l89 245l109 -12z"/>
<glyph glyph-name="quotedblright" horiz-adv-x="401" unicode="”" d="M253.02 774.066h144.982l-88.9883 -244.97l-108.987 11.998zM71.0195 774.066h144.982l-88.9883 -244.97l-108.987 11.998z"/>
<glyph glyph-name="dagger" horiz-adv-x="440" unicode="†" d="M270 459l19 -542h-138l18 543l-149 -16v122l149 -16l-15 174h132l-16 -173l150 15v-122z"/>
<glyph glyph-name="daggerdbl" horiz-adv-x="446" unicode="‡" d="M274 459v-278l149 16v-122l-149 16l15 -174h-132l16 173l-150 -15v122l149 -15v278l-149 -16v122l149 -16l-15 174h132l-16 -173l150 15v-122z"/>
<glyph glyph-name="ellipsis" horiz-adv-x="722" unicode="…" d="M219 76q0 -88 -93 -88t-93 88q0 89 93 89t93 -89zM457 76q0 -88 -93 -88t-93 88q0 89 93 89t93 -89zM690 76q0 -88 -93 -88t-93 88q0 89 93 89t93 -89z"/>
<glyph glyph-name="perthousand" horiz-adv-x="1065" unicode="‰" d="M874 68q26 0 38 18.5t12 66.5q0 43 -11.5 61t-37.5 18t-38 -19t-12 -61q0 -46 11.5 -65t37.5 -19zM871 -12q-42 0 -70.5 11.5t-46.5 32.5t-26 50t-8 64q0 81 40.5 124t117.5 43q79 0 115 -41.5t36 -116.5q0 -79 -40.5 -123t-117.5 -44zM537 68q26 0 38 18.5t12 66.5 q0 43 -11.5 61t-37.5 18t-38 -19t-12 -61q0 -46 11.5 -65t37.5 -19zM534 -12q-42 0 -70.5 11.5t-46.5 32.5t-26 50t-8 64q0 81 40.5 124t117.5 43q79 0 115 -41.5t36 -116.5q0 -79 -40.5 -123t-117.5 -44zM191 491q26 0 37.5 19t11.5 67q0 43 -11 61.5t-37 18.5t-38.5 -19.5 t-12.5 -61.5q0 -46 12 -65.5t38 -19.5zM73 -13l438 737h132l-437 -737h-133zM187 412q-42 0 -70.5 11.5t-46.5 32.5t-26 50t-8 64q0 81 40.5 124t117.5 43q79 0 115 -41.5t36 -116.5q0 -79 -40.5 -123t-117.5 -44z"/>
<glyph glyph-name="guilsinglleft" horiz-adv-x="279" unicode="‹" d="M123 103l-86 154l89 151h122l-88 -147l84 -158h-121z"/>
<glyph glyph-name="guilsinglright" horiz-adv-x="279" unicode="›" d="M153 408l89 -153l-87 -152h-120l84 153l-88 152h122z"/>
<glyph glyph-name="fraction" horiz-adv-x="184" unicode="⁄" d="M-160 -12l354 736h138l-353 -736h-139z"/>
<glyph glyph-name="foursuperior" horiz-adv-x="432" unicode="⁴" d="M235 541v150l-98 -150h98zM235 349v92h-208v89l176 271h159v-260h52v-100h-51v-92h-128z"/>
<glyph glyph-name="Euro" horiz-adv-x="645" unicode="€" d="M372 -12q-117 0 -183 61t-86 186h-93l15 88h70v62h-62l15 88h56q23 128 94.5 196.5t188.5 68.5q49 0 91.5 -12.5t74 -40.5t50.5 -73.5t22 -111.5l-132 -14q-5 71 -29 99.5t-78 28.5q-57 0 -88.5 -36t-43.5 -105h194l-15 -88h-187v-62h179l-15 -88h-154q13 -63 42.5 -92.5 t80.5 -29.5q29 0 48.5 7.5t33 22.5t21.5 36.5t14 48.5l126 -22q-8 -64 -33.5 -106t-60.5 -67t-76 -35t-80 -10z"/>
<glyph glyph-name="trademark" horiz-adv-x="856" unicode="™" d="M239 348h-80v308h-118v68h317v-68h-119v-308zM717 348v239l-89 -239h-63l-87 240v-239h-72v375h92l102 -284l103 284h87v-376h-73z"/>
<glyph glyph-name="partialdiff" horiz-adv-x="577" unicode="∂" d="M374 277q-20 12 -44.5 22.5t-53.5 10.5q-50 0 -68.5 -30t-18.5 -80q0 -18 3.5 -35.5t12.5 -32t24 -23t38 -8.5q30 0 50 15t32 40t17.5 56.5t7.5 64.5zM382 374q2 18 2 35q0 19 -3.5 45t-17 51.5t-37 40.5t-56.5 15q-39 0 -77 -16t-65 -36l-59 92q42 32 101 53t125 21 q70 0 116 -25.5t72.5 -67.5t37 -97t10.5 -113q0 -71 -12 -140t-42 -123t-82 -87.5t-133 -33.5q-106 0 -166 53t-60 153q0 52 14.5 92.5t41.5 68.5t65 43t84 15q48 0 83 -12.5t58 -26.5z"/>
<glyph glyph-name="Delta" horiz-adv-x="715" unicode="∆" d="M191 124h297l-141 441h-7zM9 0l258 724h178l261 -724h-697z"/>
<glyph glyph-name="product" horiz-adv-x="788" unicode="∏" d="M684 -162h-154v758h-274v-758h-155v886h583v-886z"/>
<glyph glyph-name="summation" horiz-adv-x="627" unicode="∑" d="M184 -41h384v-135h-558v105l222 350l-213 354v91h546v-121h-358l183 -316z"/>
<glyph glyph-name="minus" horiz-adv-x="570" unicode="−" d="M92 264v119h387v-119h-387z"/>
<glyph glyph-name="radical" horiz-adv-x="570" unicode="√" d="M240 0l-122 211q-4 7 -12 5l-64 -17l-39 89l167 81l120 -225l160 603l121 -32l-192 -715h-139z"/>
<glyph glyph-name="infinity" horiz-adv-x="672" unicode="∞" d="M393 323q19 -20 38.5 -37t48.5 -17q27 0 40.5 17t13.5 38q0 26 -13 40t-39 14t-48 -18t-41 -37zM285 324q-22 23 -41.5 38t-47.5 15q-26 0 -42 -15.5t-16 -39.5q0 -20 14 -38t42 -18q26 0 49.5 19t41.5 39zM335 251q-23 -26 -60 -48.5t-87 -22.5q-29 0 -55.5 8 t-46.5 25.5t-31.5 44t-11.5 64.5q0 34 12 60.5t32.5 44.5t48 27.5t58.5 9.5q49 0 83.5 -22t61.5 -49q13 13 28.5 25.5t33.5 22.5t39 16.5t46 6.5q30 0 56 -8.5t45.5 -26t30.5 -44.5t11 -65q0 -33 -11.5 -59.5t-31 -45t-46.5 -28t-57 -9.5q-25 0 -46.5 6.5t-40 17t-34 23.5 t-27.5 26z"/>
<glyph glyph-name="approxequal" horiz-adv-x="570" unicode="≈" d="M168 548q24 0 59 -7t70 -15t66 -15t48 -7t23.5 9.5t6.5 34.5l83 -4q2 -16 2 -30t-2 -28q-4 -26 -16 -46t-32.5 -31.5t-49.5 -11.5q-26 0 -61.5 7t-71.5 15t-67 15t-47 7q-16 1 -24 -9q-5 -6 -5 -21q0 -7 1 -17l-89 3q-2 15 -2 29q0 48 21 80q27 42 87 42zM168 348 q24 0 59 -7t70 -15t66 -15t48 -7t23.5 9.5t6.5 34.5l83 -4q2 -16 2 -30t-2 -28q-4 -26 -16 -46t-32.5 -31.5t-49.5 -11.5q-26 0 -61.5 7t-71.5 15t-67 15t-47 7q-16 1 -24 -9q-5 -6 -5 -21q0 -7 1 -17l-89 3q-2 15 -2 29q0 48 21 80q27 42 87 42z"/>
<glyph glyph-name="notequal" horiz-adv-x="570" unicode="≠" d="M216 247l27 69h-151v120h194l34 87h108l-35 -87h85v-120h-128l-27 -69h155v-120h-198l-34 -84h-107l34 84h-81v120h124z"/>
<glyph glyph-name="lessequal" horiz-adv-x="570" unicode="≤" d="M89 0v119h387v-119h-387zM89 265v141l387 141v-120l-264 -88l264 -89v-122z"/>
<glyph glyph-name="greaterequal" horiz-adv-x="570" unicode="≥" d="M88 0v119h387v-119h-387zM88 129v121l265 89l-265 83v125l388 -141v-140z"/>
<glyph glyph-name="lozenge" horiz-adv-x="570" unicode="◊" d="M382 307l-97 196l-96 -196l96 -203zM230 -17l-155 324l155 324h110l155 -324l-155 -324h-110z"/>
<glyph glyph-name="tilde.cap" d="M175 930q24 0 44 -6.5t37.5 -15t33.5 -15t33 -6.5t23.5 9.5t6.5 34.5l76 -4q2 -15 2 -28q1 -43 -17 -73q-22 -40 -76 -40q-26 0 -47 7t-39 15t-34 15t-32 7t-24 -10q-5 -6 -5 -20q0 -7 1 -17l-82 3q-2 15 -2 28q0 47 22 77q28 39 79 39z"/>
<glyph glyph-name="circumflex.cap" d="M252 841l-75 -73l-102 7l107 142h140l102 -142l-100 -6z"/>
<glyph glyph-name="acute.cap" d="M269 768l-107 8l91 140h162z"/>
<glyph glyph-name="grave.cap" d="M84 916h162l91 -140l-107 -8z"/>
<glyph glyph-name="dieresis.cap" d="M456 858q0 -38 -24 -60.5t-64 -22.5q-41 0 -65.5 22.5t-24.5 60.5t24.5 61t65.5 23q40 0 64 -23t24 -61zM221 858q0 -38 -24.5 -60.5t-63.5 -22.5q-41 0 -66 22.5t-25 60.5t25 61t66 23q39 0 63.5 -23t24.5 -61z"/>
<glyph glyph-name="caron.cap" d="M249 846l75 73l102 -7l-107 -142h-140l-102 142l100 6z"/>
<glyph glyph-name="a.sup" d="M227 488q-10 0 -24 -0.5t-27 -4.5t-22.5 -11.5t-9.5 -22.5q0 -13 7.5 -21.5t28.5 -8.5q16 0 28 6t19 12v51zM341 444q0 -18 8 -23.5t30 1.5l3 -66q-11 -5 -28.5 -9t-35.5 -4q-32 0 -52.5 10.5t-27.5 36.5q-17 -21 -42 -34.5t-63 -13.5q-33 0 -54 9.5t-33 23.5t-16 30 t-4 29q0 40 20.5 63.5t50.5 35t65 15t64 3.5v13q0 22 -6.5 37.5t-37.5 15.5q-22 0 -32.5 -11t-14.5 -35l-100 18q4 24 14.5 44t29.5 35t46.5 23t65.5 8q75 0 112.5 -28.5t37.5 -92.5v-134z" horiz-adv-x="397"/>
<glyph glyph-name="o.sup" d="M208 424q31 0 45.5 21t14.5 78q0 53 -13.5 73t-44.5 20t-46.5 -21t-15.5 -73q0 -53 13.5 -75.5t46.5 -22.5zM203 342q-50 0 -84 13t-55 36.5t-30 56t-9 71.5q0 83 45.5 131.5t142.5 48.5q48 0 82 -13t55.5 -35.5t31 -54.5t9.5 -69q0 -85 -44.5 -135t-143.5 -50z" horiz-adv-x="416"/>
</font>
</defs>
</svg>
