<svg xmlns="http://www.w3.org/2000/svg" viewBox="3492 2651.922 78.435 90.678">
  <defs>
    <style>
      .cls-1 {
        fill: #00dc00;
      }
    </style>
  </defs>
  <g id="Group_576" data-name="Group 576" transform="translate(3491.957 2651.922)">
    <path id="Path_463" data-name="Path 463" class="cls-1" d="M82.445,33.84a2.582,2.582,0,0,1-1.991.066,2.857,2.857,0,0,1-1.46-1.328,2.582,2.582,0,0,1-.066-1.991,2.857,2.857,0,0,1,1.328-1.46,3.125,3.125,0,0,1,1.062-.266,3.885,3.885,0,0,1,.863.133,2.857,2.857,0,0,1,1.46,1.328,2.6,2.6,0,0,1-1.195,3.518m.4-6.373a4.427,4.427,0,0,0-3.319.133,4.13,4.13,0,0,0-2.257,2.456,4.427,4.427,0,0,0,.133,3.319,4.13,4.13,0,0,0,2.456,2.257,3.9,3.9,0,0,0,1.527.266,4.158,4.158,0,0,0,1.792-.4A4.347,4.347,0,0,0,85.3,29.725a4.13,4.13,0,0,0-2.456-2.257" transform="translate(-25.873 -9.146)"/>
    <path id="Path_464" data-name="Path 464" class="cls-1" d="M62.083,64a13.9,13.9,0,0,1-.531,1.527l-3.518-.066a1.144,1.144,0,0,0-.929.531,13.648,13.648,0,0,1-1.925,2.456.663.663,0,0,0-.266.332,1.11,1.11,0,0,0-.066.8l.8,3.319a19.307,19.307,0,0,1-2.788,1.527L50.4,71.9a.923.923,0,0,0-1-.266,10.007,10.007,0,0,1-3.186.332,1.161,1.161,0,0,0-.929.465L43.43,75.414a7,7,0,0,1-1.593-.4,13.9,13.9,0,0,1-1.527-.531l.066-3.518a1.161,1.161,0,0,0-.465-.929,11.951,11.951,0,0,1-2.456-1.991.923.923,0,0,0-1-.266l-3.385.8a14.17,14.17,0,0,1-1.527-2.788l2.523-2.456a.955.955,0,0,0,.266-1A12.357,12.357,0,0,1,34,59.15a1.161,1.161,0,0,0-.465-.929l-2.987-1.859a18.159,18.159,0,0,1,.929-3.12L35,53.309a.82.82,0,0,0,.929-.6,11.262,11.262,0,0,1,1.925-2.39.923.923,0,0,0,.266-1l-.8-3.385a16.344,16.344,0,0,1,2.788-1.527l2.456,2.523a.923.923,0,0,0,1,.266,10.008,10.008,0,0,1,3.186-.332,1.268,1.268,0,0,0,.929-.465l1.859-2.987a7,7,0,0,1,1.593.4c.465.133,1,.332,1.527.531l-.066,3.518a1.268,1.268,0,0,0,.465.929,11.95,11.95,0,0,1,2.456,1.991.923.923,0,0,0,1,.266l3.385-.8a16.344,16.344,0,0,1,1.527,2.788L58.9,55.5a.955.955,0,0,0-.266,1,12.357,12.357,0,0,1,.332,3.186,1.161,1.161,0,0,0,.465.929l2.987,1.859c-.066.465-.2,1-.332,1.527m-1-4.846a15.453,15.453,0,0,0-.266-2.523l2.589-2.523a1.149,1.149,0,0,0,.266-1.128,17.582,17.582,0,0,0-2.456-4.514,1.1,1.1,0,0,0-1.062-.4l-3.518.8a11.653,11.653,0,0,0-1.991-1.593l.066-3.585a1.041,1.041,0,0,0-.6-.929c-.863-.4-1.66-.664-2.39-.929a17.073,17.073,0,0,0-2.523-.531.988.988,0,0,0-1,.465l-1.925,3.054a16.267,16.267,0,0,0-2.523.266l-2.523-2.589a1.149,1.149,0,0,0-1.128-.266A17.582,17.582,0,0,0,35.6,44.679a1.1,1.1,0,0,0-.4,1.062l.8,3.518A11.653,11.653,0,0,0,34.4,51.251H30.817a1.078,1.078,0,0,0-.929.6,17.254,17.254,0,0,0-.863,2.39,15.451,15.451,0,0,0-.531,2.523.988.988,0,0,0,.465,1l3.054,1.925a15.453,15.453,0,0,0,.266,2.523l-2.589,2.523a1.149,1.149,0,0,0-.266,1.128,19.864,19.864,0,0,0,2.456,4.514,1.1,1.1,0,0,0,1.062.4l3.518-.8a11.653,11.653,0,0,0,1.991,1.593l-.066,3.585a1.041,1.041,0,0,0,.6.929c.8.332,1.593.664,2.39.929a17.074,17.074,0,0,0,2.523.531h.133a1.135,1.135,0,0,0,.863-.465l1.925-3.054a15.452,15.452,0,0,0,2.523-.266l2.523,2.589a1.149,1.149,0,0,0,1.128.266A17.582,17.582,0,0,0,57.5,74.153a1.1,1.1,0,0,0,.4-1.062l-.8-3.518A11.653,11.653,0,0,0,58.7,67.581l3.585.066a.886.886,0,0,0,.929-.6c.332-.8.664-1.593.929-2.39a23.985,23.985,0,0,0,.531-2.523,1.149,1.149,0,0,0-.465-1.062Z" transform="translate(-9.56 -13.878)"/>
    <path id="Path_465" data-name="Path 465" class="cls-1" d="M84.355,31a.844.844,0,0,0-.6.465,9.319,9.319,0,0,1-.8,1.195.749.749,0,0,0-.2.73l.4,2.456a7.624,7.624,0,0,1-2.589,1.195l-1.593-1.925a.922.922,0,0,0-.664-.332h0a9.9,9.9,0,0,1-1.394-.133.749.749,0,0,0-.73.2l-1.925,1.593a8.252,8.252,0,0,1-2.323-1.66L72.8,32.4a.913.913,0,0,0-.066-.73A2.076,2.076,0,0,1,72.406,31a2.774,2.774,0,0,1-.266-.664.72.72,0,0,0-.531-.531l-2.523-.863a9.94,9.94,0,0,1,.266-2.788l2.456-.4a.845.845,0,0,0,.6-.465,13.459,13.459,0,0,1,.863-1.195.749.749,0,0,0,.2-.73l-.4-2.523a7.623,7.623,0,0,1,2.589-1.195l1.593,1.925a.951.951,0,0,0,.73.332,11.922,11.922,0,0,1,1.46.133.749.749,0,0,0,.73-.2L82.1,20.248a8.251,8.251,0,0,1,2.323,1.66l-.863,2.39a1.11,1.11,0,0,0,.066.8,2.691,2.691,0,0,1,.332.6,2.774,2.774,0,0,1,.266.664.942.942,0,0,0,.531.6l2.39.863a8.351,8.351,0,0,1-.266,2.854Zm3.319,1.261a.779.779,0,0,0,.664-.6,11.021,11.021,0,0,0,.465-4.647.957.957,0,0,0-.6-.73l-2.523-.929c-.066-.133-.133-.332-.2-.465l-.2-.4.929-2.523a.822.822,0,0,0-.2-.929,10.859,10.859,0,0,0-3.784-2.655.932.932,0,0,0-.929.133l-2.058,1.726a4.7,4.7,0,0,0-.929-.066l-1.726-2.058a.864.864,0,0,0-.863-.332,10.607,10.607,0,0,0-2.191.73,9.9,9.9,0,0,0-1.991,1.195.864.864,0,0,0-.332.863l.465,2.589a5.538,5.538,0,0,0-.531.8l-2.655.465a.779.779,0,0,0-.664.6,11.022,11.022,0,0,0-.465,4.647.957.957,0,0,0,.6.73l2.523.929c.066.133.133.332.2.465a3.237,3.237,0,0,1,.2.465l-.929,2.523a.822.822,0,0,0,.2.929,10.859,10.859,0,0,0,3.784,2.655.932.932,0,0,0,.929-.133l2.058-1.66a5.024,5.024,0,0,0,1,.066L79.642,38.7a.922.922,0,0,0,.664.332h.2A10.607,10.607,0,0,0,82.7,38.3a9.9,9.9,0,0,0,1.991-1.195.864.864,0,0,0,.332-.863l-.465-2.589a5.539,5.539,0,0,0,.531-.8Z" transform="translate(-22.605 -5.975)"/>
    <path id="Path_466" data-name="Path 466" class="cls-1" d="M57.034,66.349a5.183,5.183,0,0,1-2.589,3.186A5.543,5.543,0,0,1,50.329,70a5.183,5.183,0,0,1-3.186-2.589,5.409,5.409,0,0,1-.465-4.049,5.183,5.183,0,0,1,2.589-3.186,5.019,5.019,0,0,1,2.589-.664,6.027,6.027,0,0,1,1.527.2A5.183,5.183,0,0,1,56.569,62.3a5.055,5.055,0,0,1,.465,4.049m-3.054-8.7A7.436,7.436,0,1,0,49.8,71.926a7.481,7.481,0,0,0,2.124.332,7.471,7.471,0,0,0,6.572-11.019,7.851,7.851,0,0,0-4.514-3.585" transform="translate(-14.933 -19.284)"/>
    <path id="Path_467" data-name="Path 467" class="cls-1" d="M66.065,79.858c-9.692,2.589-25.491,6.7-31,8.032-.133-.4-.332-.863-.465-1.328-1.726-4.713-3.917-10.621-8.165-10.621-4.381,0-11.882-.332-14.67-1.328-.863-.332-.6-2.191-.2-4.448.332-1.792.664-3.452.133-4.647A5.928,5.928,0,0,0,9.972,63.2,2.433,2.433,0,0,1,9.109,62a2.612,2.612,0,0,1,.2-1.66,8.415,8.415,0,0,0,.2-5.311c-.664-2.655-3.186-3.054-4.979-3.385-2.323-.4-2.257-.6-2.191-1.328.2-1.527,2.523-3.85,4.58-5.974,2.589-2.655,5.311-5.377,5.775-8.032.4-2.722,0-3.717-.664-4.713a3.715,3.715,0,0,1-.6-2.39c0-12.945,8.63-26.818,32.926-26.818,19.848,0,31.664,11.683,31.664,31.332,0,8.7-5.775,18.521-9.625,25.026-2.523,4.315-3.85,6.7-3.85,8.231,0,3.651,2.124,8.762,5.111,12.413ZM64.936,66.98c0-1,1.792-4.049,3.585-7.037,3.983-6.771,9.957-16.927,9.957-26.221C78.478,12.613,65.733,0,44.424,0,28.161,0,9.109,7.634,9.109,29.208a5.455,5.455,0,0,0,1,3.585c.4.6.664,1.062.332,3.12-.332,1.925-2.854,4.514-5.111,6.771C2.8,45.273.346,47.662.081,49.986c-.4,3.12,2.456,3.651,4.116,3.917,1.925.332,2.854.6,3.054,1.66a6.6,6.6,0,0,1-.2,4.049A4.36,4.36,0,0,0,6.918,62.8a4.726,4.726,0,0,0,1.527,2.191,3.459,3.459,0,0,1,1.128,1.46c.266.531-.066,2.124-.266,3.253-.465,2.589-1.128,6.107,1.726,7.169,4.182,1.46,15,1.46,15.467,1.46,2.589,0,4.514,5.244,5.908,9.094.332.863.6,1.593.863,2.323l.4.929,1-.2c4.381-1,21.773-5.576,32.129-8.3l5.51-1.46-1.46-1.46c-3.253-3.12-5.908-8.762-5.908-12.281" transform="translate(0)"/>
  </g>
</svg>
