<svg xmlns="http://www.w3.org/2000/svg" viewBox="64.83 6786.514 109.841 23.174"><defs><style>.a{fill:#fff;}</style></defs><g transform="translate(64.83 6786.514)"><path class="a" d="M213.912,37.284a3.315,3.315,0,0,1,6.621,0Zm3.021-5.384c-3.519,0-5.834,2.427-5.834,6.412,0,4.95,3.535,6.38,6.042,6.38a6.907,6.907,0,0,0,5.014-2.153l-1.623-1.623a4.686,4.686,0,0,1-3.343,1.237c-1.961,0-3.294-1.157-3.294-2.716h8.758c0-.016,1.527-7.537-5.721-7.537" transform="translate(-177.175 -26.774)"/><path class="a" d="M7.521,37.059C6.4,36.914,3.15,37.043,3.15,35.564c0-.884,1.366-1.35,2.619-1.35a6.721,6.721,0,0,1,3.712,1.061l1.687-1.687a8.844,8.844,0,0,0-5.4-1.687C3.005,31.9.514,33.346.514,35.677c0,3.568,4.291,3.568,6.091,3.728,1.093.112,2.073.177,2.073,1.253,0,1-1.511,1.543-2.684,1.543a5.645,5.645,0,0,1-4.178-1.639L0,42.362a8.272,8.272,0,0,0,5.834,2.314c3.214,0,5.56-1.414,5.56-4.275,0-1.88-1.27-3.005-3.873-3.343" transform="translate(0 -26.774)"/><path class="a" d="M80.1,39.967c0,2.362-1.687,2.234-3.2,2.234-1.527,0-2.491-.4-2.491-1.462,0-1,.787-1.318,2.427-1.318H80.1ZM77.291,31.9a7.921,7.921,0,0,0-4.934,1.7l1.687,1.687a5.261,5.261,0,0,1,3.262-1.061c2.137,0,2.78.852,2.78,1.816v1.205H76.278c-1.414,0-4.178.354-4.178,3.455,0,2.282,1.3,3.953,4.435,3.953A4.4,4.4,0,0,0,80.1,43.165V44.4h2.748v-8.2c0-2.828-1.752-4.307-5.56-4.307" transform="translate(-60.513 -26.774)"/><path class="a" d="M149.06,38.28a14.183,14.183,0,0,1-.08,1.977,2.009,2.009,0,0,1-.466.964,2.992,2.992,0,0,1-2.266.916,3.567,3.567,0,0,1-2.266-.916,2.009,2.009,0,0,1-.466-.964,10.8,10.8,0,0,1-.112-1.977,12.673,12.673,0,0,1,.112-2.105,1.88,1.88,0,0,1,.45-.932,3.221,3.221,0,0,1,4.532-.032,2.01,2.01,0,0,1,.466.964,13.188,13.188,0,0,1,.1,2.105m0-6.123v1.382a4.456,4.456,0,0,0-3.6-1.639,4.271,4.271,0,0,0-4.435,3.037,14.33,14.33,0,0,0-.225,3.343,9.454,9.454,0,0,0,.546,4.034,4.745,4.745,0,0,0,4.114,2.362,4.659,4.659,0,0,0,3.6-1.575v.771a2.311,2.311,0,0,1-.884,1.961,3.506,3.506,0,0,1-2.314.755,4.313,4.313,0,0,1-2.3-.852L141.7,47.6a6.838,6.838,0,0,0,4.21,1.655,6.343,6.343,0,0,0,4.146-1.4,5.5,5.5,0,0,0,1.816-4.275V32.157Z" transform="translate(-118.173 -26.774)"/><g transform="translate(52.486)"><path class="a" d="M327.725,21.94H326.6V4.6h5.014c4.435,0,5.769,2.282,5.769,5.03,0,4.066-2.555,5.464-6.509,5.464h-3.134V21.94Zm3.15-7.874c2.941,0,5.271-.595,5.271-4.451,0-2.7-1.382-4.018-4.885-4.018h-3.552v8.485h3.166Z" transform="translate(-326.6 -3.861)"/><path class="a" d="M392.3,41.716c0-4.484,2.652-6.316,5.576-6.316,3.23,0,4.548,2.2,4.548,4.982a8.763,8.763,0,0,1-.112,1.575h-8.774c.1,4.018,1.9,5.014,4.21,5.014a3.073,3.073,0,0,0,3.359-2.507l1.125.209a4.313,4.313,0,0,1-4.58,3.423C393.473,48.08,392.3,45.09,392.3,41.716Zm8.9-.787c.064-2.893-.964-4.451-3.471-4.451-2.041,0-3.969,1.221-4.194,4.451Z" transform="translate(-381.742 -29.711)"/><path class="a" d="M461.3,41.764c0-3.953,2.041-6.364,5.673-6.364,3.616,0,5.143,2.427,5.143,6.059,0,4-1.559,6.637-5.464,6.637C462.618,48.08,461.3,45.332,461.3,41.764Zm9.578-.177c0-3.825-1.479-5.126-4-5.126-2.587,0-4.4,1.607-4.4,5.191,0,3.568,1.43,5.335,4.291,5.335C469.271,47,470.878,45.492,470.878,41.587Z" transform="translate(-439.653 -29.711)"/><path class="a" d="M533.9,35.541h1.029l.1,1.559a6.952,6.952,0,0,1,4.5-1.8c2.539,0,4.435,1.559,4.435,6.01,0,4.725-2.346,6.685-5.126,6.685a6.881,6.881,0,0,1-3.809-1.334V52.8H533.9Zm1.173,9.948a6.145,6.145,0,0,0,3.761,1.462c2.8,0,3.905-2.346,3.905-5.753,0-3.568-1.077-4.918-3.423-4.918a6.362,6.362,0,0,0-4.243,1.961Z" transform="translate(-500.586 -29.627)"/><path class="a" d="M606.773,18.079H605.6V0h1.173Z" transform="translate(-560.764)"/><path class="a" d="M620.5,41.716c0-4.484,2.651-6.316,5.576-6.316,3.23,0,4.548,2.2,4.548,4.982a8.766,8.766,0,0,1-.112,1.575h-8.774c.1,4.018,1.9,5.014,4.21,5.014a3.074,3.074,0,0,0,3.359-2.507l1.125.209a4.313,4.313,0,0,1-4.58,3.423C621.673,48.08,620.5,45.09,620.5,41.716Zm8.9-.787c.064-2.893-.964-4.451-3.471-4.451-2.041,0-3.969,1.221-4.194,4.451Z" transform="translate(-573.269 -29.711)"/></g></g></svg>