<svg xmlns="http://www.w3.org/2000/svg" viewBox="65 29.849 134.381 28.351">
  <defs>
    <style>
      .cls-1 {
        fill: #00dc00;
      }

      .cls-2 {
        fill: #a7a7a3;
      }
    </style>
  </defs>
  <g id="Group_375" data-name="Group 375" transform="translate(65 29.849)">
    <path id="Path_340" data-name="Path 340" class="cls-1" d="M214.541,38.486a4.055,4.055,0,0,1,8.1,0Zm3.7-6.586c-4.306,0-7.137,2.969-7.137,7.845,0,6.055,4.325,7.805,7.392,7.805a8.45,8.45,0,0,0,6.134-2.635l-1.986-1.986a5.732,5.732,0,0,1-4.089,1.514c-2.4,0-4.03-1.416-4.03-3.323h10.715c0-.02,1.868-9.221-7-9.221" transform="translate(-169.596 -25.628)"/>
    <path id="Path_341" data-name="Path 341" class="cls-1" d="M9.2,38.211c-1.376-.177-5.348-.02-5.348-1.828,0-1.081,1.671-1.651,3.2-1.651a8.222,8.222,0,0,1,4.542,1.3l2.064-2.064A10.82,10.82,0,0,0,7.058,31.9C3.677,31.9.629,33.669.629,36.52c0,4.365,5.249,4.365,7.451,4.561,1.337.138,2.536.216,2.536,1.534,0,1.219-1.848,1.887-3.283,1.887A6.906,6.906,0,0,1,2.222,42.5L0,44.7A10.12,10.12,0,0,0,7.137,47.53c3.932,0,6.8-1.73,6.8-5.23,0-2.3-1.553-3.677-4.738-4.089" transform="translate(0 -25.628)"/>
    <path id="Path_342" data-name="Path 342" class="cls-1" d="M81.891,41.77c0,2.89-2.064,2.733-3.912,2.733-1.868,0-3.047-.492-3.047-1.789,0-1.219.963-1.612,2.969-1.612h3.991v.668ZM78.45,31.9a9.691,9.691,0,0,0-6.036,2.084l2.064,2.064a6.436,6.436,0,0,1,3.991-1.3c2.615,0,3.4,1.042,3.4,2.222v1.475h-4.66c-1.73,0-5.112.433-5.112,4.227,0,2.792,1.593,4.837,5.426,4.837a5.385,5.385,0,0,0,4.365-1.828V47.2h3.362V37.169c0-3.46-2.143-5.269-6.8-5.269" transform="translate(-57.925 -25.628)"/>
    <path id="Path_343" data-name="Path 343" class="cls-1" d="M150.906,39.705a17.349,17.349,0,0,1-.1,2.418,2.459,2.459,0,0,1-.57,1.18,3.66,3.66,0,0,1-2.772,1.121,4.365,4.365,0,0,1-2.772-1.121,2.459,2.459,0,0,1-.57-1.18,13.207,13.207,0,0,1-.138-2.418,15.5,15.5,0,0,1,.138-2.576,2.3,2.3,0,0,1,.55-1.14,3.94,3.94,0,0,1,5.544-.039,2.459,2.459,0,0,1,.57,1.18,16.136,16.136,0,0,1,.118,2.576m0-7.491v1.691a5.451,5.451,0,0,0-4.4-2.005,5.225,5.225,0,0,0-5.426,3.716,17.534,17.534,0,0,0-.275,4.089,11.567,11.567,0,0,0,.668,4.935,5.805,5.805,0,0,0,5.033,2.89,5.7,5.7,0,0,0,4.4-1.927v.944a2.827,2.827,0,0,1-1.081,2.4,4.289,4.289,0,0,1-2.831.924,5.277,5.277,0,0,1-2.811-1.042L141.9,51.108a8.365,8.365,0,0,0,5.151,2.025,7.76,7.76,0,0,0,5.072-1.71,6.73,6.73,0,0,0,2.222-5.23V32.215Z" transform="translate(-113.118 -25.628)"/>
    <g id="Group_374" data-name="Group 374" transform="translate(64.212)">
      <path id="Path_344" data-name="Path 344" class="cls-2" d="M327.976,25.814H326.6V4.6h6.134c5.426,0,7.058,2.792,7.058,6.154,0,4.974-3.126,6.685-7.963,6.685H328v8.375Zm3.854-9.634c3.6,0,6.449-.727,6.449-5.446,0-3.3-1.691-4.915-5.977-4.915h-4.345V16.2h3.873Z" transform="translate(-326.6 -3.696)"/>
      <path id="Path_345" data-name="Path 345" class="cls-2" d="M392.3,43.127c0-5.485,3.244-7.727,6.822-7.727,3.952,0,5.564,2.694,5.564,6.095a10.717,10.717,0,0,1-.138,1.927H393.814c.118,4.915,2.32,6.134,5.151,6.134a3.76,3.76,0,0,0,4.109-3.067l1.376.256c-.727,3.028-3.028,4.188-5.6,4.188C393.735,50.912,392.3,47.255,392.3,43.127Zm10.892-.963c.079-3.539-1.18-5.446-4.247-5.446-2.5,0-4.856,1.494-5.131,5.446Z" transform="translate(-379.383 -28.44)"/>
      <path id="Path_346" data-name="Path 346" class="cls-2" d="M461.3,43.186c0-4.837,2.5-7.786,6.94-7.786,4.424,0,6.291,2.969,6.291,7.412,0,4.9-1.907,8.12-6.685,8.12C462.912,50.912,461.3,47.55,461.3,43.186Zm11.718-.216c0-4.679-1.809-6.272-4.9-6.272-3.165,0-5.387,1.966-5.387,6.35,0,4.365,1.75,6.527,5.249,6.527C471.052,49.6,473.018,47.747,473.018,42.969Z" transform="translate(-434.817 -28.44)"/>
      <path id="Path_347" data-name="Path 347" class="cls-2" d="M533.9,35.595h1.258l.118,1.907a8.505,8.505,0,0,1,5.505-2.2c3.106,0,5.426,1.907,5.426,7.353,0,5.78-2.87,8.179-6.272,8.179a8.419,8.419,0,0,1-4.66-1.632v7.51H533.9Zm1.435,12.17a7.518,7.518,0,0,0,4.6,1.789c3.421,0,4.778-2.87,4.778-7.039,0-4.365-1.317-6.016-4.188-6.016a7.783,7.783,0,0,0-5.19,2.4Z" transform="translate(-493.143 -28.36)"/>
      <path id="Path_348" data-name="Path 348" class="cls-2" d="M607.035,22.118H605.6V0h1.435Z" transform="translate(-550.747)"/>
      <path id="Path_349" data-name="Path 349" class="cls-2" d="M620.5,43.127c0-5.485,3.244-7.727,6.822-7.727,3.952,0,5.564,2.694,5.564,6.095a10.717,10.717,0,0,1-.138,1.927H622.014c.118,4.915,2.32,6.134,5.151,6.134a3.76,3.76,0,0,0,4.109-3.067l1.376.256c-.727,3.028-3.028,4.188-5.6,4.188C621.935,50.912,620.5,47.255,620.5,43.127Zm10.892-.963c.079-3.539-1.18-5.446-4.247-5.446-2.5,0-4.856,1.494-5.131,5.446Z" transform="translate(-562.717 -28.44)"/>
    </g>
  </g>
</svg>
